<?xml version="1.0" encoding="UTF-8"?>
<svg id="Calque_1" data-name="Calque 1" xmlns="http://www.w3.org/2000/svg" xmlns:xlink="http://www.w3.org/1999/xlink" viewBox="0 0 283.46 283.46">
  <defs>
    <style>
      .cls-1 {
        stroke: #dadada;
        stroke-miterlimit: 10;
        stroke-width: .25px;
      }

      .cls-1, .cls-2, .cls-3 {
        fill: none;
      }

      .cls-2, .cls-4, .cls-3 {
        stroke-width: 0px;
      }

      .cls-4 {
        fill: #dadada;
      }

      .cls-5 {
        clip-path: url(#clippath);
      }

      .cls-3 {
        isolation: isolate;
        opacity: .19;
      }
    </style>
    <clipPath id="clippath">
      <ellipse class="cls-1" cx="137.22" cy="92.07" rx="60.98" ry="61"/>
    </clipPath>
  </defs>
  <g>
    <g>
      <g class="cls-5">
        <path class="cls-4" d="M38.53,61.1c.4,0,.45.15.8,0,.35-.14,1.36-.82,1.71-.91.34-.09.57.03.06.31-.51.28-1.53.9-1.35.85.18-.05.7-.27,1.43-.61.73-.34.66-.19.85-.56.19-.37.29-.56.29-.56,0,0,1.16,1.19,1.27,1.23.11.05.15,0,.21-.15.06-.15.18-.35.35-.28.16.07.02.35.12.39.1.04.26,0,.57-.11.3-.1.15-.32.15-.32,0,0-.03,0,.32-.04.35-.03,1.46.38,1.79.51.33.13,1.32.24,1.6.33.28.09.39-.16.77.05.39.21.67.48.39.63-.29.15-1.01.25-.64.34.37.09.93.21,1.46.19.53-.02,1.49-.21,1.79-.21s.48.18.76.65c.28.47.5.65.61.69.11.04-.11-.22-.05-.45.06-.23-.06-.68-.12-.83-.06-.15,0-.23-.13-.45-.13-.22-.34-.18.05-.37.39-.19.67-.47,1.14-.41.48.06.61.67,1.02.71.41.05.49.21,1.19.26.71.05.41,0,1.2.06.79.05.5-.09.67-.49.16-.41.35-.48.53-.47.19.02.85.11.85.19s-.28.52-.14.73c.14.21.71.57.71.57,0,0-.12-.49-.12-.54s-.04-.44.04-.51c.08-.07.55.04.85-.54.29-.57-.2-.54-.2-.54,0,0-.18,0-.09-.23.09-.24.62-.38.62-.38,0,0,.03.11-.03-.09-.07-.19-.41-.15-.78-.18-.37-.02-.62-.08-.69-.39-.07-.31-.09-.97-.09-1.42s.36-.29.43-.54c.07-.25-.02-1.48-.11-1.74-.09-.25.13-.8.18-1.16.05-.36.42-.2.42-.2-.07-.12.11-.47.6-.61s1.43,0,1.43,0c0,0-.08,0-.31.31-.23.3-.08.83-.43,1.2-.34.38-1.22.25-1.22.25,0,0,.27.62.16.82-.12.2-.19.61-.19.61,0,0,.77.21.81.7.04.49.43.57.52,1.03.09.45-.38.83-.28.9.1.07.13.1.41.11.28.02.66.07.66.07,0,0-.16.23-.02.47.14.25.03.4.05.66.02.26.17.48.24.44.07-.05.37-.71.44-1.01.07-.3.11-.46.25-.46s.58.41.63.55c.05.15.08.34-.16.74-.25.4-.22.58,0,.74.21.15.22.11.61.29.39.18.31.17.55.1.24-.07-.1-.67-.07-.69.03-.02.57-.08.45-.38-.12-.31-.25-.46,0-.61.26-.15.44-.28.44-.28-.11-.19-.14-.21-.32-.72-.18-.51.16-.37.86-.32.71.05.74.3,1.12.49.38.19.14.26.26.57.12.31-.31.35-.31.35,0,0-.29.05-.22.29.07.24.2.52.4.89.21.37-.06.62-.38.92-.32.3-.7.38-1.08.39-.38,0-.54.16-.57.05-.03-.11-.21-.21-.41-.16-.21.05-.67.23-.51.29.16.06.6.05.42.38-.18.34-.34.34-.7.3-.36-.04-.7-.04-.93-.05-.23-.01-1.36-.08-1.36-.08,0,0,.77.47,1.37.66.61.19,1.25.08,1.25.08,0,0-.25.46-.54.95-.3.49-.58.28-.82.31-.25.03-.4.23-.85.29-.46.06-1.42-.13-1.27-.06.15.07.21.19.48.23.26.04.43.08.66.28.23.19-.15.24-.45.29-.3.05-.39.11-.53.3-.14.19-.66.93-.82,1.16-.16.23-.31.61-.38,1.06-.07.45-.45,1-.28,1.11.17.11.82.13,1.09.3.27.17.58,1,.78,1.31.21.31.37.55.6.31.23-.25.68-.18,1.11-.03.43.15,1.3.76,1.57,1.02.27.27.75.22,1.28.3.53.08.59.28.59.28,0,0,.56.03.33.27-.23.24-.3,0-.07.41.23.4.22.93.16,1.2-.07.27.74.13,1.07.33.34.2.36,1.01.53.91.17-.1.46-.28.49-.49.03-.21,0-.5-.04-.87-.03-.37-.12-1.04-.3-1.31-.18-.27.33-.38.24-.49-.08-.11-.06-.34.28-.44.35-.09.37,0,.56-.15.19-.15.22-.83.25-1.07.03-.24-.06-.77-.14-.97-.08-.2-.42-.83-.54-.97-.13-.14-.28-.18.06-.6.34-.43.14-.34.09-.47-.05-.13-.12-.45-.19-.74-.07-.29.14-.61.02-1.03-.12-.41-.25-.32-.23-.41.02-.09.8-.07,1.38,0,.58.06.8-.06.97-.06s.46.16.78.37c.32.21.44.15.61.41.16.25.25.39.59.38.34-.02.7.15.7.15,0,0-.24.14-.2.59.04.45-.05.78-.04.96,0,.18.1.19.25.21.16.02.58.4,1.01.55.44.15.55.11.69-.25.14-.35.17-.32.35-.34.17-.02.23.04.3-.04.07-.08-.13-.23-.08-.47.05-.25.29-.57.49-.75.2-.18.34.18.51.52.17.34.77,1.43.95,1.79.17.36.39.38.19.72-.21.34-.3.48.02.63.32.15.61.42.58.67-.03.25-.09.26.02.33.11.07.49-.14.77-.02.28.12.62.24.81.44.2.2.18.27-.1.37-.28.1-.56.2-.7.28-.14.08-.36.25-.35.38,0,.13-.06.34.16.18.22-.17.58-.34.85-.41.26-.08.07,0,.3-.04.24-.03.47.11.8.21.33.09.24.3.16.49-.08.19-.16.37-.02.59.13.21-.06.41-.35.67-.29.26-.5.3-.97.36-.47.06-.69.34-1.02.65-.33.31-.49.23-.97.25-.48.02-.29-.24-.43-.18-.15.05-.34.21-.64.25-.3.03-1.33.05-1.73.16-.39.11-.27.38-.37.6-.1.22-.25.13-.55.23-.3.1-.65.54-.99,1.13-.35.6-.81.96-.81.96.1-.02.58-.32.82-.61.24-.29,1.23-.98,1.54-1.19.3-.21.96-.53,1.12-.48.16.05.54.34.54.5s-.12.28-.39.54c-.28.26-.65,0-.62.11.02.11.22.35.44.41.21.05.2.31.2.44s-.12.3.37.71c.49.41.84.44,1.2.42.36-.02.17.12.32.11.15-.02.18-.3.23-.53.05-.23.13-.44.26-.54.13-.1.23-.28.27.07.04.35-.15.83-.34.94-.19.11-.15.24-.15.35s-.21.11-.72.4c-.51.28-.67.35-.76.31-.09-.04-.28.05-.53.27-.25.22-.51.52-.69.51-.18,0-.34-.08-.09-.34.25-.25.33-.6.58-.73.25-.12.36-.11.57-.11s.11-.12.27-.24c.16-.12-.12-.09-.4-.13-.28-.05-.07-.29-.07-.29l-.29.15s-.43.23-.55.25c-.11.01-.09.09-.12.14-.03.05-.44.08-.44.08,0,0-.21.44-.53.5-.32.06-.1.04-.33.14-.23.1-.19-.11-.24-.05-.05.06-.09.12-.34.31-.26.19-.4.25-.58.95-.18.7.03.95.02,1.06,0,.11-.32-.07-.41.01-.09.08-.3.34-.57.42s-.8.21-.93.34c-.12.13-.13.31-.19.58-.06.27-.38.9-.38.9,0,0,.07-.25-.15-.44-.22-.18-.19-.35-.19-.35,0,0-.05.25.03.51.08.26.25.52.17.8-.08.28-.21.64-.39.74-.17.1.04-.19.04-.42s-.11-.25-.19-.36c-.07-.12-.07-.41.06-.8.13-.39-.12-.15-.27.11-.15.26-.25.74-.02,1.06.23.31-.15.28,0,.73.16.45-.19.67-.12.74.07.07.25-.03.33.19.08.22-.16.12-.25.18-.08.06-.04.15,0,.27.05.12.15.04.11.08-.04.04-.16.19-.37.26-.21.07-.23-.04-.36.11-.13.15-.23.29-.37.47-.14.18-.24.12-.39.24-.15.12-.21.22-.39.38-.18.15-.59.39-.81.69-.22.3-.16.38-.27.86-.11.48.27,1.32.51,2.12.24.8.34.57.3.83-.03.25-.14.56-.31.74-.17.18-.27-.12-.51-.3-.24-.18-.05-.3-.28-.66-.23-.37-.21-.5-.24-.77-.03-.27-.07-.65-.19-.94-.12-.29-.39-.66-.78-.51-.39.15-.3.08-.51.01-.21-.06-.78-.29-1.07-.14-.29.15-1.2-.05-1.39,0-.19.05-.33.06-.33.19s-.08.15.26.24c.34.09.29.19.26.34-.03.15-.27-.08-.4-.13-.13-.05-.25.11-.48.11s-.27-.22-.48-.25c-.21-.03-.29,0-.48-.08-.2-.08-.46-.21-.69-.19-.23.02-1.12.61-1.54.92-.42.31-.74.62-.84.87-.1.25-.11.28.23.65.34.38.18.31.11.53-.07.21-.26.47-.5,1.03-.24.55-.1.82.19,1.35.29.53.54.91.77,1.13.23.22.39.46.59.54.2.08.24.11.33.21.09.09.07.13.38.05.31-.08.54-.21.76-.21s.43,0,.55.12c.12.11.14.05.14-.02s.1-.29.13-.35c.03-.06.33-.48.38-.71.05-.23.05-.69.34-.72.29-.03.9-.18,1.46-.14.56.04.31.31.16.6-.15.29-.21.32-.21.54s.07.22-.11.35c-.18.13-.07-.08-.14.05-.07.13-.34.31-.3.28.03-.03.11.22.11.34s-.02.18-.02.48-.58.6-.58.6c0,0,.21.12.53.12s.69,0,1.02.15c.33.15.95-.12,1.41.11.46.23.3.37.33.58.03.21.08.95.05,1.12-.03.17-.25.64-.36.98-.11.34.33.58.74.86.41.28.77.4.99.46.21.06.61-.32,1.33-.28.72.05.97.66.97.66,0,0,.08-.38.41-.9.33-.52.34-.67.79-.84.45-.17.59-.2,1.32-.43.72-.23.59-.06.97-.03.38.03,1.25.11,2.12.37.87.26,2.2.34,2.71.55.51.21.74.81,1.27,1.3.53.49,1.18.93,1.46,1.16.28.23,1.84.44,2.19.58.34.14.82.7.85,1.04.03.34.38.51.85.7.48.2.62.43.94,1.04.31.61.21.78.64.93.43.15,3.39.95,4.13,1.24.74.29,1.68,1.07,1.92,1.16.25.09.69-.08.89.03.2.11-.12.69.13,1.1.25.41.26.44.11.75-.15.31-.74,1.04-.97,1.41-.23.37-.72.6-1,.75-.28.15-.53,0-.28.31.25.31.02.57-.2.84-.21.28.02.24-.05,1.13-.07.89,0,1.85-.1,2.23-.1.38-.67-.34-1.33.49-.66.83-.84,1.45-1.23,1.55-.4.09-1.31.55-1.63.84-.31.29-.38.4-.58.83-.2.43-.39,1.3-.61,1.84-.21.54-.56.84-1.35,1.56-.79.72-1.13,1.45-1.64,2.02-.51.57-.38.44-.48.55-.27.27-1.39-.44-1.1-.05.21.29-.12,0,.06.27.18.28.31.38-.08.87-.39.49-.85.39-1.16.47-.31.08-.78-.32-.81-.12-.03.2-.21.69-.46.82-.25.12-.9.31-.89.38.31,1.45.95,1.6.27,1.54-1.85-.18-.53-.62-1.82,2.08-.2.41-.39.2-.36.69.03.49,0,.86.26,1.16.26.31.08.29-.36.7-.44.41-.48.35-.89.98-.41.63-.81.6-.66,1.07.15.47.18,1.18.43,1.88.25.7.76.58,1.56,1.07.8.49.9.23,1.3.35.39.12-.28.15-.99.28-.71.12-1.17.26-1.66.15-.49-.11-1.66-.78-2.05-1.07-.39-.29-1.03-.81-1.27-1.32-.23-.51-.39-1.01-.69-1.7-.3-.69-.08-1.12.05-2.63.13-1.52.23-2.69.44-3.51.21-.81.87-4.42,1.05-5.36.18-.93,1.02-4.73,1.09-5.33.07-.6.12-1.06.25-1.65.13-.6.05-1.81.05-1.87s-.05-.11-.23-.67c-.18-.57-.48-.8-.89-1.04-.41-.25-.84-.55-1.17-.78-.33-.23-.72-.55-1.05-.96-.33-.41-.64-1.26-.81-1.61-.16-.35-.77-1.55-1.33-2.37-.56-.83-.59-.84-.87-1.72-.28-.87.25-.89.35-1.38.1-.49.43-.98.79-1.67.36-.69.84-.89,1.12-1.5.28-.61.07-.61-.03-1.21-.1-.6.03-.5-.15-.83-.18-.32-.28-.72-.44-.83-.16-.11-.41-.18-.56-.02-.15.17-.41.66-.58.69-.16.03-.23-.15-.33-.26-.1-.11-.58-.11-.67-.21-.1-.11-.34-.12-.51-.2-.17-.08-.81-.41-.99-.57-.18-.15-.41-.52-.41-.92s-.34-.55-1.12-1.1c-.77-.55-1.1-.63-2.04-.86-.94-.23-1.31-.89-1.63-1.07-.31-.18-.28-.38-.97-.31-.69.08-1.53-.31-2.05-.52-.52-.21-1.46-.37-1.86-.63-.39-.26-1.08-.35-1.38-.98-.3-.63-.25-.38-.13-.93.11-.55-.67-1.01-1.15-1.53-.48-.52-.84-.6-1.08-1.24-.25-.64-.61-.61-1.08-1.07-.48-.46-.49-1.04-.69-1.56-.2-.52-1.51-1.27-1.51-1.27,0,0,.34.87.49,1.23.15.35.49,1.19.89,1.82.39.63.74.78,1.1,1.41.36.63.02,1.01-.12.77-.13-.25-.66-.35-.66-.64s-.13-.47-.25-.7c-.11-.23-.62-.49-1.12-.89-.49-.4-.84-.58-.53-.58s.76.29.67.11c-.08-.18-.64-.75-.9-1.15-.26-.4-.35-.84-.61-1.52-.26-.67-1.23-1.32-1.71-1.36-.48-.05-.61-.28-.77-.77-.16-.49-.2-1.01-.41-1.39-.21-.38-1.13-1.67-1.15-2.16-.02-.49-.28-1.91.05-2.71.33-.8.25-2.57.2-2.92-.05-.35-.64-1.03-.64-1.29s.35-.11.61-.03c.26.08.82.31.82.31,0,0-.43-.8-.69-1.07-.26-.28-1.04-.63-1.38-.7-.35-.08-.79-.2-.97-.49-.18-.29-.38-.67-.51-.92-.13-.24-.69-.53-.82-.8-.13-.26-.1-.77-.28-1.03-.18-.26-.44-.41-.74-.31-.3.11-.39-.15-.62-.54-.23-.38-.74-.57-.89-.61-.15-.05-.66-.72-.69-.89-.03-.17-.84-1.06-1.1-1.24-.26-.18-2.81-1.01-2.88-1.01s-.81.11-1,.05c-.2-.06-.87-.64-1.22-.77-.35-.12-.59.14-.76.52-.17.38-.97,1.04-1.41,1.33-.44.29-.81.32-.77.17.03-.15.02-.4.17-.77.15-.37.23-.47.69-.7.46-.23.44-.25.26-.23-.18.02-.31-.03.05-.24.36-.22.51-.25.49-.43-.02-.18-.79.25-1.28.64-.49.4-.79.67-1.22,1.38-.43.7.05.44-.31.9-.36.46-1.59,1.39-1.96,1.75-.36.35-1.86,1.13-2.47,1.32-.61.18-.85.26-1.15.51-.3.24-1.03.32-.79.15.25-.17.71-.55,1.02-.74.31-.18,1.15-.52,1.4-.61.25-.09.94-.52,1.28-.9.34-.38.58-.83.8-1.19.23-.37.28-.54-.2-.38-.48.15-.97.09-1.22,0-.25-.09-.89.29-1.12.12-.23-.17.02-.52-.13-.69-.15-.17-.66-.06-.99-.12-.33-.06-.79-.32-.79-.78s-.33-.86-.15-1.21c.18-.35.45-.44.74-.64.3-.2,1.12-.46,1.28-.46s.4-.17.54-.32c.15-.15-.35-.7-.35-.7,0,0,.08-.06.28-.18.2-.12.05-.38-.3-.34-.35.05-1.08.4-1.54.52-.46.12-1.08.05-1.07-.15.02-.2.11-.32-.05-.47-.16-.15-.3-.32-.13-.4.16-.08,1.18-.64,1.18-.64,0,0,.36.4.76.44.39.05,1.23-.69,1.23-.69-.53-.32-.41-.41-.41-.41,0,0-.85-.02-1.05-.14-.2-.12-.26-.37-.31-.58-.05-.21-.89-.38-.66-.74.23-.35.66-.47.94-.83.28-.35.53-1.01,1.33-1.38.81-.37,1.78-.7,2.2-1.01.43-.31.62-.01.79.03.16.05,1.18-.04,1.58-.04s.46.44.59.55c.13.11,3.6.21,3.6.21,0,0,2.94.05,3.53.21.59.17,1.66.61,1.66.61.65-.08.59-.87.99-.87ZM78.05,43.34s-.3,1.23-1.48,1.56c-1.18.34-3.35,1.29-3.45,1.35-.1.06.13.73.43,1.07.3.34.58.57.84.9.26.34.72.31,1.09.66.36.35.62.23,1.61.25.99.02.72.09,1.82.15,1.1.06,2.25.15,2.63.49.38.34.92,1.65,1.27,2.45.35.8.95,2.11.95,2.24s-.38,1.09-.38,1.24.2.41.38.63c.18.21.08.38.05.58-.03.2.2.7.23.77.03.06.53-.49.84-.58.31-.09,1.09.55,1.09,1,0,1.01.27.66-1.36,1.85-.22.16-.43,1.36-.26,1.94.16.58.56,1.27.87,2.1.31.83,1.23,1.99,1.53,2.53.3.54.38,1.27,1.04,1.44.66.17,1.28.4,1.76.5.48.11.79.26,1.02-.18.23-.44.69-2.13,1.07-3.35.38-1.23-.03-1.59.85-1.87.89-.28,2.3-.83,2.68-1,.38-.17.31-1.38,1.15-1.78.84-.4.95-.37,1.77-.63.82-.26,1.97-.78,2.79-1.36.82-.58,1.05-.28,1.35-.81.3-.54-.3-1.32-.36-2.11-.07-.8.26-.84.43-1.56.17-.72.25-1.19.89-1.68.64-.49.99-.76.87-1.22-.12-.46-.44-1.15-.44-1.65s.11-.21-.15-.92c-.26-.7-.26-.8-.02-1.45.25-.66.9-.49.86-.78-.05-.29-1.05-.73-1.07-1.55-.02-.81.18-1.06.34-1.26.16-.2,1.84-1.53,1.96-1.65.11-.12-.03-.46.79-.86.82-.4,1.1-.66,1.41-.78.31-.12.81-.11-.15-.38-.95-.28-1.17-.4-1.79-.32-.62.08-.84.43-1.96.54-1.12.11-2.38.63-2.38.63,0,0,.38-.34.05-.66-.33-.32.85-1.38,1.05-1.5.2-.12-1.55-.55-2.45-.72-.9-.17-2.68-.7-3.7-.63-1.02.08-2.51.06-3.02.23-.51.17-.44.83-1.02.86-.58.03-1.64-.34-2.47-.21-.82.12-2.14.69-2.28.72-.15.03.51.43.94.52.43.09.99.98.99.98,0,0-1.15-.38-2.32-.7-1.17-.32-2.53,0-3.01.14-.48.14-1.1.4-2.05.44-.95.05-2.04.83-2.58,1.19-.54.37-2.23,1.35-2.66,1.58-.43.23-.26.34.2.46.46.12.95.2.95.2ZM53.69,56c.13.56.13,1.37-.18,1.02-.31-.35-.56-1.05-1.05-.77-.49.29-1.03.21-.94.14.09-.06-.01-.37-.26-.46-.25-.09-.4.05-.67.2-.26.15-1.1.36-.76.09.34-.27.23-.41.11-.71-.12-.31-.99.21-1.45.54-.46.33-.73.83-1.01,1.16-.27.34-.08.55.34.67.42.12,1.09.2.53.41-.56.2-.99.35-.7.52.28.17.78.2,1.27.14.49-.06.91-.19,1.7.02.79.21,1.26.2,1.26.2,0,0-.3.18-.82.28-.53.09-1.49,0-1.98.09-.49.09-1.27.22-1.07.41.2.18.35.47,1.03.68.68.21.8.01,1.21.11.41.1.19.56.3.63.11.07.88-.06,1.64-.2.77-.14.48-.27,1.09-.42.6-.15.62-.61.97-.71.35-.1.1.23.51.34.42.1.19.13.64.2.45.07.36.24.8.21.44-.03.95-.33.89-.38-.07-.05-.13-.18-.09-.39.04-.2-.44.04-.61.14-.18.1-.16-.28.21-.46.37-.18.7,0,.92,0s.02-.63-.37-.73c-.39-.1-.57-.35-1.16-.67-.59-.33-.28-.47-.46-.9-.18-.43-.55-1.7-.88-1.92-.33-.22-.68-.16-1.01-.39,0,0-.07.32.07.88ZM44.59,55.13c.14.41.16.15-.12.6-.28.45-.12.61-.32.95-.2.34-.72.79-.56,1.01.16.22.69.36.91.53.22.17.44.53.83.4.4-.13.53-.22.8-.37.27-.14.5-.31.49-.66-.01-.36-.02-.53.09-.5.11.03.28.19.37-.04.09-.23.24-.54.43-.72.19-.18.72-.37.97-.58.25-.21.68-.45.8-.63.12-.19-.22-.33-.43-.41-.21-.08-.45-.41-.93-.41s-.74.37-.72.2c.02-.16-.33-.25-.53-.32-.2-.07-.38-.18-1.01-.11-.62.07-.89.11-1.38.26-.43.12.15.4.3.81ZM58.86,60.02c-.06.09-.35.18-.53.39-.17.2.37.09.55.15.18.06.31.23.45.29.14.05.91.08,1.23-.07.32-.15.35-.2.32-.27-.03-.07-.66-.68-1.12-.93-.46-.25-.47-.25-.57-.19-.1.06-.26.55-.33.64ZM56.79,55.24c-.3.15-.51.33-.01.58.5.25.67.47,1.01.68.34.21.48.83,1.19.55.71-.28,1-.6,1.1-.89.1-.29-.1-.35-.27-.61-.18-.26-.22-.38-.58-.34-.36.04-.48.04-.48.04,0,0,.24-.31.64-.5.39-.19.07-.33.25-.51.19-.18-.47-.28-.76-.2-.29.07-.3-.02-.77-.04-.47-.02-1.22.41-1.18.56.03.15.38.09.71.28.33.18.43.16.1.68-.33.52-.5-.12-.61-.2-.11-.08-.02-.23-.33-.08ZM54.69,54.31c-.49.05-.66.39-.47.44.19.05.31-.05.6.27.3.32.56.49.68-.03.12-.52-.05-.75-.81-.67ZM46.77,50.35c-.55.44-.66.79-1.08,1.06-.43.27-.33.51-.19.66.14.15.57,0,.77-.11.2-.1.36-.36.48-.2.12.15.63-.52.82-.75.2-.22.5-.46.56-.45.05.01-.19.27-.1.48.09.21.48.22.83-.14.35-.37.03-.7.31-.99.27-.29.5-.25-.03-.5-.54-.26-.88.03-.99.16-.11.13-.31-.08-1.38.77ZM50.12,51.05c-.31.01-.45.06-.96.29-.52.22-.73.81-.85,1.12-.12.32.05.32.53.5.47.18,1.13-.05,1.28-.49.15-.44.34.1.25.33-.09.22.33.02.53-.08.2-.1.79-.14.83-.14s-.48.4-1,.57c-.51.17-.93.27-1.07.29-.14.02.13.23.73.36.6.12.96-.37,1.83-.69.86-.33.82-.39,1.11-.31.29.08.59-.14.94-.23.35-.08.49.05.65-.47.15-.52.43-1.02-.07-1.05-.49-.03-.53-.03-.59.53-.07.56-.11.21-.11.21,0,0-.33-.49-.53-.75-.2-.25-.34-.65-.56-.87-.22-.21-.32.09-.66.47-.34.38-.07.52.27.68.34.16.58.58.42.69-.16.11-.35-.02-.98.05-.63.07-.6-.19-.78-.28-.18-.08.3-.26-.37-.53-.67-.28-.62-.23-.84-.21ZM48.09,51.58c.07-.12-.83.53-.97.74-.14.21.14.17.41.16.27-.01.33-.51.56-.9ZM49.82,50.23c-.23.1-.23.18.14.22.37.04.58-.12.5-.28-.08-.15-.47-.03-.65.06ZM51.69,48.29c-.24.04-.95.29-.99.41-.04.12,0,.39.12.6.11.21.15.24.76.08.61-.16,1.04-.48.83-.54-.2-.06-.33-.15-.51-.17-.18-.03.16-.12.56-.25.41-.13.54-.35-.77-.13ZM49.61,48.61c-.17.08-.24.08.13.22.36.14.75.13.7.02-.05-.11-.34-.46-.83-.23ZM51.03,47.6c-.34.14-.42.38-.5.48-.08.1.39-.07.6-.12.21-.05.26.08.47-.11.21-.18.62,0,.99-.08.37-.08.43-.33.35-.54-.08-.21-.94-.02-1.92.37ZM54.74,48.53c-.1.05-.07.21.02.4.09.19.11.14.3.21.19.07.37.22.42.27.04.05.07.06.15-.12.08-.18-.04-.15-.25-.4-.21-.25-.37-.48-.64-.36ZM56.01,50.13c-.28-.08-.44.09-.55.14-.1.05.05.17.13.39.07.22.01.29.43.32.42.03.54-.05.58-.31.03-.27-.32-.46-.58-.54ZM57.62,50.61c-.26-.19-.38-.34-.65-.23-.26.11-.04.24-.04.31s.32-.01.32.16c0,.17.1.24-.28.27-.38.02-.49,0-.64.12-.15.11.29-.02.42.16.13.17.36.19.72.14.37-.06.87-.14.87-.14,0,0-.27.25-.38.43-.11.18-.15.43.04.56.19.13.21-.13.75-.14.53-.01.69-.29.69-.29,0,0-.12-.12-.1-.38.02-.27,0-.33,0-.33,0,0,.21.15.26.21,0,0-.04-.16-.11-.44-.08-.28-.02-.31-.1-.69-.08-.39-.07-.47-.47-.46-.4.01-.67.15-1,.15s-.47.06-.23.18c.24.12.27.27.39.41.12.14.09.47.1.45,0-.02-.55-.45-.55-.45ZM55.62,52.06s-.01,0-.02,0c-.17.08-.22.27-.23.4-.01.13.22.06.59-.07.37-.13.19-.5-.33-.33ZM60.79,51.37c-.3.17-.55.39-.72.59-.17.2-.02.22.43.45.46.23.94.28,1.16.04.21-.24-.1-1.5-.86-1.08ZM62.91,49.59c-.58.06-.4.14-1.08-.08-.67-.22-1.52-.25-1.75-.25s-.12.11.12.5c.24.39.3.53.8.4.49-.12.9-.21,1.26.31.36.52.55.68.25.87-.3.19-.16.5.02.9.17.4.57.38,1.12.38s4.03-.05,4.58-.15c.54-.1,1.03-.56,1.32-.77.29-.21.44-.53.05-.77-.4-.24-.95-.46-1.4-.46s-.82.23-1.5.3c-.67.07-.53.39-1.13.41-.61.01-.31.28-1.06-.02-.75-.31-1.3-.69-.94-.74.35-.05.64-.1.44-.27-.2-.17-.54-.63-1.09-.57ZM55.94,46.74c.36.12.45.21.05.32-.4.11-.72.39-.31.34.4-.05.75.04,1.27.12.52.08.48.03.71.32.23.29.48.29.83.21.35-.08.4-.11.17-.36-.23-.25-.47-.72-.78-.9-.31-.18-.58-.44-.89-.41-.31.03-.39.04-.66-.33-.27-.37-.48-.19-.88-.09-.39.1-.52.38-.67.51-.31.25.81.16,1.17.28ZM60.67,42.99c-.43.54-.77.99-.29,1.04.49.05.7-.04.73.12.03.15-.08.26-.81.26s-.5.16-.1.64c.4.47.44.31,1.06.3.62-.02.82-.24,1.33-.11.51.13.67.26.21.4-.46.14-1.55.4-1.3.63.25.23,1.01.78,1.36.83.34.05.42-.23,1.17-.15.75.08.57.16.65-.05.08-.21.49-.73.58-.93.08-.19.29-.31.7-.41.41-.09.54-.22.16-.36-.39-.14-.82-.2-.78-.31.04-.11.28-.42.11-.58-.16-.16-.43-.15-.64-.24-.21-.08-.45-.47-.72-.64-.27-.17-.51-.18-.84-.44-.33-.25-.85-.87-1.51-.83-.44.02-.63.28-1.06.82ZM59.83,47.47c-.16.08-.57.1-.27.35.3.25.22.26.61.12.39-.15.95-.51,1-.61.05-.11-.39-.31-.68-.41-.3-.09-.5-.33-1.12-.5-.9-.24.63.96.47,1.05ZM79.94,39.51c-.68-.18-3.11-.65-3.9-.47-.79.18-.75-.41-1.84-.26-1.1.14-2.78.06-3.31.14-.53.08.26.31.55.49.28.18-1.36-.2-2.61.14-1.25.35-2.06.53-.72,1.04,1.34.51,1.51.65,1.51.65,0,0-1.71-.31-2.43-.59-.72-.29-.33-.27-1.69.12-1.36.39-2.67.59-2.61,1,.07.41,1.1.96,1.77,1.1.68.14,2.08-.2,2.19-.25.11-.04-.55.55-.55.55,0,0,.7-.14,1.49-.35.79-.2,1.4-.43,2.15-.69.74-.27.88-.35.88-.35,0,0-1.29,1-2.19,1.35-.9.35-2.06.57-2.61.59-.55.02-.46.37.09.65.55.29.96.9,1.25,1.1.28.21.33.53.33.53,0,0-.85-.67-1.8,0-.94.67-.81,1.02-.57,1.1.24.08,1.07.16,1.23.45.15.29,1.25-.27,1.25-.27,0,0-.55.69-1.07.69s-.5-.45-1.27-.37c-.77.08-.72.27-.39.53.33.27.59.35.02.61-.57.27-.83.35-.85.67-.02.33.74.33,1.23.33s.94-.04,1.82-.06c.88-.02.77-.31,1.1-.31s.66.1.53.43c-.13.33.13.12,1.1-.22.96-.35.52-.88.46-1.06-.07-.18-.42-.25-.64-.35-.22-.1.66-1,.53-1.31-.13-.31,1.07-.06,1.62-.78.55-.71.35-1.25-.04-1.37-.39-.12.72-.04,1.07-.25.35-.2,1.12-.45,1.42-.84.31-.39.42-.53-.33-.45-.75.08,1.07-.33,1.95-.9.88-.57,1.89-1.24,2.1-1.41.22-.16.42-.08-.61-.02-1.03.06-2.26-.08-1.58-.16.68-.08,2.7-.33,3.22-.71.53-.39.77-.51.77-.51ZM67.67,53.67c-1.1-.1-2.7-.37-3.02.57-.33.94-.83,3.02-.88,3.41-.04.39,1.32.96,2.26,1,.94.04,2.48.1,2.17-.12-.31-.22-.04-.35.83-.31.88.04.96-.18.96-.37s.15.22.77.55c.61.33,1.14,1.25,1.69,1.78.55.53,1.77,1.24,1.53,1.65-.24.41.26,1.84-1.62,2.16-1.88.33-1.99.1-1.97.53.02.43.11.61.85.61s1.78-.61,2.13-.16c.35.45.83.61,1.14.71.31.1-.37.28-.55.35-.17.06.37.12,1.45.63,1.07.51,2.37.57,1.73.2-.64-.37-.94-1.04-1.23-1.27-.28-.22-.02-.04.48.08.5.12.96.53,1.18.71.22.18.33-.06.48-.78.15-.71-.07-.71-.92-1.29-.85-.57-1.12-1.02-1.21-1.43-.09-.41.44-.49.66-.78.22-.28.83.51,1.25.98.42.47.77,1.29,1.1.69.33-.59.63-1.92.63-2.23s-.33.02-1.73-.67c-1.4-.69-2.13-.96-2.26-.96s.37-.27.99-.57c.61-.31.88-.26-.44-1.51-1.31-1.25-1.69-1.51-2.54-1.59-.85-.08-1.1-.98-1.71-1.29-.61-.31-2.04.37-2.46.47-.42.1-.28.26-.81-.49-.53-.76-.94-1.31-.94-1.31ZM68.66,53.67c-.54.07.33,1.06,1.03,1.1.7.04,1.29-.31,1.45-.35.15-.04-1.62-.86-2.48-.76ZM66.2,63.8c-.09.22-.31.84-.35,1.26-.03.41-.1.47-.18.73-.08.26.26-.05.49.34.23.38.13.49.54.05.41-.44.87-.6,1.45-.41.58.18,1.02.26.82-.09-.2-.35-.46-.32-.85-.8-.39-.47-.69-.6-1.18-.78-.49-.18-.54-.77-.74-.29ZM70.33,99.57c-.17-.35-.42-.93-1.49-1.13-1.07-.2-1.43.2-1.82.33-.39.13.37.2.88,0,.51-.2.89-.04.96.05.07.09-.17.15-.26.05-.09-.1-.1.24.47.44.57.21.71.31.77.55.06.25.05.38.18.58.13.21.18.29-.06.38-.24.09-.16.08.02.19.18.11.53.29,1.04.33.5.04.67.14.32-.32-.35-.46-.95-1.35-1.01-1.46ZM71.92,101.81c.28.28.2.59.18.76-.02.16-.32.04-.87-.11-.55-.15-.47-.07.01.18.48.26.79.2.77.54-.02.34.44.03.64-.17.2-.2.19-.02,1.04.11.85.13,1.02.28.89-.09-.14-.37.39-.34-.37-.7-.76-.36-2.61-.84-2.29-.52ZM69.5,102.02c-.32-.35-.72-.41-.72-.1,0,.3.11.28.4.37.3.08.52-.04.32-.26ZM75.68,103.56c-.35-.12-.42.14-.19.36.23.22.59.14.94.13.35-.02-.14-.28-.75-.49ZM71.68,60.84c-.46.19-.73.33-.33.86.4.53.64.86.8.47.16-.38.31-1.66-.47-1.33ZM67.99,66.5c-.69.11-.92.13-.81.52.11.39.3.33.77.09.47-.23.8-.73.04-.61ZM69.43,67.09c-.12.04-.15.31,0,.55.15.25.45-.08.58-.38.13-.3-.14-.31-.58-.17ZM61.85,48.25c-.66.02-1.64.25-1.1.26.55.01,1,.12,1.89.07.89-.05.97-.11,1-.54.02-.43-.58.16-1.79.2ZM57.74,44.65c-.67.21-.5.35.28.69.79.35.81.18.72-.47-.09-.65-.61-.35-1.01-.22ZM104.58,61.73c-.83.23-1.11.09-1.27.51-.16.42-.48.2-.67.25-.19.05-.45,1.23-.58,1.05-.13-.17-.18-.27-.37-.67-.19-.4.06-.33-.3-.76-.36-.43-1.09-.38-1.14-.2-.05.17.5.32.31.52-.19.2-.63.44-.8.58-.17.14.33.08.64,0,.31-.07.52.23.65.45.13.22-.14.43-.28.53-.13.11.45.08.69.12.23.04.36.24.2.51-.16.27.7.04,1.17.01.47-.03.6.33,1.32.1.72-.22,1.06-.21,1.71-.69.65-.48.6-.37,1.04-.68.43-.31.33-.41.35-.75.02-.35.29.1.18-.42-.1-.52-.64-.38-1.01-.42-.37-.04-.36-.33-.55-.43-.19-.09-.43.16-1.28.39ZM160.05,106.71c-.04.12-.09.27-.09.54s-.03.57-.01.85c.02.28.04.47.19.53.15.06.26.12.51,0,.25-.12.49-.33.36-.64-.13-.32-.36-.75-.5-.98-.14-.23-.4-.53-.47-.3ZM159.85,106.33c.03.12.06.09.12.17.05.08.11.01.04-.1-.08-.11-.07-.12-.07-.12,0,0-.1-.03-.1.06M183.51,122.62s-.02.02-.03.03c-.45.46-.86.33-1.63.57-.79.24-2.15,1.04-2.25,1.39-.1.35,0,.4-.1.35-.1-.05-.26-.26-.26-.26,0,0-.21.43-.16.81.05.38.23.61.21,1.1-.02.49-.2.78-.18,1.12.02.34.57.98.72,1.38.15.4.25.29.33,1.01.08.72.46,1.12.08,1.5-.38.38-.66.31-.2.7.46.4.84.66,1.58.4.74-.26.54-.49,1.12-.61.57-.12.69-.24,1.18-.28.49-.03.84.02,1.02-.34.18-.35.05-.34.54-.58.49-.24.44-.31.77-.37.33-.06.54.17.99-.18.44-.35.11-.38,1.1-.38s1.4.14,1.76.26c.36.12.95.44,1.1.67.15.23.35.51.41.51s.15.01.38-.21c.23-.23.89-.69.89-.69,0,0-.03.49-.18.67-.15.18-.15.44-.15.54s.38-.29.43-.31c.05-.02.1.67.15.73.05.06.2.03.35.23.15.2.35.35.49.74.15.38.77.77,1.17.83.39.06.74.03,1.04-.02.3-.05.31-.4.62-.26.31.14-.02.43.72.37.74-.06.94-.31,1.23-.51.3-.2.33.28.71-.24.38-.52.44-.4.51-1.03.07-.63.05-.75.41-1.35.36-.6.45-.31.69-1.18.25-.87.56-1.7.53-2.42-.03-.72.02-.24-.15-1.06-.16-.81-.05-.72-.58-1.06-.53-.34-.66-.25-.79-.72-.13-.47.03-.61-.21-.61s-.46.11-.61-.21c-.15-.32-.13-.44-.41-.75-.28-.31-.54-.25-1.05-.47-.51-.23-.25-.29-.25-.69s.03-.82-.38-1.01c-.41-.18-.16.1-.16-.55s0-.56-.33-.67c-.33-.11-.44-.1-.65-.5-.21-.4-.48-1.05-.58-1.32-.1-.27-.22.03-.35.22-.13.19-.32.62-.32,1.02s.18.62.18,1.15-.37,1.06-.6,1.37c-.23.31-.42.03-.61-.05-.2-.08-.24-.38-.66-.58-.42-.2-1.18-.39-1.53-.7-.35-.32-.11-.33,0-.65.11-.33.26-.59.53-.81.26-.21.19-.3-.14-.48-.33-.18-.79-.19-1.35-.19s-.89-.04-.85.28c.03.32.36.44-.11.35-.47-.09-.88-.13-1.09.09-.21.23-.25.36-.37.84-.12.48.03.51-.16.51s-.98-.38-1.24-.49c-.26-.11-.4-.1-.71.18-.31.28-1.37,1.21-1.76,1.44-.4.22-.37.17-.77,1.43ZM168.89,108.82c-.23-.03-.36-.09-.08.27.29.37.36.44.64.69.27.26.37-.18.58.31.21.49.13.5.34.68.21.18.38.24.44.42.05.18.12.47.36.67.24.2.24.17.38.57.14.4.36.68.47,1.02.11.34.73.65,1.05,1.06.32.41.86,1,.94.84.09-.16.32,0,.48-.06.16-.06.22-.3.33-.87.11-.57-.1-.84-.25-.97-.15-.13-.44-.16-.51-.29-.08-.12-.21-.54-.39-.67-.19-.13-.23.01-.23-.32s.22-.3-.05-.48c-.27-.18-.31-.32-.4-.41-.09-.09-.68-.23-.83-.4-.15-.16-.8-.46-1.11-.77-.31-.3-.65-.55-.74-.77-.1-.22-.41-.41-1.41-.54ZM175.27,115.41c-.26,0-.39-.15-.57.16-.17.32-.15.32.12.32s.22.14.21.18c-.01.04-.13-.03.43.19.56.22.95.13,1.11.05.15-.08.21.2.98.33.77.12,1.17-.07,1.66.05.49.12.37-.06.02-.33-.35-.27-.32-.12-.67-.38-.35-.26-.84-.27-1.07-.31-.23-.04.2.25-.5.15-.7-.09-.45.06-.81-.17-.36-.23-.36-.28-.6-.32-.24-.04-.3.06-.3.06ZM180.83,116.53c-.2.06-.6.17-.42.26.19.08.04.13.62.08.58-.05,1.09-.12,1.16-.24.08-.12-.1-.04-.34-.11-.24-.07-.22.05-.55.09-.33.04-.48-.07-.48-.07ZM182.87,116.49c-.39.05-.34.13-.03.23.31.09.59.13.82.07.23-.06.26-.12.69-.19.43-.07.57-.06.91-.1l.34-.04s-.03-.07-.26-.06c-.23.01-.39.02-.62.02s-.62.2-.79.19c-.16-.01-.48-.11-.56-.06-.08.05-.08-.1-.49-.05ZM185.06,116.99s-.01,0-.01.01c-.27.19-.28.24-.26.38.02.15-.03.21-.03.21,0,0,.4-.02.7-.33.3-.31.32-.3.63-.41.31-.11.67-.45.67-.45,0,0-.25.05-.52.03-.27-.02-.54.14-.63.21-.09.07.09.09-.55.34ZM182.77,117.15c-.29-.2-.56-.18-.58-.05-.02.13-.25.12.16.27.4.15.79.34.76.14-.03-.2-.21-.27-.33-.36ZM180.15,108.64c-.16.23.15.17-.09.38-.24.2-.43.11-.67.42-.24.31-.6.52-.76.63-.15.11-.65.24-.87.54-.22.3.08.46.08.46,0,0-.13.06-.48-.07-.35-.13-.37-.3-.37-.3,0,0-.25-.01-.39.37-.14.38-.22.42.03.64.25.22-.17.23-.12.39.05.15.06.44.21.47.15.03.19-.14.37.09.19.23.03.9.27.93.24.03.42-.07.62.02.21.09.36.17.64.08.27-.09.57,0,.71.08.14.08.66.26.91.23.25-.02.3.04.34-.32.04-.36.01-.69.32-.97.31-.28.32-.28.34-.53.02-.26.02-.52.21-.79.18-.27.3.15.39-.05.1-.2.2-.2.14-.31-.05-.1-.34-.1-.45-.3-.11-.19.03-.3-.1-.69-.13-.4-.21-.25-.02-.47.19-.22.34-.27.36-.44.02-.17.1-.18.33-.35.23-.16-.04-.09-.26-.25-.22-.16-.63-.78-.88-.77-.14,0-.66.62-.82.86ZM212.53,130.31c-.11-.08-.2-.02.05.27.24.29.26.2.42.21.15.01.29.57.37.72.09.14.25.32.25.32,0,0,.09.61.01.89-.08.28-.24.4-.3.65-.05.26.25.18.45.27.2.08.16.08.09.31-.08.22-.31.33-.31.37s.45.3.68.02c.23-.28.59-.68.69-.98.1-.3-.18-.16.14-.38.32-.21.27-.11.44-.38.16-.27.34-.54.15-.68-.19-.14-.39.17-.56.23-.16.06-.3.07-.53-.04-.23-.11-.27-.11-.36-.32-.09-.2-.2-.32-.2-.32,0,0-.07.35-.23.24-.16-.11-.12-.24-.24-.43-.12-.19-.12-.26-.2-.4-.08-.14-.01-.42-.39-.46-.38-.04-.33-.03-.43-.1ZM212.6,134.01s-.31.26-.58.64c-.27.38-.32.52-.41.72-.09.2-.41.45-.93.72-.53.28-.72.39-.9.64-.17.26-.8,1.05-.88,1.14-.08.09.29.18.68.18s.99.35,1.31-.01c.33-.36.66-1.2.87-1.51.21-.31.41-.42.73-.71.33-.3.88-.85.88-1.06s-.14-.56-.14-.56c0,0-.12.23-.41.2-.28-.03-.23-.41-.23-.41ZM210.01,137.93c-.39-.2-.46.18-.52.57-.06.39.17.06.5-.12.34-.17.17-.37.02-.45ZM196.98,135.26c-.43-.14-.36.27-.3.57.07.31.15.55.32.81.16.26.78.35,1.02.24.24-.11.42-.49.66-.85.24-.36.35-.77.31-.98-.04-.21-.35.19-.55.29-.2.09-.46.33-.83.22-.37-.1-.47-.25-.62-.3ZM191.53,113.34c-.35.08-.53-.22-.81-.82-.29-.59-.5-.67-1.23-.41-.72.27-.61.2-.13.39.48.18.55.25.61.25s.77.1.61.2c-.15.1-.81.2-.39.49.42.29.24.08,1.34.63,1.1.55,1.27.14,1.62.86.35.71.35.59.07.78-.29.18-.66.37-.5.39.15.02.44.08,1.18.12.75.04.04.47.88.47s1.05-.27,1.38-.65c.33-.39.39-.18,1.1-.02.7.16.94.78,1.82,1.02.88.25,1.25.57.7.06-.55-.51-.74-.88-1.49-1.47-.74-.59-.79-.65-1.01-1.1-.22-.45-.99-.98-1.84-1.33-.86-.35-1.34-.4-2.35-.67-1.03-.29-1.21.74-1.56.82ZM185.76,111.3c-.33.23-.37.09-.61-.06-.25-.15-.18.32-.72.06-.55-.26-.75-.38-1.34.05-.59.43-.22.61-.23.92-.01.31-.49,1.17-.67,1.49-.18.32-.18.43-.04.64.14.2.33.13.41.23.08.1,0,.9-.1,1.17-.1.27.23.32.57.24.34-.08.04-.1.04-.38s.16-.41.16-.93v-.76s.1-.05.22.13c.12.18.3.67.45.93.15.25.3.44.53.27.23-.18.45-.38.45-.38,0,0-.45-.14-.45-.29s.19-.28-.12-.79c-.31-.51-.48-.53-.08-.56.4-.03.38-.42.61-.53.23-.11.56-.08.56-.08,0,0-.23-.24-.59-.14-.35.1-.67.15-.97.32-.3.16-.56.27-.61-.04-.05-.31-.09-.38-.05-.8.04-.42.52-.1.87-.2.36-.1.36-.08,1.13-.03.78.05.83-.13,1.06-.44.23-.32.37-.69.37-.69,0,0-.53.45-.86.67ZM187.6,110.19c.07-.13-.57.44-.69.55-.12.11,0,.28.09.44.09.16.07.72.1.85.03.12.36.23.36.23,0,0-.01-.38.11-.55.12-.17,0-.39,0-.7s-.17-.44.03-.82ZM186.34,113.54c-.5-.19-.69-.07-.69.2s-.06.39.48.39,1.14-.24.21-.59ZM187.35,113.37c-.12.04-.25.43-.18.67.07.24.15.08.44.03.28-.05.24-.28.59-.3.35-.03,1.09.25,1.09.25,0,0,.16-.18-.41-.54-.57-.36-.82-.33-1.52-.11ZM177.32,100.39s-.5.01-.58.01-.25.2-.38.27c-.13.08-.13.18-.04.38.09.2.23.21.48.28.25.07.16-.11.34-.17.18-.07.23-.23.27-.38.04-.15.16-.22.2-.27.04-.05-.14-.22-.14-.24,0-.01-.15.11-.15.11ZM183.25,101.09c-.2-.15-.31.37-.36.63-.05.27-.12.44-.02.63.1.19.05.26.05.26l-.29-.22s-.08.25-.08.46-.09.31.24.46c.33.15.44.07.48.31.04.23.04.34.26.38.22.04.47.13.56.28.09.14.04-.38.2-.35.15.03.33.22.44.4.11.17.27.18.27.18,0,0-.25-.42-.14-.47.11-.05.14-.09-.14-.27-.28-.17-.51-.13-.73-.16-.22-.03-.22.15-.38-.28-.16-.43-.03-.69-.03-.79s.12.14.25-.15c.13-.3.16-.53.14-.82-.02-.29.2-.4.03-.41-.16-.01-.65,0-.76-.08ZM185.86,106.58c.03.21-.2-.06-.28.06-.09.12-.13.1-.27.15-.14.06-.48.37-.48.37,0,0,0-.2,0-.25,0-.05-.1-.28-.21-.12-.1.16-.2.26-.43.38-.23.12-.37.28-.4.49-.03.21.14.2.14.2,0,0,.09-.07.24-.31.15-.24.18-.23.46-.26.28-.03.25-.03.34.12.09.15.02.38.03.54,0,.16,0,.36.27.46.28.1.15,0,.41-.02.26-.02.26-.02.22-.15-.04-.13-.11-.24-.13-.4-.02-.15.15-.22.2-.25.05-.03.09.15.16.34.08.19.11.18.14.04.03-.15.12-.49.09-.67-.03-.18-.05-.33-.05-.48s-.13-.34-.2-.39c-.07-.05-.33-.28-.33-.28,0,0,.04.21.07.42ZM184.6,105.33s0-.13-.23-.36c-.24-.23-.24-.3-.61-.36-.36-.06-.73.03-.57.42.15.39.2.45.51.49.31.05.49-.12.49-.12,0,0,.02.06-.27.24-.29.18-.32.53-.1.66s.22.34.35.24c.13-.1.23-.46.49-.71.27-.25.28-.29.32-.55.03-.26,0-.48,0-.48l-.39.52ZM185.22,104.58s-.22-.02-.03.17c.2.19.38.23.35.37-.02.14,0,.17-.12.15-.11-.02-.14-.04-.19-.05-.05,0-.06.09-.02.18.03.09.02-.01.12.14.09.15.07.2.1.37.03.17.1.09.1.09,0,0-.02-.41-.01-.5.01-.08-.03-.29.11-.22.14.07.1.31.18.08.08-.23.05-.43,0-.62-.04-.18-.19-.19-.35-.19s-.24.02-.24.02ZM182.39,105.29c-.08.02-.13.1-.18.38-.05.28-.21.42-.37.59-.17.16-.63.6-.65.69-.03.09-.03.03.31-.13.34-.16.61-.37.65-.59.04-.22-.04-.08.26-.23.3-.14.15-.19.16-.41.01-.22-.03-.34-.18-.31ZM200.53,113.65c-.04.28.08.37-.18.58-.26.21-.56.21-.84.26-.28.05-.08-.05-.42-.06-.35-.01-.43.02-.27.19.16.17.12.34.63.32.51-.02.93-.3,1.26-.4.33-.1.3-.37.33-.49.03-.12-.47-.7-.5-.4ZM201.95,114.26c.14.2.09.17.27.43.18.27.47.31.68.38.21.07,0-.08-.16-.29-.16-.21-.17-.33-.41-.55-.24-.21-.63-.33-.38.02ZM183.45,97.1c-.7.45-1.02.41-.74.98.28.57.45.81.49.91.04.11.18-.07.37-.52.19-.45.21-1.04.29-1.21.08-.18-.18-.31-.42-.16ZM195.47,75.08c.08.3.15.76-.02.81-.18.05-.3.38-.34.72-.04.34-.13.76.05,1.03.19.26.05.28.05.51s.07.8-.04,1.13c-.11.34-.17.42-.13.78.04.36,0,.43,0,.94s-.03.92-.01,1.12c.02.21.13-.1.21-.17.08-.07.37-.11.54.06l.17.17s.26.11-.1-.66c-.36-.78-.43-.61-.33-1.32.1-.7.15-.71.53-.79.37-.07.57.44.61.49.04.05-.03-.17-.16-.57-.13-.4-.25-.53-.3-1.03-.04-.5-.2-.92-.39-1.06-.2-.14-.1-.38-.01-.57.09-.19.12-.49.08-.83-.04-.34-.14-.81-.2-.99-.06-.18-.27.11-.27.11l.08.12ZM195.14,82.9c.02.22.04.43-.11.68-.15.26-.04.32-.13.67-.09.36-.52,0-.52.07s-.07.33-.18.42c-.11.09-.48.11-.37.47.11.36.31.73.31.73,0,0,.22-.2.28-.22.07-.02.24-.07.24-.07,0,0-.03-.1-.27-.21-.24-.11-.22-.35-.19-.42.03-.07.34.02.54,0,.2-.02.36-.12.6.07.24.19.59.27.59.27,0,0,.04-.29.15-.49.11-.2.43-.11.75-.2.32-.09.56-.14.45-.28-.11-.13-.1-.43-.17-.65-.06-.22-.27-.01-.44.07-.16.08-.37.02-.59-.12-.22-.14-.61-.68-.76-.9,0,0-.22-.11-.2.11ZM194.16,86.24c-.1.05-.24.32-.21.62.02.3.28-.02-.05.9-.33.92-.49,1.13-.81,1.36-.32.24-.62.24-.74.18-.12-.06.03-.27.12-.33.09-.06-.28-.08-.44-.06-.16.02,0,.2-.03.34-.02.15-.32.54-.29.71.03.18.03.23-.16.29-.2.06-.33-.15-.39-.18-.06-.03-.35.05-.74.11-.39.05-.48.18-.65.47-.16.28-.55.33-.83.44-.28.11-.17.51-.48.64-.3.14-.3.39-.33.6-.02.21.19.06.22.05.03-.02.03-.29.22-.26.19.03.21.04.11.25-.1.21-.16.32-.25.51-.1.18.03.27.18.45.15.18.29-.05.6-.38.31-.33.34-.41.31-.78-.03-.38-.15-.38-.38-.49-.23-.11-.28,0-.03-.29.25-.29.37,0,.54-.14.17-.13.59-.12.99-.22.4-.1.79-.23.81-.1.02.13.14.57.16.66.02.09.28-.13.55-.23.27-.1.02-.14,0-.32-.02-.18.12-.28.12-.28,0,0,.14.29.58.08.44-.21.47-.29.58-.26.11.03.19.15.37.03.18-.11.21,0,.18.08-.03.09.53-.18.65-.26.12-.08.06,0,0-.33-.05-.32-.21-.34-.11-.76.09-.41.07-.45.09-.71.02-.26.12-.3.19-.31.07-.01.07-.36.21-.54.14-.18.11-.27.11-.69s-.23-.34-.25-.64c-.02-.3.06-.59.06-.59,0,0-.47.18-.52.28l-.05.11s-.07-.08-.23,0ZM191.09,90.84c-.48.08-.83.13-1.12.22-.29.09-.35.22-.3.51.04.29.16.58.2.73.04.15.2,0,.47-.14.27-.14.25-.56.51-.56s.16.3.51-.12c.35-.42.08-.46.1-.67.01-.21-.37.04-.37.04ZM221.8,68.17c-.52-.1-.67-.21-.72-.03-.05.19-.1.25.22.37.33.12.49-.09.8.14.31.23.39.22.63.19.24-.03.33-.15.33-.15,0,0-.87-.45-1.27-.53ZM215.87,59.99c-.19.05-.35-.13-.3.34.05.47.16.52.76.44.6-.08.15-.02.97-.08.82-.06.99-.18.99-.18,0,0-.11-.23-.39-.44-.28-.21-.65.15-1.28.04-.63-.11-.75-.11-.75-.11ZM197.35,53.1c0,.18.82.68,1.12.83.3.15.53.08,1.15.02.63-.07.67-.34.75-.49.07-.15-.3-.1-.71-.18-.42-.09-.76.08-.91,0-.15-.08.22-.15-.15-.29-.37-.14-.46.05-.54-.02-.08-.06-.1-.19-.28-.21-.18-.02-.43.18-.42.34ZM194.13,54.14c-.28.11-.26.21.06.48.32.27.21.21.07.4-.14.19,0,0,.46.2.46.21.65.58.94.67.29.08.48-.02.48-.02,0,0-.1-.31-.37-.67-.27-.37-.86-.47-.96-.8-.11-.32-.28-.41-.68-.25ZM197.06,52.64s-.42-.25-1.05-.65c-.63-.4-.87-.51-1.08-.54-.21-.03-.18.22-.26.42-.08.2-.14.16-.47,0-.33-.16-.66-.41-.99-.48-.34-.08-.54.2-.93.58-.39.38-.16.49.3,1.06.47.57.67.6,1.05.38.38-.22.27-.37.54-.26.27.11,1.21-.11,1.24-.11s-.06.52.35.38c.41-.14.79-.21.98-.41.19-.21.32-.37.32-.37ZM168.6,41.71c-.12.1-.82.04-1.18.61-.36.57-.61.17-.8.52-.18.35-.34.77-.34.77,0,0,.33.39.68.36.35-.03.96.12,1.3.59.34.47.59.47,1.41.6.82.13.45.25.88.21.43-.04,1.02.05.89-.16-.13-.21-.23-.35-.17-.77.05-.42.44-.4-.01-.67-.45-.28-.77-.05-.75-.1.02-.05.41-.2.25-.21-.15-.01-.91-.05-1-.48-.09-.43.21-.46.36-.49.15-.03.11-.08-.33-.4-.44-.32-1.03-.64-1.03-.64-.27.14-.04.17-.16.28ZM172.72,44.8c-.32.06-.58.38-.77.65-.19.28-.56.69-.79.88-.23.18-.16.24.21.37.37.13,1.03-.24,1.22-.25.19-.01.33.28.92.2.59-.07,1.49-.18,1.05-.5-.44-.32-.28-.16-.77-.55-.48-.39-1.1-.42-1.1-.42,0,0,1-.34.76-.36-.24-.02-.73-.03-.73-.03ZM147.39,39.77c-.57.21-.37.31-.75.6-.37.3-.12.38.68.18.8-.19.84-.28,1.36-.51.51-.24-.44-.58-1.29-.28ZM148.66,41.21c-.54.24-.39.49-.25.69.14.2.54-.12.65.1.11.22.14.13.65-.21.5-.34.32-.23.12-.59-.2-.36-.24-.41-1.16,0ZM145.67,41.06c-.34.16-.34.15-.02.3.33.15,1.13.28,1.54,0,.41-.27.38-.21-.14-.29-.52-.08-.99-.2-1.38-.02ZM140.59,41.68c.53-.05,1.03-.07,1.46-.02.43.05.27.41-.52.5-.79.08.07.21.63.18.56-.02.2-.48.67-.64.47-.16.76-.06,1.32-.26.56-.2-.32-.39-.97-.38-.65.02-.86.05-1.41.02-.55-.04-1,.21-1.56.31-1.17.2-.15.34.39.3ZM144.78,41.83c-.47,0-1.6.26-.65.35.95.09.88.15,1.27,0,.4-.15-.13-.36-.63-.36ZM148.1,42.03c-.67-.22-.68-.13-1.2-.11-.52.02-.72.34-.39.48.34.14.57.08.85.04.28-.05.26-.13.08-.2-.18-.07,1.05-.08.66-.21ZM150.91,41.2c-.51.06-.54.15-.59.32-.05.17.07.13.62.06.54-.07.8-.15,1.15-.34.35-.19-.07-.66-.07-.74s-.5.25-.64.38c-.14.12.15.25-.46.32ZM110.67,70.56c-.26.71-.68,1.04-.18.85.5-.2,1.01-.81.98-.29-.03.53-.52.45-.36.97.16.52.04.47.88.66.84.19.15.12.36.62.21.49.35.65.13.79-.22.14-.87-.45-.9-.2-.04.25.09.44.24.79.16.35-.1.55-.59.78-.49.23-.07.37.31.35.37-.02,1.32-.2,1.16.13-.15.33-.61-.05-.93.49-.32.55-1.51,1.02-.89.99.62-.03.53-.2,2.38-.46,1.85-.26.57-.02,1.78-.4,1.22-.37.83-.47.16-.36-.67.11.44-.66.28-1.37-.16-.71-.59-.03-.88-.48-.28-.45-.25-.58.3-.42.54.16.49-.11-.56-.78-1.05-.67-.4-.54-.88-1.1-.48-.56-1.29-.49-1.29-.49,0,0,.35-.21.55-.62.21-.41.25-.37.47-.87.22-.49-.22-.45-.77-.33-.56.12-.74.18-.62-.04.12-.22.19-.31.45-.58.26-.27.31-.42-.17-.31-.48.11-.55.1-.96.29-.62.29-.19.68-.45,1.4ZM109.36,72.24c-.84.33-.61.55-.46.67.14.12.4-.11-.39.34-.79.45-.8.94-.39,1.04.41.1.36-.24-.08.58-.44.82-.74,1.38.16,1.18.89-.21,1.14-.67,1.56-.72.43-.05.5-.4.5-.91s-.28-.53.05-.96c.34-.43.36-.88-.3-1.09-.66-.21-.13-.34-.66-.13ZM119.98,83.77c-.05.12.06.43-.29.64-.34.21.16.41.27.61.11.2.25-.69.22-1.12-.03-.43-.07-.5-.21-.13ZM119.81,85.47c-.56.26-.59.46-.66.88-.07.42.45.08.32.45-.13.37-.01.56.57.22.58-.35.25-.66.34-1.1.09-.44.16-.79-.57-.44ZM128.4,89.98c-.49-.05-.71.26.13.35.84.09,1.22.11,1.53.03.31-.08.05-.02-.36-.29-.41-.28-.67-.03-1.3-.09ZM133.07,90.24c-.67-.15-.49.67.2.55.69-.12.43.05.74-.46.31-.51-.23.06-.94-.09ZM116.29,86.44c-.55.07-.59.26-.16.37.43.11.37-.02.61-.19.24-.17-.21-.2-.45-.17ZM83.09,76.44c-.34.27-.72.66-1.2,1.52-.48.86-.43.77-.89,1.24-.46.47-.23.37,1.2.64,1.43.28,1.31.49,1.64.4.33-.09.39.18.39.47s.31.12.46-.34c.15-.46-.15-1.29-.44-1.76-.3-.48-.36-.48-.82-.35-.46.12-.31-.11-.48-.47-.16-.37-.43-.08-.03-.63.39-.55.49-.98.16-.72ZM39.35,75.46c0,.46.48,1.23.84,1.49.36.25.29.11.12-.43-.16-.54-.03-.54-.11-.89-.08-.35-.85-.34-.85-.17ZM41.75,77.96c.09.1.38.51.89.85.5.34.64.38,1.16.53.53.15.76-.05.42-.36-.34-.31-.05-.28-.67-.42-.61-.14-.74-.09-1.05-.29-.31-.19-.95-.53-.74-.32ZM28.39,72.88c-.4-.09-.55-.11-.82.11-.27.21-.34.4-.2.64.15.24.06.11.4-.13.35-.24.18-.27.62-.38.44-.11.35-.25.35-.25,0,0-.11.07-.35.02ZM28.25,72.35c-.27.16-.35.29-.06.23.3-.06.25-.23.44-.19.19.04.26-.04.26-.04,0,0-.36-.17-.64,0ZM20.66,71.13c-.36.18-.7-.03-.48.1.22.13.53.26.76.23.24-.03.4-.03.31-.15-.09-.11-.11-.14-.11-.26,0-.16-.11-.1-.48.07ZM141.96,121.02c-.42.92-1.29.47-1.99,1.14-.7.67-.59.47-.07,1.41.53.94-.44.84-.68,1.94-.24,1.1.29.9.57,1.84.29.94.42.65.94.53.53-.12.9-.37.9-.37,0,0,.09-.82.44-2.02.35-1.2.59-2.08.66-2.88.07-.8.13-1.37.31-1.12.17.25.2.25.2-.14s-.21-1.48-.55-1.73c-.59-.45-.31.49-.72,1.41ZM142.57,58.22c-.57.13-.85.48-.43.62.42.14.38.06,1.07-.18.69-.24-.07-.57-.64-.44ZM153.31,47.79c-.2-.31-.37.1-2.39.98-2.02.88-1.99.12-3.88,1.61-1.89,1.49-1.47,1.31-1.58,2.21-.11.9-.55.51-.72,1.33-.17.82-1.14.86-.66,1.53.48.67,1.12,1.06,2.13,1.35,1.01.29,1.29-.02,1.08-.12-.22-.1-.99-1.31-.83-2.67.15-1.37.66-1.16,1.1-1.67.44-.51,1.58-1.84,2.32-2.29.72-.44,2.65-1.05,3.62-1.38.03-.01.06,0,.08-.03.77-.86-.07-.53-.26-.84ZM147.87,56.97c-.24.03-.35.04.09.47.44.43.82.76.68.18-.14-.57-.55-.68-.77-.65ZM155.07,52.82c-.32-.15-.49-.31-.57-.06-.08.25.36.57.79.65.43.08.09-.45-.22-.59ZM79.63,78.51c-.49-.24-.96-.44-1.28-.44s.07.34.57.61c.51.28,1-.03.71-.17ZM78.47,80.56c.03-.4-.27.46.09.66.36.19.55.24.78,0,.23-.23.04-.09-.27-.14-.32-.06-.62-.19-.6-.53ZM222.04,66.49c-.59.06-1.04-.11-1.04-.11,0,0-.03.48-.21.7-.18.23-.05.47-.05.47,0,0-.59-.26-.94-.38-.35-.12-.66-.02-.86-.54-.2-.52-.79-.43-1.25-.43s-.33-.6-.33-.6h-.28c-.28.03-.23.7-.59.92-.36.21-1.5.35-1.5.35,0,0,.72.52.87.95.15.43.43.84.43.84,0,0-.07.2-.94.03-.87-.17-.82.17-1.76.55-.94.38-2.01.97-2.27,1.18-.26.21-.28.09-1.1-.11-.82-.2-.99.23-1.2.34-.21.11-.13-.49-.13-.49,0,0-.3,0-.66.18-3.75,1.9-1.16,1.8-1.28,2.19,0,0-.4,1.49-.4,1.49-.55,1.64-.93.78-1.4,2.08-1.48,4.13-2.33-.64-2.33-1.73,0-.67-.15-1.55.28-1.75,3.68-1.71.34-.24,3.8-2.6,1.12-.77.51-1.23.76-1.44.25-.21.64-.28.64-.28l-.61-.06c-.61-.06-.63.08-1.1.6-.48.52-.85.61-.76.21.1-.4.11-.81-.25-.6-.36.21-.51.18-1.18.32-.67.14-1.4.46-2.01,1.22-.61.77-.26.67-.07.86.2.18-.97.14-1.53.09-.56-.05-.26-.15.07-.26.33-.11-.49-.2-1.22-.35-.72-.15-.44.12-.87.29-.43.17-.41-.15-.63-.2-.21-.05-1.17-.11-1.84-.18-.67-.08-.63.05-.81.28-.18.23-1.43,1.33-1.97,1.96-.54.63-1.22.77-1.82,1.35-.61.58-.71.55-.21.64.49.09.56.04.64.5.08.46.31.61.84.61s.38.14.48-.26c.1-.4-.13-.86.31-.51.44.35.8.61.94,1.12.13.51-.03.87-.26,1.72-.23.84-.31,2.05-.63,2.66-.31.61-.56,1.07-.9,1.75-.34.67-2.02,2.37-2.4,2.53-.38.15-.62.17-.81-.17-.18-.34-.31-.28-.74.11-.43.38-.62.61-.79,1.22-.16.61-.53.61-.9,1.07-.38.46-.48.35-.2.87.28.52.74,1.07.79,1.58.05.51-.23,1.24-.41,1.56-.18.32-1.04.47-1.02.32.02-.15.03-.92,0-1.36-.03-.44-.36-.44-.25-.58.12-.14.59-.37.25-.69-.35-.32-.59-.05-.74-.43-.15-.38.07-.69-.02-.83-.08-.14-.33-.29-.84-.34-.51-.05-.63.46-.74.01-.11-.44.05-.49-.18-.67-.23-.18-.43-.06-1.02.44-.59.51-.71.4-1.2.61-.49.22-.49.34-.38.51.12.17.53.9.87.98.35.08.59-.15,1.12-.15s.62.08.49.28c-.13.2-.49.4-1.13,1.04-.64.64-.45.52-.23.78.21.26.53.58.76,1.09.23.5,0,.69-.03.98-.03.29-.08.74.35,1.2.43.46.13.31.08.47-.05.17-.77,1.48-1.1,2.14-.33.66-.33.72-1.4,1.47-1.07.75-1.55.83-2.12.93-.58.11-1.07.28-1.36.4-.3.12-.18.37-.21.52-.03.15-.31.02-.26-.21.05-.23.02-.4-.13-.46-.15-.06-.61-.25-1.08.21-.48.46-1.05.49-1.25,1.07-.2.58-.16.38.05.63.21.24,1.25,1.24,1.49,1.78.25.54.3.94.31,1.52.02.58-1.18,1.65-1.71,2.01-.53.35-.64.69-.56.14.08-.55-.23-.87-.61-1.29-.38-.41-1.53-.75-1.74-.8-.21-.05.08-.38-.07-.37-.15.02-.49-.08-.44.46.05.54-.34.37-.43.9-.08.54-.18,1.09.16,1.04.34-.05.28.47.54,1.06.26.58.16.26.82.8.66.54.49.44.64.98.15.54.1.84.43,1.33.33.49.34.6-.2.32-.54-.27-.99-.61-1.2-.95-.21-.34-.34-1.19-.48-1.62-.13-.43-1.02-.93-1.31-1.24-.3-.31-.12-.55.03-1.26.15-.7-.07-1.38-.12-1.81-.05-.43-.39-1.63-.56-2.04-.16-.41-.1-.35-.35,0-.25.35-.45.57-.7.57s-.61-.04-.58-.2c.03-.16.28-.77.21-1-.08-.23-.3-.96-.65-1.23-.35-.26-.74-.62-.96-1.22-.22-.6-.28-.43-.71-.11-.43.31-1.41.35-1.87.39-.47.04-.08.27-.2.5-.12.23-.67.53-1.77,1.68-1.11,1.16-1.28,1.19-1.56,1.32-.29.12-.47.08-.46.56,0,.47.05.73,0,1.16-.05.42-.18.6-.3.87-.12.27-.25.76-.29,1.02-.04.25-.29.55-.65.81-.36.26-.36.21-.53-.17-.16-.38-1.02-1.85-1.71-3.23-.69-1.38-.53-1.62-.59-2.02-.07-.4-.08-2.79-.05-2.97.02-.1-.33.28-.43.47-.1.19-.09.43-.49.46-.39.04-.48.04-.85-.33-.37-.37-.54-.58-.48-.57.07.01.49-.04.74-.16.25-.12.16-.26.16-.26,0,0-.27.03-.59.05-.32.02-.18-.07-.6-.24-.42-.17-.52-.18-.59-.37-.07-.19-.17-.45-.24-.6-.06-.14-.11-.15-.18-.33-.07-.18-.27.03-.73.04-.46.01-.35.03-.9.25-.55.21-.63.14-1.25.12-.62-.02-1.05-.29-1.36-.39-.31-.11-.36-.06-.82-.13-.46-.07-.36-.3-.48-.5-.11-.19-.31-.24-.91-.19-.6.05-.62.02-.96-.08-.34-.09-.37-.21-.65-.5-.28-.29-.19-.06-.38-.21-.19-.15-.37-.35-.52-.75s-.11-.48-.29-.67c-.17-.18-.16-.14-.69-.14s-.29.04-.36.07c-.07.04-.23.27-.38.45-.15.18.12.44.33.69.21.25.03.22.37.6.34.38.22.34.47.87.24.53.39.66.45.82.06.16.1-.06.16-.2.05-.14-.02-.65-.02-.65,0,0,.1.21.2.59.09.38.03.38.09.62.07.24,0,.21.41.21s.66.02,1.12-.09c.46-.11.65-.52.86-.64.21-.12.21-.55.36-.51.14.05,0,.51.14.81.13.3.16.19.48.33.32.13.4.21.73.33.32.12.1.14.28.46.17.32.16.14.33.26.17.11.1.03-.02.41-.12.38-.14.39-.43.7-.29.31-.29.21-.33.2-.04-.01-.13-.23-.13-.23,0,0-.18.37-.21.81-.03.43.14.27-.38.48-.52.21-.83.3-1.03.47-.2.17-.2.4-.32.52-.11.11-.27.01-.62.13-.35.12-.25.1-.55.32-.3.22-.03.2-.41.35-.38.14-1.06.47-1.41.51-.35.04-.27.13-.36.25-.09.13-.09.19-.53.26-.44.07-.99.13-1.26.26-.27.13-.66.43-.95.37-.29-.06-.21-.07-.3-.32-.09-.26-.14-.44-.19-.86-.04-.42-.19-1.06-.43-1.46-.24-.4-.24-.43-.5-.85-.26-.42-.44-.78-.67-.94-.23-.16-.34-.17-.46-.3-.11-.12-.04-.54-.16-.9-.11-.36-.19-.7-.36-.9-.17-.2-.43-.43-.67-.85-.23-.42-.25-.47-.59-1.12-.34-.65-.46-.74-.69-1.17-.22-.44-.08-.35-.16-.61-.08-.26-.3.42-.47.56-.17.13-.26.07-.39-.32-.14-.39-.25-.73-.36-.58-.1.15-.19.31-.04.72.14.41.21.33.4.72.19.39.7,1.38.9,1.79.21.41.13.21.32.83.19.62.3.69.56.95.26.26.21.12.33.54.12.42.07.91.09,1.16.02.25.16.39.47.64.31.26.15.16.3.43.14.27.28.65.37.92.08.27.18.45.42.57.24.12.31.13.55.22.24.09.16.15.32.36.16.21.48.37.68.7.2.33.07.23.05.56-.01.32-.11.17.03.34.14.17.39.31.8.58.42.28.08.08.46.07.37-.01.45-.11.85-.19.4-.09.91-.23,1.41-.35.49-.12.97-.19,1.23-.28.25-.08.26.2.07.62-.19.43-.28.79-.45,1.13-.16.35-.23.38-.35.66-.12.28-.93,1.43-1.1,1.79-.17.36-.37.65-.62.95-.25.3-1.02.85-1.38,1.14-.36.29-.27.29-.54.63-.27.34-1.08,1.29-1.3,1.63-.22.34-.34.46-.51.79-.16.33-.63.8-.66,1.04-.03.24-.29.27-.09.48.2.21.3.24.37.51.07.27-.22.57-.03,1.05.19.48.05.14.33.53.28.39.27.63.29,1.2.03.57.05,1.13-.03,1.49-.09.37-.21.61-.33.94-.13.33-.82.56-1.22.73-.4.18-.39.11-.58.33-.19.22-.72.69-.9,1.04-.18.35-.32.31-.25.53.07.22.22.51.41.91.19.41.05.38.01.73-.04.35-.04.3-.09.72-.05.43-.55.44-1.13.66-.58.22-.37.11-.43.42-.07.31-.03.92-.05,1.29-.02.37-.2.22-.51.67-.31.45-.44.67-.77,1.22-.33.55-.31.47-.73.81-.42.34-.76.43-.94.82-.19.39-.4.13-1.3.42-.9.29-.25.15-1.11.24-.86.1-1.17.16-1.62.25-.46.08-.4-.02-.67-.33-.28-.31-.32-.28-.45-.54-.13-.26-.03-.32-.07-.78-.04-.46-.08-.47-.25-.76-.17-.28-.16-.33-.35-.79-.19-.45-.27-.58-.48-.89-.21-.31-.27-.21-.46-.41-.19-.2-.2-.37-.24-.65-.04-.28-.11-.94-.2-1.64-.09-.7-.01-.33-.12-.62-.11-.3-.24-.65-.43-1.05-.19-.39-.12-.29-.41-.78-.28-.48-.26-.42-.44-.84-.18-.42-.21-.24-.22-.4-.01-.16.09-.46.1-.74.01-.29.1-.62.17-1.06.07-.44-.1-.43.09-.74.19-.3.38-.58.5-.92.12-.34.1-.36.1-.79s-.04-.4-.17-.76c-.13-.36-.18-.79-.34-1.37-.16-.58-.15-.56-.18-.79-.02-.22-.13-.73-.24-1.04-.11-.31-.16-.18-.4-.38-.24-.2-.08-.11-.29-.33-.21-.22-.17-.29-.37-.53-.2-.24-.23-.25-.4-.52-.16-.27-.08-.11-.05-.56.02-.45.15-1.32.24-1.82.08-.5.1-.47-.09-.68-.19-.21-.33-.51-.48-.56-.15-.05-.5.05-1.02.04-.52-.01-.5-.13-.72-.39-.23-.26-.52-.62-.63-.72-.1-.1-.28-.09-1.17-.03-.89.07-.35.08-.94.17-.59.09-.82.4-1.28.56-.45.16-.59.12-1.39-.04-.8-.16-1.2.18-1.61.36-.41.17-.6.09-.9-.11-.3-.2-.47-.37-.93-.6-.45-.22-.35-.35-.8-.57-.45-.22-.3-.23-.67-.58-.37-.35-.4-.71-.66-1.08-.26-.37-.48-.88-.82-1.27-.34-.39-.68-1.17-.85-1.4-.17-.24-.3-.26-.3-.37,0-.11.33-.77.47-1.11.14-.34.17-.3.23-.51.06-.21-.08-.83-.21-1.17-.13-.34-.28-1.05-.38-1.38-.1-.33.05-.34.18-.52.13-.19.43-.58.74-1.16.31-.58.49-.87.65-1.14.16-.27.54-1.1.79-1.33.25-.22.88-.67,1.14-.81.27-.14.49-.21.53-.34.04-.12.16-1.13.24-1.56.08-.42-.03-.66.28-.82.31-.16.8-.47,1.06-.61.26-.14.3-.36.43-.67.13-.31.19-.7.38-.83.2-.13.14.06.4.23.26.17.3.18.42.21.12.03.23-.1.53-.1.3,0,.33.04.51.13.18.1.08.1.6-.22.52-.32.93-.51,1.6-.76.67-.25,1.13-.39,1.45-.42.31-.04.15,0,.5.14.35.14.37.2.44.1.07-.1.3-.39.45-.38.15,0,.32.07.7.14.38.07.54.03.69-.05.15-.08.35-.24.39-.24s.36.11.63.21c.26.1.27.11.21.18-.05.07-.13.14-.26.42-.13.29-.07.13.05.43.12.3.21.29.15.51-.06.22-.3.42-.48.64-.18.21-.14.25.31.5.44.25.34.21.84.43.5.22.52.14,1.1.32.58.17.51.19.71.43.2.23.21.46.56.58.35.12.72.12.93.25.2.13.37.31.64.36.27.05.27.09.4-.11.13-.2.24-.38.19-.48-.05-.1-.2-.26-.17-.36.03-.1.26-.48.33-.6.07-.12.25-.15.69-.17.43-.02.73-.08.8.17.07.26.05.14.39.28.33.14.37.14.65.24.28.11.14.26.28.25.14-.01.37-.03.64.05.26.08.74.31,1.25.33.51.02.71-.13.78-.17.08-.03.44-.48.65-.17.21.31.49.31,1.03.28.54-.03.54-.11.66-.25.12-.14.44-.66.55-1.02.1-.36.39-1.14.46-1.49.08-.35,0-.63-.03-.84-.03-.21.02-.35.1-.59.08-.23-.26-.09-.4-.05-.14.05-.17-.07-.3-.11-.13-.03-.26-.07-.35.17-.09.23-.05.35-.55.33-.5-.03-.41-.06-.58-.24-.16-.18-.44-.22-.67-.29-.22-.07-.25-.06-.26.09s-.02.24-.19.3c-.16.06-.54-.01-.85-.16-.31-.15-.41-.22-.71-.52-.31-.3-.26-.3-.39-.76-.13-.46-.13-.86-.07-1,.05-.14.14-.18-.09-.11-.24.07-.4.11-.24-.24.16-.35.31-.37.47-.41.16-.05.42-.05.73-.07.31-.02.55-.18.66-.22.11-.05.34-.12.22-.15-.12-.03-.46-.07-.4-.16.06-.1.1-.09.28-.11.19-.02.48-.03.72-.05.25-.02.39.03.48-.12.08-.15.18-.37.38-.48.19-.12.4-.06.9-.08.5-.02.43.1.59.22.16.12.27.06.49.1.21.04.08.17.25.23.16.07.47.13.83.25.37.12.13.07.58.07s.43,0,.79-.06c.36-.06.5-.19.76-.37.25-.18.08-.57-.02-.87-.09-.3-.49-.49-.67-.63-.18-.14-.57-.58-.78-.76-.21-.18-.45-.23-.68-.36-.23-.13-.64-.34-.68-.51-.04-.17.09-.17.43-.25.34-.08.23-.15.29-.33.07-.18.09-.17.37-.28.28-.1-.32-.32-.41-.43-.08-.12.19-.08.47-.15.28-.07.3-.2.34-.32.04-.12.03-.17-.3-.17-.33,0-.75.14-1.3.29-.55.15-.3.15-.64.41-.33.26-.36.15-.31.29.04.14.07.28.4.46.34.18.2.18.29.21.09.02.32.06.22.09-.1.03-.2.19-.35.19s-.22.16-.48.31c-.26.15-.38.17-.57.2-.19.03-.33-.03-.3-.36.03-.33-.1-.11-.3-.18-.2-.08-.28-.16-.28-.16,0,0,.2-.07.41-.2.2-.13.3-.2.39-.45.1-.25-.22-.11-.45-.14-.23-.03-.16-.05-.39-.08-.22-.03-.31-.21-.31-.21,0,0,.1.04.3.02.19-.02.15-.07.22-.12.07-.05.13-.1.07-.1s-.29.03-.45.02c-.16-.01-.25-.04-.48,0-.23.04-.14.12-.3.23-.16.11-.17.14-.26.3-.09.16-.12.13-.18.23-.06.1-.05.36-.05.53s-.04.23-.15.37c-.1.14-.1.08-.28.17-.17.09-.06.15-.08.32-.02.17-.08.24-.1.46-.02.22-.1.23-.24.39-.14.16-.21.16-.22.32-.01.16-.04.23,0,.55.04.32.13.23.37.56.25.32.38.2.29.36-.09.16-.07.1-.37.07-.3-.04-.35.01-.57.22-.22.21-.26.33-.38.4-.11.08-.08-.15-.12-.26-.04-.11-.55-.14-.89-.25-.35-.1-.44-.16-.53-.16s-.22-.02-.58.18c-.36.2-.28.31-.25.57.02.26.31.31.23.93-.08.61.3.33.47.7.16.38.02.34-.08.39-.1.05-.2.37-.27.67-.07.31,0,.34-.08.33-.09-.02-.2.05-.37-.2-.17-.25-.31-.01-.34-.16-.02-.15-.24-.39-.16-.73.08-.34.21-.37-.08-.54-.3-.18-.22-.2-.36-.56-.14-.36-.17-.43-.44-.76-.27-.33-.25-.24-.17-.57.07-.33.13-.76-.03-.99-.16-.23-.85-.86-1.41-1.16-.56-.3-.67-.07-.92-.54-.25-.47-.36-.97-.77-1.26-.41-.29-.21-.31-.6-.17-.4.15-.4.21-.37.32.03.11.12.27.07.58-.06.31-.14.21.27.46.41.25.24.19.44.64.21.45.24.54.4.72.16.18.22.34.63.44.41.09.34-.02.45.08.11.1-.29.14-.21.18.07.05.16.18.51.39.35.21.7.44.79.6.09.17.39.8-.05.34-.44-.47-.45-.25-.58.07-.12.32.11.57.1.8-.02.24-.22.15-.36.34-.14.19-.21.42-.38.54-.16.12-.11-.14-.2-.14s-.12.11-.24.34c-.12.22,0,.31.05.61.05.3.13.32-.19.31-.32-.02-.25-.31-.54-.51-.3-.2-.47-.13-.72-.28-.25-.15.11-.19.72-.27.62-.08.69-.14.88-.28.19-.15.12-.18.33-.47.21-.29,0-.41-.14-.76-.14-.35-.4-.51-.49-.58-.09-.07-.3-.28-.48-.47-.18-.2-.37-.23-.68-.31-.31-.08-.25-.36-.43-.44-.17-.08-.35-.33-.74-.7-.39-.37-.25-.64-.43-.96-.18-.32-.36-.57-.76-.57s-.69.28-1.08.66c-.39.38-.31.57-.77.28-.46-.29-.62-.26-.95.02-.33.28-.39.55-.39,1.1s-.39.32-.71.47c-.31.15-.59.54-1.07,1.44-.48.9.03.47-.07.78-.1.31.03.55-.41.95-.44.4-.25-.05-.51.28-.26.32-.63.58-1.25.51-.63-.08-.44.17-.84.26-.39.09-.61.23-.51-.21.1-.44.02-.38-.74-.35-.76.03-1.02.23-.95.12.07-.11.1-.29.18-.72.08-.43.2-.57.08-.57s-.36.06-.18-.7c.18-.77.25-.9.16-1.35-.08-.44.03-1.04-.07-1.3-.1-.26.2-.52.07-.66-.13-.14-.28-.32-.18-.32s.51.02,1.04.11c.53.09,1.07-.08,1.38-.05.31.03.97.17,1.63.28.66.11.64-.09.58-1.06-.07-.96.05-1.41-.15-1.61-.2-.2-.41-.18-.62-.44-.21-.26-.05-.64-.51-.78-.46-.14-.97-.03-.72-.12.25-.09.34-.12.08-.32-.26-.2-.33-.41-.13-.44.2-.03.76-.03.76-.03,0,0,.05.28.35.15.3-.12.67-.24.59-.44-.08-.2-.23-.44-.18-.44s.17.28.79.28.58-.09.53-.35c-.05-.26.41-.25.72-.46.31-.21-.12-.46-.05-.66.06-.2.43-.32,1.07-.37.64-.05.53-.15.46-.23-.07-.08.02-.4.07-.81.05-.41-.05-.55.28-.75.33-.2.23-.12.9-.18.67-.06.26-.21.38-.24.12-.03.92-.23,1.07-.29.15-.06.13-.04,0-.34-.13-.29-.31-.46-.46-1.81-.15-1.35-.12-1.35.71-1.59.82-.25.64-.17.58.58-.07.75-.43.75-.51,1.3-.08.55-.02.89.33,1.47.35.58.31.29,1.05.29s.58.18,1.07.35c.49.17.33-.31.81-.47.48-.17.38.11,1.49-.06.43-.06.57-.08.6-.08-.03,0-.16,0-.03-.07.26-.15.33-.43.71-.47.38-.05.64.11.62-.47-.02-.58-.23-.49-.16-.93.07-.44.08-.24.11-.6.03-.35-.05-.41.43-.54.48-.12.15.43.72.55.58.12.49.21.59-.23.1-.44.41-1.03.13-1-.28.03-.34-.02-.62-.43-.28-.41-.44-.51-.26-.51s.79-.17,1.66-.14c.87.03,1.12.11,1.17.02.05-.09-.15-.18.15-.37.3-.18,1.27.09,1.12-.08-.15-.17-1-.4-1.58-.31-.58.09-1.97.26-2.19.24-.21-.01-.61-.17-.71-.27-.1-.11-.41-.18-.41-.69s.18-.7-.11-1.19c-.3-.49.54-.9,1.12-1.42.58-.52.43-.95.77-.98.35-.03.48-.21.31-.38-.16-.17-.77-.75-1.07-.81-.3-.06-.74-.4-1.2.4-.46.8.03.87.12,1.29.08.41-.64.72-1.18,1.1-.54.38-.74.29-.9,1.27-.16.98-.33,1.01.28,1.35.61.34.72.51.44.8-.28.29-.87.28-1.23.97-.36.69-.21,1.02-.36,1.33-.15.31-.61.44-.74.75-.13.31-.13.89-.69.8-.56-.09-.25-.84-.49-1.23-.25-.38-.44-.7-.74-1.18-.3-.47-.07-.93-.35-1.18-.28-.24-.35-.73-.35-.73l-.1.23c-.1.23-.05.37-.61,1.06-.56.69-1.4.73-1.81.57-.41-.17-.34-.57-.34-1.07s-.1-1.18-.02-1.97c.08-.8.31-.74,1.18-1.26.87-.52.89-.49,1.1-.83.21-.34.84-.81,1.2-1.12.36-.31.99-1.47,1.31-2.3.33-.83.94-1.33,1.53-2.22.59-.89,1.64-1.67,2.99-2.23,1.35-.57,1.12-.63,1.43-1.07.31-.44.45-.18.97-.29.53-.11.44,0-.08.52-.53.52-.76,1.07-.31.66.44-.41.79-.9,1.48-.87.69.03.41,0,1.09.31.67.31.79.34.41.58-.38.24-1.02.18-1.02.18,0,0,.21.51.84.58.63.08.97-.49,1.38-.28.41.21.53.37-.03.32-.56-.05-.72.31-.03.55.69.25.76.28,1.66.4.9.12,1.3.78,1.99,1.07.69.29,1.5.05,1.27.67-.23.63.18,1.24-1.02,1.53-1.2.29-1.17-.09-2.17-.4-1-.31-1.71-.61-1.71-.61,0,0,.26.35.72.78.46.43.51.83.46,1.61-.05.78-.26,1,.53,1.38.79.38.67.28.92.21.25-.06.66-.14.56-.26-.1-.12-.18-.35-.44-.47-.26-.12-.28-.41-.02-.55.26-.14.51.12,1.08.09.58-.03,0-.21.28-.5.28-.29.3-.78.97-1.04.67-.26,1.4.12,1.58-.17.18-.29.38-.63,0-1.07-.38-.44-.67-.6-.44-.81.23-.21.69-.78.9-.46.21.32.76.67.07.61-.69-.06-.21,1.03.41.96.62-.06.58-.26,1.09-.51.51-.25,1.51-1.06,2.22-1.3.71-.25.85-.18,1.13-.06.28.12.28.35,1.05.2.77-.15,1-.34,1.73-.46.72-.12-.05.26.28.37.33.11.36.2.61.03.25-.17,1.04-.44.67-.72-.36-.28-.63-.46-.63-.46,0,0,.26-.58.95-.54.69.05,1.74.69,2.42,1.15.67.46,1.5,1.44,1.5,1.44,0,0,.29-.5.05-1.35-.25-.84-.87-.64-.87-1.44s-.58-.58-.38-1.15c.2-.57.76-.78.9-1.5.15-.72.28-1.32.79-1.32s1.61.15,1.61.15c0,0,0,.66-.41,1.64-.41.98.21,1.09.12,2.28-.1,1.19-.12,1.35.16,1.62.28.28.81.61.61,1.13-.2.52-.3.84-1.04,1.13-.74.29-1.68.12-1.33.35.35.23.79.43,1.28.5.49.08.25-.03.64-.35.4-.32,1.28-.96,1.25-1.27-.03-.31-.51-.78-.18-1.01.33-.23.46-.58.97-.29.51.29,1,1.38,1,1.33s-.1-1.07-.71-1.68c-.61-.61-1.61-.03-1.61-.57s.28-1.27.21-1.85c-.07-.58-.29-1.16.08-1.67.38-.51.39-.9.39-.9,0,0,.16.47.03,1.07-.13.6.07.95.35.95s1.53.02.85-.18c-.67-.2-.87-.38-.2-.75.67-.37.64-.12,1.63.11.99.23,1.22.4,1.55.38.33-.02.28-.05.16-.34-.11-.29-.26-.49-.58-.69-.31-.2-.53.05-.62-.26-.1-.31-.28-1.07-.36-1.36-.08-.29.25-.06.77-.06s1.96-.08,3.06-.11c1.1-.03.02-1.18-.07-1.99-.08-.81,2.04-.84,3.07-.99,1.04-.15,2.24-.11,4.17-.57,1.94-.46.69-.38.97-.93.28-.55.76-.64,1.33-.64s1.1.11.89.18c-.21.08-.85.4.15.61,1,.21.74.2.21.38-.53.18-.08.52.94.52s.41-.09.25-.43c-.16-.34.15-.21.99-.08.84.14,1.17.28,1.63.7.46.43.54.32.71.92.17.6-.02.5-.72,1.06-.71.55-1.13.55-2.15,1.19-1.02.64-.77.98-1.33,1.41-.56.43-.41.31.77,0,1.18-.31,1.82-.51,2.43-.44.61.06.9.29,1.36.29s-.03.08,1.41.08,1.23,0,.71.41c-.53.41.1.54.74.54s1.43.03,2.02-.06c.59-.09.08-.54.79-.57.71-.03.94-.09,1.69-.09s.53.31.79.58c.26.28.62.46.38,1.01-.25.55-.38.57-.23,1.32.15.75.53.86.99,1,.46.14.46-.67.9-.95.44-.28.54.55,1.05.43.51-.12,1.08-.06,1.53.08.44.14.82.22,1.45.08.62-.14.43-.38.21-.77-.21-.38-.23-.35.16-.75.39-.4.66-.2,1.94.14,1.28.34.87.34,1.59.54.72.2.49.15,1.59.66,1.1.51.89,1.1,1.4,1.42.51.32.54,0,1.56-.09,1.02-.09,1,.12,2.12.41,1.12.29.82.66.82.98s-.31.57.38.72c.69.15.97.29,1.56.14.59-.15.07.15,1.38.17,1.31.02.87-.15,1.27.12.39.28.49.83,1.13.77.64-.06.59-.05.33-.61-.26-.57-.43-.66-.05-.64.38.02,1.15.18,2.58.41,1.43.23,1.48.49,2.65,1.23,1.17.74,1.49.8,2.35,1.45.33.25.39.32.4.34.02,0,.11.03.44.18.92.43.76.29,1.54.67.79.38,1.46.92,1.46.92,0,0,.05.08-.54.14ZM145.35,82.05s-.09.12.37-.25c.46-.37-.21-.02-.48-.09-.26-.08-.35-.2-.26-.54.08-.34-.03-.34-.31-.78,0,0-.15-.09-.46.09-.31.18-.49-.18-.87-.05-.38.14-.79.08-1.02.64-.23.57-.49.2-.57.66-.08.46-.79.7-.79.7,0,0,.28.28.49.54.21.26.07.09.28.95.21.86.36.78.66.9.3.12.76.41.76.41,0,0-.28-.17-.28.29s-.44.78-.4,1.45c.05.67-.61,1.3-.08,1.36.53.06.36.29.94.44.58.15.9.26,1.74.26s.38-.32.26-.8c-.12-.47-.18-.78-.21-1.3-.03-.52-.23-.38-.36-.7-.13-.32.07-.51.46-.51s.45-.02.23-.37c-.21-.35-.08-.49-.35-.64-.26-.15-.38.51-.38.51,0,0-.16-.15-.1-.8.07-.64.11-.34-.08-.46-.2-.12-.31.03-.58-.4-.26-.43-.03-.34-.34-.86-.31-.52-.15-.25.2-.25s.16-.08,0-.24c-.16-.17-.28-.43.16-.4.44.03,1.02.12,1.23.14.21.01.14.07.14.07ZM84.04,58.46c-.15.26.26.6.55.49.3-.1.39.01.56-.12.17-.13.18-.33-.02-.53-.2-.19-.12-.31-.15-.33-.38-.23-.79.22-.95.49ZM165.29,41.58c-.44.02-.94.03-.53.17.41.14.25.83,1.03.44.79-.38.63-.41,1.17-.64.54-.23.23-.12-.43-.29-.41-.11-.81.31-1.25.32Z"/>
      </g>
      <ellipse class="cls-1" cx="137.22" cy="92.07" rx="60.98" ry="61"/>
    </g>
    <path class="cls-2" d="M198.06,81.97h-.01v-.11s0,.08.01.11Z"/>
    <path class="cls-4" d="M215.54,126.04c-1.48,2.39-2.05,2.62-3.52,4.8-1.01,1.48-1.24,2.05-3.17,5.82-1.37,2.62-.23.46-4.89,9.36-2.04,3.88-2.83,5.59-3.52,6.85-.9,1.71-1.7,3.43-3.29,6.74-1.48,2.97-1.93,4.11-2.49,5.82-.45,1.72-.68,3.09-.8,4.34-.45,2.97-.35,5.36-.35,6.74.12,2.28.23,3.99.91,6.05.68,1.94,1.36,2.97,2.16,4.34,1.82,3.31,1.7,4.57,3.62,10.95,2.5,8,3.41,8,3.07,9.37-2.38,8.1-35.52,7.19-37.44,0-.23-1.02.23-1.71.23-7.08,0-1.48,0-3.42-.12-5.82-.23-3.54-.57-3.43-1.02-8.44-.22-1.94-.68-4-.57-5.94,0-.92.12-1.83-.34-2.97-.23-.68-.57-1.02-.8-1.83-.23-.91,0-1.6,0-2.06.23-1.6-.23-3.08-1.02-5.7-.68-2.06-1.02-2.4-1.36-4.11-.11-1.03-.11-1.72-.11-2.41,0-6.5-.12-9.81-.35-10.95-.05-.16-.11-.38-.15-.67,0-.04-.01-.07-.01-.08-.07-.57,4.12-2.41,4.12-2.41,0,0,1.62-.58,3.48-1.74,1.81-1.12,3.27-2.13,4.31-2.88,5.26-3.78,8.49-7.14,9.37-8.07.18-.19.68-.72,1.32-1.44,1.56-1.75,3.62-4.08,5.49-7.17.97-1.59.8-1.59,2.01-3.58.7-1.16,1.22-1.91,1.79-3.18.32-.71.36-.91.83-2.23.06-.15.11-.3.16-.44.66-1.53,1.29-3.13,1.87-4.79,0,0,0-.01,0-.02.3-.79.58-1.64.9-2.72.04-.13.08-.25.11-.38.13-.41.25-.82.36-1.23v-1.03c0-1.14-.12-2.17-.57-3.08-.35-.8-1.36-2.06-1.71-4.22-.22-1.6,0-2.4-.57-3.88-.45-1.37-1.02-1.6-1.81-2.74-.23-.23-.35-.45-.46-.68-.46-.69-.68-1.48-.91-2.17-.11-.12-.11-.23-.11-.35,0-.11-.11-.34-.11-.45-.12-.11-.12-.23-.12-.34-.11-.12-.11-.35-.11-.45-.12-.23-.12-.46-.12-.69v-.91c0-1.13,0-2.11.19-2.98.18-.68.48-1.29.95-1.82.9-.92,2.49-1.83,3.96-1.48,2.27.57,2.95,3.89,3.18,3.76,0,0,.12-.11.12-.23v-.11c.11,0,.11-.12.11-.23v-.45c0-.18,0-.43-.06-.69,0-.03,0-.07-.01-.11h.07c.34-.11-.9-4.45-1.93-8.1-3.07-10.95-2.27-9.25-2.84-10.62-.57-1.48-1.13-2.51-1.02-4.22.08-.45.16-.82.23-1.14.03-.1.05-.19.08-.29.01-.05.03-.11.04-.17.19-.66.32-1.36.23-2.28-.12-1.37-.79-1.6-.91-2.74-.23-2.06.46-5.36,3.18-6.5,2.49-1.02,5.1.45,6.35,2.06,1.14,1.6.23,2.28.91,6.05.57,3.2,1.82,5.82,3.86,10.05.68,1.37.57,1.14.91,1.83,2.05,4.45,1.13,5.93,2.49,10.27,1.14,3.76,2.27,4.11,2.5,7.08.11,1.14,0,1.94.44,3.08.69,1.94,1.82,2.4,1.94,3.89.11.91-.35,1.37-.68,2.51-.8,2.27-.69,4.33-.46,7.19.35,3.66,1.02,3.08,1.25,6.28.11,3.2-.57,3.99.34,5.82.57,1.26,1.36,1.71,1.59,3.31.12.91,0,1.26.12,2.74.22,1.49.45,1.94.57,2.74.57,1.6-.35,3.2-1.93,5.71Z"/>
    <path class="cls-4" d="M59,125.92c1.48,2.39,2.05,2.62,3.52,4.8,1.01,1.48,1.24,2.05,3.17,5.82,1.37,2.62.23.46,4.89,9.36,2.04,3.88,2.83,5.59,3.52,6.85.9,1.71,1.7,3.43,3.29,6.74,1.48,2.97,1.93,4.11,2.49,5.82.45,1.72.68,3.09.8,4.34.45,2.97.35,5.36.35,6.74-.12,2.28-.23,3.99-.91,6.05-.68,1.94-1.36,2.97-2.16,4.34-1.82,3.31-1.7,4.57-3.62,10.95-2.5,8-3.41,8-3.07,9.37,2.38,8.1,35.52,7.19,37.44,0,.23-1.02-.23-1.71-.23-7.08,0-1.48,0-3.42.12-5.82.23-3.54.57-3.43,1.02-8.44.22-1.94.68-4,.57-5.94,0-.92-.12-1.83.34-2.97.23-.68.57-1.02.8-1.83.23-.91,0-1.6,0-2.06-.23-1.6.23-3.08,1.02-5.7.68-2.06,1.02-2.4,1.36-4.11.11-1.03.11-1.72.11-2.41,0-6.5.12-9.81.35-10.95.05-.16.11-.38.15-.67,0-.04.01-.07.01-.08.07-.57-4.12-2.41-4.12-2.41,0,0-1.62-.58-3.48-1.74-1.81-1.12-3.27-2.13-4.31-2.88-5.26-3.78-8.49-7.14-9.37-8.07-.18-.19-.68-.72-1.32-1.44-1.56-1.75-3.62-4.08-5.49-7.17-.97-1.59-.8-1.59-2.01-3.58-.7-1.16-1.22-1.91-1.79-3.18-.32-.71-.36-.91-.83-2.23-.06-.15-.11-.3-.16-.44-.66-1.53-1.29-3.13-1.87-4.79,0,0,0-.01,0-.02-.3-.79-.58-1.64-.9-2.72-.04-.13-.08-.25-.11-.38-.13-.41-.25-.82-.36-1.23v-1.03c0-1.14.12-2.17.57-3.08.35-.8,1.36-2.06,1.71-4.22.22-1.6,0-2.4.57-3.88.45-1.37,1.02-1.6,1.81-2.74.23-.23.35-.45.46-.68.46-.69.68-1.48.91-2.17.11-.12.11-.23.11-.35,0-.11.11-.34.11-.45.12-.11.12-.23.12-.34.11-.12.11-.35.11-.45.12-.23.12-.46.12-.69v-.91c0-1.13,0-2.11-.19-2.98-.18-.68-.48-1.29-.95-1.82-.9-.92-2.49-1.83-3.96-1.48-2.27.57-2.95,3.89-3.18,3.76,0,0-.12-.11-.12-.23v-.11c-.11,0-.11-.12-.11-.23v-.45c0-.18,0-.43.06-.69,0-.03,0-.07.01-.11h-.07c-.34-.11.9-4.45,1.93-8.1,3.07-10.95,2.27-9.25,2.84-10.62.57-1.48,1.13-2.51,1.02-4.22-.08-.45-.16-.82-.23-1.14-.03-.1-.05-.19-.08-.29-.01-.05-.03-.11-.04-.17-.19-.66-.32-1.36-.23-2.28.12-1.37.79-1.6.91-2.74.23-2.06-.46-5.36-3.18-6.5-2.49-1.02-5.1.45-6.35,2.06-1.14,1.6-.23,2.28-.91,6.05-.57,3.2-1.82,5.82-3.86,10.05-.68,1.37-.57,1.14-.91,1.83-2.05,4.45-1.13,5.93-2.49,10.27-1.14,3.76-2.27,4.11-2.5,7.08-.11,1.14,0,1.94-.44,3.08-.69,1.94-1.82,2.4-1.94,3.89-.11.91.35,1.37.68,2.51.8,2.27.69,4.33.46,7.19-.35,3.66-1.02,3.08-1.25,6.28-.11,3.2.57,3.99-.34,5.82-.57,1.26-1.36,1.71-1.59,3.31-.12.91,0,1.26-.12,2.74-.22,1.49-.45,1.94-.57,2.74-.57,1.6.35,3.2,1.93,5.71Z"/>
    <path class="cls-2" d="M194.99,111.21c-.58,1.66-1.22,3.26-1.87,4.79.78-2.11,1.34-3.36,1.87-4.79Z"/>
    <path class="cls-2" d="M196.36,105.83v1.03c-.11.42-.23.83-.36,1.23l.24-.89v-1.02c.02-.2.03-.4.03-.6,0-.9-.22-1.74-.6-2.48-.45-.91-1.36-2.06-1.7-4.23-.34-1.6,0-2.4-.57-3.89-.46-1.25-1.02-1.59-1.82-2.73-.11-.23-.34-.45-.45-.68-.45-.68-.68-1.49-.91-2.17,0-.11,0-.23-.11-.34,0-.12-.12-.35-.12-.45,0-.12,0-.23-.11-.35,0-.23,0-.34-.12-.46,0-.23-.11-.46-.11-.68v-.92c0-1.26.04-2.36.3-3.32-.19.86-.19,1.85-.19,2.98v.91c0,.23,0,.46.12.69,0,.11,0,.34.11.45,0,.11,0,.23.12.34,0,.12.11.35.11.45,0,.12,0,.23.11.35.23.69.45,1.48.91,2.17.11.23.23.46.46.68.78,1.14,1.36,1.37,1.81,2.74.57,1.48.35,2.28.57,3.88.35,2.17,1.36,3.43,1.71,4.22.45.91.57,1.94.57,3.08Z"/>
    <path class="cls-2" d="M198.28,82.32v.45c0,.11,0,.23-.11.23v-.23c0-.21-.1-.42-.11-.8h.11s.06-.08.06-.2c0-.04,0-.09-.01-.15.06.27.06.51.06.69Z"/>
    <path class="cls-2" d="M198.28,81.51h-.07c-.15-1.24-1.14-4.75-1.98-7.65-3.06-11.07-2.26-9.25-2.83-10.61-.57-1.48-1.13-2.62-1.02-4.22,0-.58.11-1.14.34-1.6-.07.32-.15.69-.23,1.14-.11,1.71.45,2.74,1.02,4.22.57,1.37-.23-.34,2.84,10.62,1.02,3.66,2.27,8,1.93,8.1Z"/>
    <path class="cls-3" d="M81.07,58.68v1.14c0-.57-.23-.91-.34-1.37.11-.11.11-.23.23-.34,0,.11.11.34.11.57Z"/>
  </g>
  <g>
    <path class="cls-4" d="M39.15,242.43c0-5.77,4.55-9.97,10.76-9.97s10.76,4.19,10.76,9.97-4.55,9.97-10.76,9.97-10.76-4.19-10.76-9.97ZM54.18,242.43c0-2.97-1.91-4.77-4.28-4.77s-4.28,1.8-4.28,4.77,1.91,4.77,4.28,4.77,4.28-1.8,4.28-4.77Z"/>
    <path class="cls-4" d="M81.79,232.9v19.06h-5.28l-7.24-8.66v8.66h-6.26v-19.06h5.28l7.24,8.66v-8.66h6.26Z"/>
    <path class="cls-4" d="M97.51,241.92h5.58v8.06c-2.31,1.58-5.5,2.42-8.31,2.42-6.15,0-10.65-4.11-10.65-9.97s4.49-9.97,10.78-9.97c3.76,0,6.78,1.31,8.71,3.68l-4.11,3.62c-1.2-1.39-2.59-2.1-4.28-2.1-2.83,0-4.63,1.83-4.63,4.77s1.8,4.77,4.55,4.77c.79,0,1.55-.14,2.34-.46v-4.82Z"/>
    <path class="cls-4" d="M132.8,246.71c0,3.32-2.8,5.26-8.06,5.26h-10.73v-19.06h10.18c5.26,0,7.71,2.1,7.71,4.98,0,1.77-.9,3.24-2.64,4.11,2.23.82,3.54,2.45,3.54,4.71ZM120.33,237.39v2.83h3c1.44,0,2.1-.49,2.1-1.42s-.65-1.42-2.1-1.42h-3ZM126.32,245.97c0-.98-.71-1.5-2.12-1.5h-3.87v3h3.87c1.42,0,2.12-.52,2.12-1.5Z"/>
    <path class="cls-4" d="M134.9,243.39v-10.48h6.43v10.29c0,2.91,1.12,4,2.91,4s2.91-1.09,2.91-4v-10.29h6.32v10.48c0,5.72-3.43,9.01-9.29,9.01s-9.29-3.29-9.29-9.01Z"/>
    <path class="cls-4" d="M155.21,250.44l2.07-4.68c1.8,1.06,4.19,1.74,6.29,1.74,1.82,0,2.48-.38,2.48-1.03,0-2.4-10.54-.46-10.54-7.57,0-3.54,2.97-6.43,8.88-6.43,2.56,0,5.2.54,7.19,1.66l-1.93,4.66c-1.88-.95-3.65-1.42-5.31-1.42-1.88,0-2.48.55-2.48,1.2,0,2.29,10.54.38,10.54,7.41,0,3.49-2.97,6.43-8.88,6.43-3.19,0-6.4-.79-8.31-1.96Z"/>
    <path class="cls-4" d="M173.54,242.43c0-5.77,4.55-9.97,10.76-9.97s10.76,4.19,10.76,9.97-4.55,9.97-10.76,9.97-10.76-4.19-10.76-9.97ZM188.57,242.43c0-2.97-1.91-4.77-4.28-4.77s-4.28,1.8-4.28,4.77,1.91,4.77,4.28,4.77,4.28-1.8,4.28-4.77Z"/>
    <path class="cls-4" d="M197.39,232.9h6.43v14.08h8.6v4.98h-15.03v-19.06Z"/>
    <path class="cls-4" d="M227.46,248.64h-7.24l-1.28,3.32h-6.54l8.33-19.06h6.32l8.33,19.06h-6.64l-1.28-3.32ZM225.69,244.01l-1.85-4.79-1.85,4.79h3.7Z"/>
  </g>
</svg>