<?xml version="1.0" encoding="UTF-8"?>
<svg id="Calque_2" data-name="Calque 2" xmlns="http://www.w3.org/2000/svg" xmlns:xlink="http://www.w3.org/1999/xlink" viewBox="0 0 2322.64 1272.14">
  <defs>
    <style>
      .cls-1 {
        fill: url(#Fondu_de_ciel_2);
      }
    </style>
    <linearGradient id="Fondu_de_ciel_2" data-name="Fondu de ciel 2" x1="0" y1="636.07" x2="2322.64" y2="636.07" gradientUnits="userSpaceOnUse">
      <stop offset="0" stop-color="#2580c2"/>
      <stop offset="1" stop-color="#2580c2" stop-opacity="0"/>
    </linearGradient>
  </defs>
  <g id="Calque_1-2" data-name="Calque 1">
    <path class="cls-1" d="m210.76,276.48c4.61,0,5.18,1.67,9.13,0,3.95-1.65,15.61-9.36,19.56-10.42,3.94-1.05,6.48.35.66,3.59-5.84,3.24-17.51,10.25-15.42,9.73,2.07-.53,7.99-3.06,16.36-7,8.37-3.94,7.61-2.19,9.77-6.39,2.17-4.2,3.3-6.4,3.3-6.4,0,0,13.25,13.58,14.48,14.11,1.22.52,1.7-.09,2.36-1.75.65-1.67,2.07-4.04,3.95-3.24,1.88.79.27,4.03,1.4,4.46,1.13.44,3.01-.08,6.49-1.22,3.48-1.14,1.69-3.67,1.69-3.67,0,0-.37-.1,3.67-.45,4.04-.35,16.74,4.29,20.5,5.78,3.76,1.49,15.15,2.72,18.35,3.76,3.18,1.06,4.41-1.84,8.84.53,4.42,2.36,7.71,5.52,4.42,7.18-3.29,1.67-11.57,2.89-7.33,3.94,4.22,1.05,10.63,2.37,16.74,2.19,6.11-.18,17.11-2.45,20.49-2.45s5.46,2.1,8.66,7.44c3.2,5.34,5.73,7.44,6.95,7.88,1.22.44-1.22-2.54-.57-5.17.66-2.63-.65-7.8-1.41-9.54-.74-1.75,0-2.63-1.5-5.18-1.5-2.53-3.94-2.1.57-4.28,4.51-2.19,7.62-5.43,13.07-4.73,5.45.69,6.95,7.62,11.66,8.14,4.71.53,5.56,2.36,13.63,2.99,8.09.61,4.71.09,13.73.7,9.02.61,5.74-.98,7.62-5.61,1.89-4.65,3.95-5.52,6.11-5.34,2.17.17,9.77,1.22,9.77,2.19s-3.19,5.94-1.6,8.4c1.6,2.46,8.1,6.48,8.1,6.48,0,0-1.41-5.61-1.41-6.22s-.47-4.99.47-5.78c.94-.79,6.3.44,9.68-6.14,3.37-6.57-2.27-6.22-2.27-6.22,0,0-2.07.1-1.03-2.62,1.03-2.72,7.05-4.37,7.05-4.37,0,0,.38,1.22-.38-.98-.74-2.18-4.69-1.74-8.93-2.01-4.23-.26-7.14-.87-7.9-4.46-.75-3.59-1.03-11.12-1.03-16.29s4.14-3.33,4.89-6.22c.75-2.89-.19-16.98-1.22-19.88-1.04-2.89,1.5-9.11,2.08-13.22.55-4.12,4.79-2.28,4.79-2.28-.75-1.41,1.21-5.34,6.86-7,5.65-1.66,16.37.08,16.37.08,0,0-.95.09-3.58,3.51-2.64,3.41-.93,9.47-4.89,13.75-3.94,4.29-14.01,2.89-14.01,2.89,0,0,3.1,7.09,1.79,9.36-1.32,2.28-2.16,6.93-2.16,6.93,0,0,8.84,2.45,9.31,8.05.47,5.61,4.88,6.57,5.92,11.73,1.03,5.17-4.32,9.46-3.2,10.25,1.13.79,1.5,1.14,4.71,1.31,3.18.17,7.52.79,7.52.79,0,0-1.79,2.63-.19,5.43,1.6,2.8.38,4.56.56,7.53.19,2.98,1.98,5.52,2.72,4.99.76-.53,4.24-8.15,4.99-11.56.74-3.42,1.31-5.26,2.81-5.26s6.59,4.65,7.15,6.31c.57,1.66.94,3.94-1.88,8.49-2.82,4.56-2.54,6.66-.09,8.41,2.43,1.74,2.54,1.23,6.95,3.33,4.42,2.1,3.58,1.92,6.3,1.13,2.73-.79-1.13-7.71-.85-7.88.29-.18,6.5-.88,5.09-4.38-1.41-3.51-2.84-5.25.08-7,2.93-1.75,4.99-3.15,4.99-3.15-1.22-2.19-1.6-2.36-3.66-8.24-2.07-5.87,1.78-4.28,9.88-3.68,8.08.62,8.45,3.42,12.78,5.61,4.32,2.19,1.6,2.98,3,6.48,1.41,3.5-3.57,4.03-3.57,4.03,0,0-3.29.61-2.54,3.32.76,2.72,2.26,5.95,4.61,10.16,2.35,4.21-.65,7.09-4.33,10.51-3.66,3.42-8,4.38-12.31,4.47-4.33.08-6.21,1.84-6.48.61-.3-1.22-2.36-2.36-4.7-1.84-2.36.52-7.72,2.63-5.84,3.32,1.88.7,6.86.53,4.8,4.38-2.08,3.85-3.86,3.85-8,3.41-4.13-.44-7.99-.44-10.63-.62-2.62-.17-15.61-.96-15.61-.96,0,0,8.76,5.34,15.72,7.53,6.95,2.19,14.3.88,14.3.88,0,0-2.83,5.25-6.22,10.86-3.38,5.61-6.58,3.16-9.39,3.51-2.84.35-4.52,2.63-9.78,3.32-5.28.7-16.27-1.49-14.59-.69,1.7.79,2.45,2.18,5.46,2.63,3.02.43,4.9.96,7.52,3.15,2.63,2.19-1.7,2.72-5.17,3.32-3.49.62-4.42,1.23-6.02,3.41-1.6,2.2-7.53,10.68-9.41,13.31-1.89,2.63-3.57,7-4.32,12.17-.76,5.18-5.17,11.39-3.19,12.7,1.97,1.31,9.39,1.49,12.5,3.41,3.1,1.93,6.59,11.39,8.93,14.97,2.36,3.59,4.23,6.31,6.86,3.51,2.64-2.8,7.81-2.1,12.7-.35,4.89,1.75,14.86,8.67,17.97,11.73,3.1,3.07,8.55,2.55,14.66,3.42,6.11.88,6.8,3.18,6.8,3.18,0,0,6.37.33,3.74,3.04-2.63,2.71-3.39.08-.76,4.64,2.64,4.56,2.55,10.68,1.79,13.75-.76,3.07,8.43,1.52,12.29,3.8,3.85,2.27,4.07,11.53,6.05,10.39,1.98-1.14,5.26-3.16,5.64-5.61.38-2.45-.09-5.69-.47-9.9-.38-4.21-1.41-11.92-3.48-14.97-2.07-3.07,3.73-4.29,2.79-5.61-.92-1.31-.72-3.94,3.23-4.99,3.95-1.04,4.23-.08,6.39-1.75,2.17-1.66,2.54-9.45,2.91-12.25.39-2.8-.65-8.85-1.59-11.12-.93-2.27-4.8-9.55-6.2-11.12-1.43-1.58-3.2-2.02.66-6.92,3.84-4.9,1.59-3.85,1.03-5.34-.56-1.5-1.41-5.17-2.16-8.49-.77-3.33,1.6-7.01.18-11.74-1.41-4.73-2.91-3.67-2.63-4.73.28-1.05,9.21-.79,15.8-.08,6.58.7,9.21-.7,11.09-.7s5.28,1.84,8.94,4.21c3.66,2.36,5.08,1.75,6.96,4.64,1.88,2.89,2.91,4.46,6.76,4.29,3.86-.18,8.01,1.66,8.01,1.66,0,0-2.74,1.58-2.26,6.75.46,5.16-.57,8.92-.48,11.03.09,2.1,1.14,2.19,2.91,2.46,1.79.27,6.6,4.55,11.57,6.3,4.99,1.75,6.3,1.22,7.9-2.8,1.61-4.03,1.98-3.68,3.96-3.94,1.97-.26,2.63.44,3.47-.44.85-.88-1.51-2.63-.94-5.42.56-2.81,3.29-6.48,5.56-8.59,2.25-2.1,3.85,2.11,5.83,5.96,1.98,3.85,8.84,16.37,10.82,20.48,1.97,4.13,4.51,4.38,2.16,8.24-2.35,3.84-3.48,5.51.19,7.26,3.66,1.75,6.96,4.82,6.69,7.71-.3,2.89-1.05,2.98.18,3.77,1.22.79,5.64-1.58,8.84-.17,3.19,1.4,7.05,2.72,9.31,4.99,2.25,2.28,2.08,3.07-1.13,4.2-3.2,1.14-6.4,2.28-8,3.24-1.6.97-4.13,2.81-4.04,4.3.1,1.48-.66,3.94,1.88,2.01,2.54-1.93,6.68-3.85,9.68-4.73,3.01-.87.75-.09,3.48-.44,2.74-.35,5.36,1.32,9.13,2.36,3.75,1.06,2.72,3.42,1.78,5.61-.93,2.18-1.78,4.28-.28,6.75,1.51,2.45-.65,4.64-3.95,7.62-3.29,2.98-5.73,3.42-11.09,4.12-5.36.7-7.91,3.94-11.67,7.43-3.75,3.51-5.64,2.63-11.1,2.89-5.46.26-3.29-2.71-4.98-2.1-1.7.62-3.85,2.46-7.33,2.81-3.49.35-15.25.52-19.76,1.84-4.51,1.31-3.09,4.37-4.23,6.91-1.13,2.54-2.92,1.49-6.3,2.63-3.39,1.14-7.43,6.14-11.38,12.97-3.96,6.83-9.31,11.03-9.31,11.03,1.13-.26,6.68-3.68,9.4-7.01,2.73-3.32,14.11-11.2,17.59-13.65,3.47-2.46,11-6.04,12.78-5.52,1.79.53,6.22,3.95,6.22,5.7s-1.32,3.15-4.51,6.13c-3.19,2.98-7.43,0-7.15,1.22.28,1.23,2.54,4.03,4.99,4.64,2.45.61,2.34,3.6,2.34,5.09s-1.41,3.41,4.23,8.14c5.65,4.73,9.6,5.08,13.74,4.81,4.13-.26,1.97,1.41,3.66,1.23,1.69-.17,2.07-3.42,2.63-6.04.57-2.63,1.51-5.08,3.01-6.22,1.51-1.14,2.63-3.24,3.11.79.46,4.02-1.69,9.54-3.87,10.77-2.15,1.22-1.68,2.8-1.68,4.03s-2.45,1.31-8.29,4.56c-5.82,3.24-7.71,4.03-8.74,3.59-1.03-.44-3.2.53-6.01,3.07-2.83,2.54-5.83,5.96-7.9,5.86-2.08-.08-3.86-.96-1.04-3.85,2.81-2.89,3.77-6.91,6.58-8.32,2.82-1.41,4.13-1.22,6.49-1.22s1.22-1.41,3.1-2.8c1.88-1.41-1.41-.98-4.61-1.5-3.19-.52-.74-3.33-.74-3.33l-3.3,1.75s-4.98,2.63-6.3,2.81c-1.31.17-1.03,1.04-1.41,1.57-.38.53-5.08.88-5.08.88,0,0-2.45,4.99-6.12,5.69-3.66.71-1.12.44-3.76,1.57-2.63,1.14-2.15-1.31-2.72-.61-.56.71-1.03,1.32-3.95,3.51-2.92,2.2-4.62,2.89-6.68,10.86-2.08,7.97.37,10.86.28,12.09-.09,1.22-3.67-.79-4.7.17-1.05.97-3.4,3.94-6.5,4.82-3.1.88-9.21,2.46-10.63,3.94-1.41,1.49-1.5,3.59-2.17,6.65-.65,3.08-4.32,10.25-4.32,10.25,0,0,.84-2.89-1.7-5-2.54-2.1-2.15-4.03-2.15-4.03,0,0-.58,2.89.37,5.86.95,2.98,2.81,5.96,1.98,9.2-.86,3.24-2.46,7.28-4.42,8.41-1.98,1.14.46-2.19.46-4.81s-1.32-2.8-2.17-4.11c-.85-1.32-.85-4.65.65-9.12,1.51-4.47-1.41-1.75-3.1,1.23-1.69,2.98-2.9,8.49-.28,12.09,2.64,3.59-1.69,3.23.1,8.4,1.78,5.17-2.16,7.71-1.42,8.5.76.79,2.83-.35,3.77,2.18.93,2.55-1.88,1.41-2.82,2.11-.95.7-.48,1.66.09,3.07.56,1.39,1.7.51,1.22.96-.47.43-1.79,2.18-4.23,2.98-2.44.79-2.64-.45-4.14,1.31-1.5,1.74-2.62,3.32-4.22,5.33-1.6,2.02-2.72,1.32-4.42,2.72-1.7,1.4-2.35,2.54-4.43,4.29-2.06,1.75-6.76,4.46-9.3,7.88-2.54,3.42-1.89,4.29-3.11,9.82-1.22,5.51,3.11,15.15,5.84,24.26,2.74,9.1,3.85,6.57,3.47,9.45-.37,2.89-1.6,6.39-3.58,8.41-1.96,2.02-3.08-1.41-5.81-3.42-2.73-2.01-.57-3.41-3.2-7.61-2.64-4.21-2.45-5.7-2.73-8.77-.29-3.06-.75-7.44-2.16-10.77-1.41-3.34-4.43-7.54-8.94-5.87-4.51,1.67-3.38.88-5.83.17-2.46-.69-8.93-3.32-12.23-1.57-3.3,1.75-13.72-.53-15.89,0-2.17.53-3.77.71-3.77,2.2s-.93,1.74,2.93,2.79c3.85,1.05,3.29,2.19,3.02,3.85-.29,1.66-3.12-.88-4.62-1.49-1.51-.61-2.91,1.22-5.54,1.22s-3.11-2.54-5.47-2.89c-2.35-.36-3.29,0-5.55-.88-2.25-.88-5.26-2.36-7.9-2.19-2.63.18-12.79,6.92-17.59,10.51-4.79,3.6-8.47,7.09-9.58,9.98-1.13,2.89-1.23,3.16,2.63,7.45,3.85,4.29,2.07,3.6,1.31,6.04-.75,2.45-3.01,5.42-5.73,11.73-2.74,6.3-1.13,9.37,2.15,15.41,3.3,6.04,6.22,10.42,8.85,12.96,2.64,2.54,4.51,5.26,6.77,6.22,2.26.96,2.72,1.32,3.76,2.36,1.03,1.06.75,1.49,4.33.53,3.56-.96,6.19-2.36,8.74-2.36s4.9.08,6.3,1.41c1.41,1.31,1.6.53,1.6-.18s1.13-3.32,1.51-4.03c.37-.7,3.76-5.52,4.32-8.15.56-2.63.56-7.89,3.86-8.24,3.28-.35,10.34-2.01,16.74-1.57,6.39.43,3.57,3.59,1.89,6.91-1.7,3.33-2.36,3.68-2.36,6.22s.76,2.55-1.3,4.04c-2.07,1.49-.76-.88-1.61.61-.85,1.49-3.85,3.59-3.48,3.24.37-.35,1.31,2.53,1.31,3.94s-.28,2.1-.28,5.52-6.68,6.91-6.68,6.91c0,0,2.45,1.41,6.02,1.41s7.9,0,11.66,1.75c3.76,1.75,10.91-1.41,16.18,1.22,5.27,2.63,3.39,4.2,3.75,6.66.38,2.45.94,10.86.58,12.78-.39,1.93-2.84,7.35-4.15,11.21-1.31,3.84,3.76,6.66,8.48,9.81,4.7,3.15,8.83,4.56,11.29,5.25,2.42.7,6.95-3.68,15.23-3.15,8.27.53,11.09,7.53,11.09,7.53,0,0,.94-4.38,4.71-10.34,3.77-5.95,3.94-7.71,9.02-9.63,5.09-1.93,6.78-2.27,15.06-4.9,8.28-2.63,6.76-.69,11.08-.35,4.34.35,14.3,1.22,24.28,4.2,9.96,2.98,25.21,3.85,31.03,6.3,5.83,2.46,8.47,9.29,14.49,14.89,6.02,5.6,13.54,10.68,16.73,13.31,3.2,2.63,21.07,5.09,25.02,6.66,3.94,1.57,9.4,8.05,9.77,11.91.37,3.85,4.32,5.78,9.77,8.05,5.46,2.28,7.15,4.91,10.73,11.92,3.58,7,2.44,8.93,7.33,10.68,4.9,1.76,38.76,10.86,47.21,14.19,8.47,3.33,19.19,12.26,22.01,13.31,2.83,1.05,7.9-.88,10.16.35,2.26,1.23-1.32,7.88,1.5,12.61,2.82,4.73,3.01,5.09,1.31,8.58-1.69,3.51-8.47,11.92-11.09,16.12-2.65,4.21-8.28,6.83-11.48,8.59-3.2,1.74-6.03,0-3.2,3.5,2.82,3.5.19,6.47-2.26,9.63-2.45,3.15.19,2.79-.57,12.96-.75,10.15,0,21.19-1.13,25.57-1.12,4.38-7.7-3.85-15.23,5.61-7.52,9.46-9.58,16.64-14.1,17.69-4.52,1.05-15.05,6.31-18.62,9.63-3.58,3.32-4.33,4.56-6.59,9.46-2.25,4.89-4.51,14.88-6.95,21.02-2.45,6.13-6.39,9.63-15.42,17.86-9.04,8.24-12.98,16.64-18.82,23.13-5.82,6.47-4.32,5.07-5.54,6.3-3.12,3.13-15.95-5.04-12.63-.52,2.45,3.32-1.38,0,.69,3.14,2.07,3.16,3.58,4.38-.93,9.99-4.51,5.61-9.73,4.5-13.3,5.37-3.57.88-8.91-3.68-9.28-1.4-.37,2.27-2.44,7.94-5.27,9.33-2.81,1.41-10.34,3.51-10.15,4.38,3.55,16.59,10.86,18.32,3.13,17.56-21.21-2.07-6.08-7.1-20.82,23.76-2.25,4.74-4.51,2.28-4.13,7.89.38,5.61,0,9.81,3.02,13.31,3.01,3.51.93,3.32-4.14,8.05-5.08,4.73-5.46,4.04-10.15,11.21-4.71,7.18-9.22,6.83-7.53,12.26,1.7,5.43,2.08,13.49,4.89,21.54,2.81,8.05,8.65,6.65,17.87,12.26,9.21,5.6,10.34,2.62,14.86,4.03,4.51,1.41-3.2,1.75-11.3,3.15-8.08,1.41-13.35,2.98-18.99,1.76-5.64-1.23-18.99-8.94-23.51-12.27-4.51-3.32-11.84-9.28-14.48-15.06-2.63-5.78-4.51-11.56-7.9-19.44-3.38-7.89-.95-12.79.56-30.13,1.5-17.34,2.64-30.83,5.08-40.1,2.44-9.29,9.97-50.62,12.03-61.31,2.08-10.68,11.67-54.12,12.42-60.95.74-6.83,1.32-12.09,2.82-18.92,1.5-6.83.57-20.67.57-21.37s-.57-1.22-2.65-7.71c-2.06-6.48-5.45-9.11-10.15-11.91-4.7-2.81-9.6-6.31-13.35-8.94-3.77-2.62-8.29-6.31-12.04-11.03-3.77-4.73-7.34-14.36-9.22-18.4-1.88-4.02-8.84-17.68-15.23-27.14-6.39-9.46-6.77-9.64-9.97-19.63-3.19-9.98,2.82-10.15,3.95-15.76,1.12-5.6,4.89-11.21,9.03-19.08,4.13-7.89,9.59-10.16,12.79-17.17,3.19-7.01.75-7.01-.38-13.84-1.13-6.83.38-5.77-1.7-9.46-2.07-3.67-3.18-8.22-5.07-9.45-1.88-1.23-4.7-2.11-6.39-.17-1.69,1.92-4.7,7.52-6.58,7.88-1.88.35-2.64-1.76-3.76-2.98-1.13-1.22-6.58-1.22-7.71-2.45-1.13-1.22-3.94-1.41-5.82-2.27-1.89-.88-9.23-4.74-11.29-6.48-2.07-1.75-4.7-5.96-4.7-10.51s-3.94-6.31-12.78-12.61c-8.85-6.31-12.61-7.19-23.34-9.82-10.72-2.62-15.04-10.15-18.62-12.25-3.57-2.1-3.19-4.38-11.1-3.51-7.9.88-17.49-3.51-23.52-5.95-6-2.46-16.74-4.2-21.26-7.18-4.5-2.98-12.39-4.04-15.79-11.21-3.39-7.19-2.83-4.38-1.5-10.68,1.31-6.31-7.72-11.56-13.17-17.51-5.45-5.96-9.59-6.83-12.41-14.19-2.83-7.36-6.95-7.01-12.41-12.26-5.46-5.26-5.65-11.92-7.9-17.87-2.25-5.95-17.29-14.54-17.29-14.54,0,0,3.94,9.99,5.63,14.02,1.69,4.03,5.64,13.66,10.16,20.85,4.51,7.18,8.47,8.93,12.6,16.11,4.13,7.18.19,11.56-1.32,8.76-1.5-2.81-7.52-4.04-7.52-7.36s-1.5-5.43-2.82-8.05c-1.31-2.63-7.14-5.61-12.79-10.17-5.64-4.55-9.58-6.65-6.02-6.65s8.66,3.32,7.71,1.22c-.94-2.1-7.33-8.58-10.34-13.14-3-4.56-3.96-9.63-6.96-17.34-3.01-7.71-14.1-15.07-19.56-15.59-5.45-.53-6.95-3.15-8.83-8.76-1.88-5.61-2.26-11.56-4.71-15.94-2.45-4.37-12.98-19.08-13.16-24.69-.2-5.61-3.2-21.9.56-31.01,3.76-9.1,2.82-29.42,2.26-33.46-.56-4.02-7.34-11.73-7.34-14.71s3.96-1.22,6.97-.36c3,.89,9.39,3.51,9.39,3.51,0,0-4.88-9.1-7.89-12.25-3.02-3.16-11.86-7.19-15.8-8.06-3.96-.87-9.03-2.27-11.1-5.6-2.07-3.33-4.32-7.71-5.84-10.52-1.5-2.8-7.91-6.12-9.39-9.1-1.51-2.98-1.13-8.76-3.2-11.73-2.07-2.98-5.09-4.73-8.48-3.51-3.39,1.22-4.5-1.75-7.14-6.14-2.64-4.37-8.47-6.47-10.16-7-1.69-.53-7.52-8.24-7.9-10.16-.37-1.93-9.6-12.09-12.6-14.19-3.02-2.11-32.17-11.56-32.91-11.56s-9.23,1.22-11.48.53c-2.26-.7-9.97-7.36-13.91-8.76-3.96-1.41-6.79,1.57-8.66,5.95-1.89,4.37-11.1,11.91-16.18,15.23-5.08,3.34-9.22,3.69-8.85,1.93.38-1.75.19-4.56,1.89-8.76,1.69-4.2,2.63-5.43,7.89-8.05,5.28-2.63,5.08-2.8,3.02-2.63-2.07.17-3.58-.35.56-2.79,4.13-2.46,5.83-2.81,5.64-4.91-.19-2.1-9.03,2.81-14.68,7.36-5.65,4.55-9.01,7.71-13.91,15.76-4.89,8.06.56,5.08-3.58,10.34-4.13,5.26-18.24,15.94-22.38,19.97-4.14,4.03-21.25,12.96-28.22,15.07-6.96,2.1-9.77,2.98-13.16,5.78-3.39,2.79-11.84,3.67-9.03,1.75,2.83-1.93,8.09-6.32,11.67-8.42,3.56-2.1,13.16-5.95,15.98-7,2.83-1.06,10.72-5.96,14.68-10.34,3.94-4.38,6.58-9.46,9.21-13.66,2.63-4.21,3.2-6.14-2.25-4.38-5.47,1.75-11.1,1.05-13.92,0-2.82-1.05-10.16,3.32-12.79,1.41-2.63-1.93.19-5.96-1.51-7.89-1.68-1.93-7.52-.69-11.28-1.41-3.76-.7-9.02-3.67-9.02-8.93s-3.76-9.81-1.7-13.83c2.08-4.03,5.09-5.09,8.47-7.35,3.38-2.28,12.78-5.26,14.67-5.26s4.52-1.93,6.21-3.68c1.7-1.75-3.95-8.06-3.95-8.06,0,0,.94-.69,3.2-2.1,2.26-1.4.57-4.37-3.39-3.85-3.95.53-12.41,4.56-17.68,5.95-5.26,1.41-12.4.53-12.22-1.74.19-2.27,1.31-3.68-.56-5.43-1.87-1.75-3.39-3.68-1.51-4.55,1.89-.88,13.55-7.36,13.55-7.36,0,0,4.13,4.55,8.65,5.08,4.51.53,14.1-7.88,14.1-7.88-6.01-3.68-4.7-4.73-4.7-4.73,0,0-9.78-.17-12.04-1.58-2.25-1.41-3.01-4.2-3.57-6.65-.56-2.46-10.15-4.38-7.52-8.42,2.63-4.02,7.52-5.43,10.72-9.45,3.2-4.03,6.02-11.57,15.24-15.77,9.22-4.2,20.32-8.05,25.2-11.56,4.89-3.51,7.14-.17,9.03.35,1.88.53,13.54-.51,18.05-.51s5.27,5.07,6.77,6.29c1.5,1.23,41.2,2.46,41.2,2.46,0,0,33.65.53,40.43,2.46,6.77,1.93,18.99,7,18.99,7,7.43-.96,6.78-9.99,11.38-9.99Zm452.26-203.17s-3.39,14.02-16.92,17.87c-13.55,3.85-38.38,14.71-39.51,15.41-1.13.7,1.51,8.4,4.89,12.25,3.39,3.85,6.58,6.48,9.59,10.34,3,3.85,8.28,3.51,12.42,7.53,4.13,4.03,7.14,2.62,18.43,2.8,11.29.17,8.28,1.05,20.88,1.75,12.6.7,25.77,1.75,30.1,5.61,4.32,3.85,10.53,18.92,14.48,28.02,3.95,9.1,10.92,24.17,10.92,25.58s-4.33,12.44-4.33,14.18,2.26,4.73,4.33,7.19c2.06,2.45.93,4.38.55,6.65-.37,2.28,2.26,8.06,2.64,8.77.38.69,6.01-5.61,9.59-6.66,3.57-1.05,12.42,6.31,12.42,11.39,0,11.51,3.13,7.59-15.61,21.19-2.47,1.79-4.89,15.59-3.01,22.23,1.88,6.66,6.39,14.54,9.96,24,3.57,9.45,14.11,22.76,17.49,28.9,3.39,6.14,4.33,14.54,11.85,16.47,7.52,1.92,14.68,4.55,20.13,5.77,5.46,1.22,9.03,2.98,11.66-2.1,2.65-5.08,7.9-24.34,12.24-38.36,4.32-14.02-.39-18.22,9.77-21.37,10.15-3.15,26.33-9.46,30.65-11.39,4.33-1.93,3.58-15.76,13.17-20.32,9.6-4.55,10.91-4.19,20.31-7.18,9.41-2.98,22.57-8.93,31.98-15.59,9.4-6.66,12.03-3.15,15.42-9.29,3.39-6.13-3.39-15.07-4.13-24.17-.75-9.1,3.01-9.63,4.88-17.87,1.89-8.23,2.83-13.66,10.16-19.27,7.34-5.61,11.28-8.75,9.97-14.01-1.32-5.26-5.08-13.14-5.08-18.92s1.32-2.45-1.7-10.5c-3.01-8.06-3.01-9.11-.2-16.64,2.84-7.53,10.35-5.6,9.79-8.94-.57-3.32-12.04-8.4-12.22-17.69-.19-9.29,2.07-12.08,3.94-14.36,1.88-2.28,21.07-17.51,22.38-18.92,1.32-1.4-.37-5.25,9.03-9.81,9.4-4.55,12.6-7.53,16.17-8.93,3.58-1.41,9.22-1.22-1.7-4.38-10.91-3.15-13.35-4.55-20.5-3.67-7.14.88-9.58,4.9-22.38,6.14-12.79,1.22-27.28,7.18-27.28,7.18,0,0,4.33-3.85.57-7.54-3.76-3.67,9.78-15.76,12.05-17.17,2.24-1.39-17.69-6.3-28.04-8.22-10.34-1.93-30.65-8.06-42.31-7.19-11.67.88-28.78.71-34.61,2.63-5.83,1.93-5.07,9.46-11.66,9.82-6.58.35-18.8-3.85-28.21-2.46-9.4,1.41-24.46,7.89-26.15,8.24-1.7.35,5.84,4.9,10.72,5.95,4.89,1.06,11.28,11.21,11.28,11.21,0,0-13.16-4.38-26.52-8.06-13.36-3.68-28.97,0-34.42,1.58-5.46,1.57-12.6,4.55-23.51,5.08-10.92.53-23.32,9.46-29.53,13.66-6.21,4.2-25.58,15.41-30.47,18.04-4.89,2.63-3.01,3.85,2.26,5.26,5.26,1.4,10.91,2.27,10.91,2.27Zm-278.74,144.79c1.5,6.42,1.5,15.65-2.02,11.68-3.51-3.97-6.39-12.03-12.03-8.76-5.64,3.27-11.78,2.35-10.78,1.64,1-.7-.12-4.21-3.02-5.26-2.87-1.05-4.63.59-7.63,2.34-3.02,1.75-12.54,4.08-8.66,1.04,3.89-3.03,2.63-4.66,1.25-8.17-1.37-3.51-11.29,2.45-16.55,6.19-5.26,3.73-8.39,9.45-11.53,13.3-3.13,3.85-.88,6.32,3.89,7.71,4.77,1.41,12.42,2.34,6.02,4.68-6.38,2.33-11.29,3.96-8.02,5.95,3.26,1.98,8.91,2.33,14.55,1.63,5.65-.7,10.41-2.21,19.44.24,9.03,2.45,14.41,2.33,14.41,2.33,0,0-3.38,2.1-9.4,3.16-6.02,1.04-17.06,0-22.71,1.04-5.63,1.06-14.54,2.56-12.28,4.67,2.25,2.11,4.01,5.37,11.78,7.82,7.77,2.46,9.16.12,13.79,1.28,4.65,1.17,2.14,6.43,3.39,7.24,1.26.82,10.04-.7,18.81-2.33,8.78-1.64,5.52-3.04,12.42-4.8,6.89-1.75,7.14-7,11.15-8.17,4-1.17,1.13,2.69,5.89,3.85,4.77,1.17,2.13,1.52,7.28,2.34,5.14.82,4.13,2.8,9.15,2.45,5.02-.35,10.91-3.73,10.15-4.32-.74-.58-1.51-2.1-.99-4.43.5-2.33-5.04.46-7.03,1.64-2.01,1.17-1.88-3.16,2.37-5.26,4.28-2.1,8.05,0,10.54,0s.26-7.24-4.27-8.4c-4.52-1.17-6.52-3.98-13.3-7.71-6.76-3.74-3.26-5.37-5.26-10.27-2.01-4.91-6.28-19.4-10.04-21.96-3.75-2.57-7.77-1.87-11.53-4.43,0,0-.75,3.61.75,10.04Zm-104.08-9.92c1.64,4.66,1.88,1.74-1.38,6.88-3.26,5.14-1.38,7.01-3.64,10.87-2.25,3.85-8.27,9-6.39,11.56,1.88,2.56,7.9,4.08,10.41,6.07,2.51,1.98,5.01,6.07,9.52,4.56,4.52-1.52,6.02-2.57,9.16-4.21,3.14-1.63,5.77-3.5,5.64-7.59-.12-4.08-.25-6.06,1.02-5.71,1.25.35,3.25,2.22,4.25-.47,1.01-2.68,2.76-6.19,4.89-8.29,2.13-2.1,8.27-4.21,11.15-6.66,2.89-2.46,7.78-5.13,9.15-7.24,1.39-2.12-2.51-3.74-4.89-4.68-2.38-.93-5.14-4.66-10.66-4.66s-8.52,4.2-8.28,2.33c.26-1.87-3.76-2.8-6.01-3.62-2.27-.81-4.39-2.1-11.54-1.28-7.14.82-10.13,1.29-15.8,2.92-4.89,1.4,1.76,4.55,3.39,9.23Zm163.26,55.93c-.74,1.04-4.01,2.1-6.01,4.43-2,2.33,4.26,1.06,6.26,1.75,2.01.7,3.51,2.68,5.14,3.27,1.64.58,10.41.93,14.05-.83,3.63-1.75,4-2.33,3.63-3.14-.38-.83-7.52-7.82-12.79-10.63-5.27-2.8-5.39-2.91-6.52-2.22-1.12.69-3.01,6.3-3.76,7.36Zm-23.71-54.65c-3.4,1.69-5.87,3.73-.12,6.66,5.76,2.91,7.65,5.37,11.53,7.82,3.89,2.45,5.51,9.46,13.67,6.31,8.14-3.15,11.41-6.89,12.55-10.16,1.11-3.27-1.14-3.97-3.14-7.01-2.02-3.03-2.51-4.32-6.65-3.85-4.14.47-5.52.47-5.52.47,0,0,2.76-3.51,7.28-5.72,4.51-2.22.74-3.74,2.88-5.84,2.14-2.1-5.38-3.15-8.64-2.34-3.27.83-3.39-.23-8.78-.46-5.39-.23-13.92,4.67-13.55,6.42.38,1.75,4.39,1.06,8.15,3.16,3.76,2.11,4.89,1.87,1.13,7.82-3.75,5.95-5.76-1.4-7.02-2.34-1.25-.93-.25-2.68-3.77-.93Zm-24.06-10.74c-5.63.53-7.53,4.43-5.39,5.02,2.13.59,3.51-.59,6.89,3.03,3.39,3.62,6.4,5.61,7.77-.35,1.38-5.95-.62-8.53-9.27-7.71Zm-90.54-45.2c-6.28,5.03-7.52,9-12.4,12.15-4.89,3.14-3.77,5.84-2.13,7.57,1.63,1.76,6.52-.11,8.77-1.27,2.26-1.17,4.13-4.08,5.52-2.33,1.38,1.75,7.15-5.95,9.41-8.53,2.26-2.56,5.76-5.25,6.4-5.13.63.12-2.15,3.03-1.13,5.48,1,2.46,5.51,2.57,9.53-1.63,4.02-4.21.38-8.06,3.51-11.33,3.13-3.27,5.76-2.81-.37-5.73-6.14-2.92-10.04.36-11.3,1.88-1.25,1.51-3.51-.94-15.8,8.86Zm38.24,7.95c-3.56.16-5.14.7-11.03,3.27-5.89,2.57-8.4,9.23-9.77,12.85-1.39,3.62.62,3.62,6.02,5.72,5.38,2.1,12.92-.58,14.66-5.61,1.76-5.03,3.9,1.17,2.89,3.74-1,2.56,3.76.23,6.02-.94,2.26-1.16,9.02-1.63,9.53-1.63s-5.52,4.56-11.42,6.54c-5.89,1.98-10.65,3.03-12.29,3.27-1.63.24,1.52,2.69,8.4,4.09,6.9,1.4,11.04-4.21,20.95-7.95,9.9-3.73,9.4-4.44,12.66-3.5,3.27.93,6.77-1.64,10.78-2.58,4.01-.93,5.64.6,7.41-5.37,1.75-5.95,4.88-11.68-.76-12.03-5.65-.35-6.02-.35-6.77,6.08-.75,6.42-1.26,2.46-1.26,2.46,0,0-3.76-5.61-6.02-8.53-2.25-2.91-3.89-7.47-6.39-9.92-2.51-2.45-3.64,1.05-7.53,5.37-3.89,4.32-.75,5.95,3.13,7.82,3.89,1.87,6.65,6.66,4.77,7.94-1.88,1.29-4.02-.23-11.16.59-7.15.82-6.9-2.22-8.91-3.15-2.01-.94,3.38-2.92-4.28-6.07-7.63-3.16-7.13-2.58-9.65-2.46Zm-23.19,6.08c.79-1.36-9.52,6.07-11.09,8.46-1.57,2.39,1.57,1.98,4.7,1.87,3.13-.12,3.76-5.84,6.38-10.33Zm19.82-15.48c-2.58,1.16-2.58,2.04,1.62,2.51,4.21.47,6.66-1.4,5.77-3.15-.87-1.75-5.33-.29-7.39.64Zm21.38-22.18c-2.75.45-10.91,3.32-11.35,4.71-.44,1.41.07,4.44,1.32,6.84,1.26,2.39,1.7,2.75,8.71.88,7.03-1.87,11.86-5.49,9.53-6.14-2.31-.64-3.75-1.69-5.81-1.98-2.08-.3,1.81-1.41,6.45-2.86,4.64-1.45,6.21-3.98-8.84-1.45Zm-23.76,3.67c-1.99.91-2.7.93,1.44,2.51,4.13,1.57,8.59,1.46,8.02.17-.55-1.3-3.89-5.27-9.46-2.69Zm16.17-11.5c-3.92,1.55-4.81,4.37-5.7,5.48-.88,1.12,4.45-.81,6.89-1.4,2.46-.59,3.01.87,5.4-1.23,2.38-2.1,7.09.07,11.35-.88,4.26-.93,4.95-3.73,4.01-6.18-.94-2.46-10.72-.24-21.95,4.2Zm42.51,10.57c-1.16.55-.75,2.39.26,4.56,1,2.15,1.26,1.63,3.38,2.45,2.13.82,4.26,2.51,4.76,3.03.51.53.81.7,1.7-1.4.88-2.11-.44-1.75-2.82-4.56-2.38-2.8-4.26-5.55-7.28-4.08Zm14.49,18.33c-3.25-.88-5.08.99-6.28,1.57-1.19.59.63,1.93,1.45,4.43.8,2.52.12,3.34,4.89,3.69,4.76.35,6.21-.53,6.58-3.56.38-3.03-3.63-5.31-6.64-6.13Zm18.5,5.49c-2.95-2.17-4.39-3.92-7.4-2.69-3,1.22-.5,2.74-.5,3.56s3.64-.12,3.7,1.87c.06,1.98,1.18,2.8-3.2,3.03-4.38.23-5.59.06-7.28,1.34-1.68,1.28,3.27-.17,4.77,1.81,1.5,1.98,4.08,2.22,8.27,1.58,4.21-.64,9.91-1.58,9.91-1.58,0,0-3.07,2.91-4.32,4.96-1.25,2.04-1.75,4.96.44,6.42,2.2,1.47,2.45-1.5,8.53-1.63,6.08-.12,7.9-3.27,7.9-3.27,0,0-1.38-1.35-1.19-4.38.19-3.03-.07-3.74-.07-3.74,0,0,2.46,1.75,3.01,2.46,0,0-.44-1.81-1.31-5.09-.88-3.26-.18-3.51-1.13-7.94-.94-4.43-.75-5.38-5.33-5.26-4.58.12-7.72,1.7-11.49,1.7s-5.39.69-2.62,2.1c2.76,1.4,3.14,3.09,4.45,4.66,1.32,1.58,1.07,5.37,1.13,5.2.06-.17-6.27-5.13-6.27-5.13Zm-22.89,16.64c-.07.02-.13.06-.2.08-1.91.94-2.56,3.06-2.69,4.53-.12,1.52,2.51.64,6.71-.82,4.19-1.46,2.13-5.71-3.83-3.8Zm59.19-7.94c-3.49,1.89-6.27,4.43-8.28,6.71-2,2.27-.25,2.56,4.95,5.19,5.21,2.63,10.78,3.15,13.22.41,2.45-2.74-1.12-17.11-9.9-12.31Zm24.19-20.37c-6.67.66-4.61,1.65-12.32-.88-7.71-2.55-17.4-2.81-20.03-2.81s-1.41,1.23,1.32,5.71c2.72,4.46,3.47,6.04,9.12,4.63,5.65-1.41,10.25-2.36,14.39,3.59,4.13,5.96,6.3,7.81,2.91,9.99-3.39,2.19-1.79,5.69.19,10.25,1.98,4.55,6.48,4.37,12.79,4.37s46.17-.6,52.38-1.74c6.2-1.14,11.75-6.39,15.05-8.76,3.29-2.36,5.08-6.04.56-8.76-4.52-2.71-10.92-5.25-15.99-5.25s-9.4,2.63-17.12,3.41c-7.71.79-6.01,4.47-12.97,4.65-6.97.17-3.58,3.24-12.14-.27-8.55-3.51-14.86-7.89-10.8-8.5,4.03-.61,7.33-1.13,5.07-3.06-2.27-1.93-6.21-7.19-12.42-6.57Zm-79.74-32.58c4.13,1.4,5.18,2.45.56,3.67-4.61,1.22-8.19,4.47-3.57,3.85,4.61-.61,8.56.44,14.48,1.41,5.94.96,5.45.35,8.09,3.68,2.65,3.32,5.46,3.32,9.51,2.36,4.03-.97,4.6-1.23,1.98-4.13-2.64-2.89-5.37-8.22-8.94-10.33-3.58-2.1-6.58-5.09-10.16-4.72-3.57.35-4.42.43-7.52-3.77-3.1-4.2-5.54-2.2-10.06-1.06-4.51,1.14-5.95,4.37-7.71,5.79-3.57,2.89,9.22,1.84,13.35,3.24Zm54.18-42.91c-4.89,6.13-8.85,11.3-3.31,11.91,5.56.61,8-.44,8.38,1.32.38,1.74-.94,2.97-9.22,2.97s-5.73,1.84-1.13,7.27c4.61,5.43,5.09,3.59,12.13,3.41,7.05-.17,9.4-2.72,15.24-1.22,5.83,1.49,7.62,2.98,2.35,4.55-5.28,1.57-17.69,4.55-14.86,7.18,2.82,2.63,11.57,8.93,15.52,9.55,3.95.61,4.79-2.63,13.35-1.67,8.56.97,6.49,1.84,7.42-.52.94-2.36,5.65-8.4,6.58-10.6.94-2.18,3.3-3.59,8-4.64,4.71-1.05,6.21-2.54,1.79-4.12-4.41-1.58-9.4-2.27-8.93-3.5.46-1.23,3.2-4.82,1.31-6.66-1.88-1.84-4.88-1.75-7.33-2.71-2.43-.96-5.17-5.42-8.28-7.35-3.09-1.93-5.82-2.11-9.59-4.99-3.75-2.89-9.77-9.94-17.3-9.54-5.07.26-7.24,3.23-12.12,9.37Zm-9.61,51.23c-1.88.96-6.57,1.13-3.09,4.02,3.47,2.89,2.54,2.98,6.95,1.32,4.43-1.67,10.82-5.79,11.39-7.01.55-1.22-4.42-3.59-7.81-4.64-3.38-1.05-5.73-3.76-12.79-5.7-10.25-2.79,7.24,11.03,5.36,12.01Zm230.1-91.11c-7.77-2.11-35.61-7.48-44.63-5.38-9.03,2.11-8.53-4.66-21.07-3.03-12.54,1.63-31.84.7-37.86,1.63-6.01.94,3,3.51,6.27,5.61,3.26,2.1-15.54-2.33-29.85,1.64-14.29,3.97-23.57,6.07-8.26,11.91,15.29,5.84,17.3,7.47,17.3,7.47,0,0-19.56-3.51-27.84-6.77-8.28-3.27-3.75-3.03-19.32,1.4-15.54,4.43-30.59,6.78-29.83,11.44.74,4.67,12.54,10.98,20.31,12.61,7.77,1.64,23.83-2.33,25.09-2.8,1.25-.46-6.28,6.31-6.28,6.31,0,0,8.02-1.64,17.05-3.98,9.03-2.33,16.05-4.89,24.58-7.94,8.53-3.03,10.03-3.97,10.03-3.97,0,0-14.79,11.45-25.08,15.41-10.28,3.97-23.58,6.55-29.84,6.78-6.27.23-5.28,4.2,1,7.47,6.27,3.27,11.03,10.27,14.3,12.6,3.25,2.35,3.76,6.08,3.76,6.08,0,0-9.78-7.71-20.56,0-10.79,7.7-9.29,11.68-6.52,12.61,2.75.93,12.29,1.87,14.04,5.13,1.76,3.27,14.3-3.03,14.3-3.03,0,0-6.26,7.94-12.29,7.94s-5.76-5.13-14.55-4.2c-8.78.93-8.28,3.04-4.51,6.07,3.75,3.04,6.77,3.98.25,7.01-6.52,3.03-9.53,3.97-9.78,7.71-.26,3.74,8.53,3.74,14.04,3.74s10.78-.48,20.82-.7c10.02-.24,8.77-3.51,12.54-3.51s7.52,1.17,6.02,4.9c-1.5,3.74,1.5,1.41,12.54-2.56,11.02-3.97,6-10.05,5.27-12.15-.75-2.11-4.77-2.8-7.28-3.97-2.51-1.17,7.52-11.45,6.01-14.94-1.49-3.51,12.3-.71,18.56-8.88,6.28-8.17,4.02-14.25-.5-15.64-4.51-1.41,8.28-.46,12.29-2.81,4.02-2.32,12.8-5.13,16.31-9.57,3.51-4.44,4.76-6.08-3.75-5.14-8.53.93,12.27-3.74,22.31-10.29,10.03-6.53,21.57-14.24,24.07-16.11,2.51-1.87,4.78-.94-7.02-.23-11.78.69-25.83-.93-18.05-1.87,7.77-.93,30.85-3.74,36.87-8.17,6.01-4.45,8.76-5.84,8.76-5.84Zm-140.43,162.07c-12.55-1.17-30.84-4.2-34.61,6.53-3.77,10.75-9.53,34.58-10.03,39.01-.5,4.43,15.05,10.97,25.83,11.44,10.78.47,28.35,1.17,24.83-1.4-3.52-2.56-.5-3.97,9.53-3.51,10.03.47,11.04-2.1,11.04-4.2s1.75,2.56,8.77,6.3c7.01,3.74,13.05,14.26,19.32,20.32,6.26,6.07,20.31,14.24,17.55,18.92-2.77,4.66,3,21.02-18.57,24.76-21.56,3.73-22.81,1.16-22.56,6.07.25,4.9,1.24,7,9.77,7s20.32-7,24.33-1.87c4.02,5.13,9.53,7,13.05,8.18,3.51,1.17-4.27,3.26-6.28,3.97-2,.69,4.27,1.4,16.55,7.23,12.29,5.84,27.08,6.54,19.8,2.34-7.27-4.21-10.77-11.91-14.04-14.49-3.26-2.56-.25-.46,5.52.94,5.76,1.4,11.03,6.07,13.54,8.17,2.51,2.1,3.76-.69,5.52-8.88,1.75-8.17-.74-8.17-10.53-14.7-9.77-6.54-12.78-11.68-13.79-16.36-1-4.67,5.02-5.61,7.53-8.88,2.51-3.26,9.53,5.85,14.3,11.21,4.76,5.38,8.77,14.72,12.54,7.95,3.75-6.77,7.26-21.95,7.26-25.46s-3.75.23-19.8-7.71c-16.06-7.94-24.34-10.97-25.83-10.97s4.26-3.03,11.29-6.54c7-3.51,10.02-3.03-5.03-17.28-15.05-14.25-19.31-17.28-29.09-18.22-9.78-.93-12.54-11.21-19.56-14.71-7.02-3.51-23.33,4.2-28.1,5.37-4.75,1.16-3.26,3.03-9.28-5.61-6.01-8.65-10.77-14.95-10.77-14.95Zm11.28,0c-6.23.74,3.76,12.14,11.78,12.62,8.04.46,14.8-3.51,16.55-3.98,1.77-.47-18.56-9.82-28.34-8.64Zm-28.15,115.83c-1.05,2.55-3.58,9.64-3.95,14.37-.38,4.73-1.13,5.42-2.07,8.4-.93,2.98,3.01-.52,5.65,3.85,2.62,4.38,1.49,5.61,6.2.53,4.7-5.08,9.97-6.83,16.55-4.73,6.59,2.1,11.67,2.98,9.41-1.04-2.26-4.04-5.27-3.69-9.78-9.11-4.52-5.43-7.9-6.83-13.54-8.94-5.65-2.1-6.22-8.76-8.47-3.33Zm47.32,409.22c-1.94-4.05-4.86-10.62-17.06-12.88-12.2-2.27-16.31,2.27-20.82,3.79-4.51,1.52,4.21,2.26,10.01,0,5.8-2.27,10.22-.49,11.01.55.77,1.05-1.96,1.68-2.94.57-1-1.11-1.18,2.72,5.37,5.09,6.56,2.37,8.15,3.5,8.81,6.31.66,2.81.6,4.32,2.09,6.66,1.5,2.35,2.06,3.34-.69,4.37-2.77,1.04-1.79.89.24,2.15,2.03,1.25,6.1,3.34,11.86,3.82,5.73.49,7.62,1.55,3.64-3.69-3.99-5.25-10.92-15.46-11.53-16.74Zm18.22,25.65c3.17,3.26,2.26,6.8,2.03,8.67-.22,1.87-3.65.42-9.95-1.24-6.29-1.67-5.33-.85.14,2.1,5.47,2.96,9.01,2.23,8.77,6.17-.24,3.94,5.03.36,7.35-1.92,2.32-2.28,2.17-.26,11.89,1.21,9.74,1.47,11.73,3.23,10.18-1.04-1.56-4.27,4.46-3.92-4.18-7.99-8.64-4.08-29.84-9.66-26.24-5.95Zm-27.69,2.43c-3.66-4.05-8.24-4.64-8.28-1.19-.05,3.45,1.24,3.24,4.61,4.18,3.41.94,6-.41,3.66-2.99Zm70.64,17.57c-3.98-1.37-4.8,1.63-2.15,4.13,2.65,2.48,6.71,1.63,10.72,1.44,4-.18-1.62-3.18-8.57-5.56Zm-45.76-488.76c-5.28,2.22-8.37,3.76-3.76,9.81,4.61,6.04,7.34,9.81,9.11,5.43,1.79-4.38,3.58-19.01-5.35-15.24Zm-42.22,64.84c-7.95,1.28-10.54,1.51-9.29,5.96,1.26,4.43,3.39,3.73,8.77,1.04,5.4-2.68,9.16-8.4.51-7Zm16.55,6.77c-1.36.41-1.75,3.51,0,6.3,1.75,2.81,5.13-.93,6.65-4.32,1.5-3.39-1.63-3.51-6.65-1.98Zm-86.77-215.55c-7.52.25-18.81,2.91-12.54,3.03,6.27.12,11.42,1.41,21.58.83,10.15-.59,11.15-1.29,11.4-6.19.25-4.9-6.64,1.87-20.44,2.34Zm-47.02-41.22c-7.67,2.38-5.77,3.97,3.25,7.94,9.03,3.98,9.29,2.1,8.28-5.37-1.01-7.48-7.02-3.97-11.53-2.56Zm536,195.45c-9.5,2.65-12.68,1.07-14.49,5.89-1.81,4.8-5.52,2.23-7.67,2.83-2.14.6-5.18,14.04-6.69,12.04-1.52-2-2.05-3.09-4.24-7.71-2.18-4.62.72-3.8-3.46-8.67-4.18-4.87-12.44-4.32-13.02-2.32-.58,2,5.71,3.67,3.57,5.92-2.15,2.27-7.25,5.03-9.19,6.66-1.94,1.63,3.72.92,7.28.08,3.55-.84,5.99,2.67,7.44,5.15,1.45,2.49-1.63,4.9-3.17,6.11-1.53,1.22,5.17.92,7.85,1.41,2.69.5,4.08,2.75,2.26,5.79-1.84,3.03,7.97.43,13.4.12,5.42-.31,6.85,3.72,15.05,1.15,8.21-2.57,12.11-2.39,19.59-7.92,7.47-5.53,6.9-4.24,11.86-7.81,4.95-3.56,3.77-4.66,3.98-8.62.2-3.95,3.27,1.11,2.11-4.86-1.15-5.98-7.28-4.35-11.56-4.81-4.29-.47-4.13-3.82-6.28-4.88-2.13-1.07-4.98,1.78-14.61,4.47Zm634.84,514.48c-.41,1.42-1.01,3.03-1.01,6.19s-.37,6.55-.12,9.69c.25,3.16.44,5.37,2.19,6.08,1.76.7,2.95,1.4,5.84.06,2.89-1.34,5.58-3.74,4.14-7.36-1.45-3.61-4.14-8.58-5.71-11.26-1.56-2.68-4.57-6.07-5.32-3.39Zm-2.3-4.33c.31,1.34.74,1.06,1.37,1.98.62.93,1.32.12.44-1.11-.88-1.22-.77-1.37-.77-1.37,0,0-1.12-.38-1.12.73m270.83,186.16c-.04.14-.21.21-.31.33-5.15,5.21-9.83,3.75-18.68,6.5-9.02,2.8-24.64,11.91-25.77,15.94-1.12,4.02,0,4.55-1.12,4.02-1.13-.53-3.02-2.98-3.02-2.98,0,0-2.44,4.91-1.88,9.28.56,4.37,2.63,7,2.45,12.61-.19,5.61-2.26,8.93-2.07,12.78.18,3.86,6.57,11.21,8.28,15.78,1.69,4.55,2.82,3.32,3.75,11.56.93,8.22,5.27,12.78.93,17.16-4.32,4.37-7.52,3.5-2.25,8.05,5.27,4.56,9.6,7.53,18.05,4.56,8.47-2.98,6.22-5.61,12.8-7.01,6.57-1.39,7.9-2.8,13.54-3.15,5.64-.35,9.59.17,11.68-3.84,2.06-4.04.56-3.85,6.19-6.66,5.65-2.8,5.08-3.51,8.85-4.2,3.76-.69,6.2,1.93,11.28-2.1,5.08-4.03,1.32-4.38,12.6-4.38s16,1.59,20.13,2.98c4.14,1.41,10.91,5.08,12.6,7.71,1.7,2.63,3.95,5.79,4.7,5.79s1.7.17,4.33-2.46c2.63-2.63,10.15-7.88,10.15-7.88,0,0-.38,5.61-2.07,7.71-1.7,2.1-1.7,5.08-1.7,6.14s4.33-3.34,4.9-3.51c.56-.18,1.13,7.71,1.69,8.4.57.7,2.27.35,3.95,2.63,1.69,2.27,3.95,4.04,5.65,8.41,1.69,4.37,8.84,8.76,13.35,9.45,4.51.71,8.46.36,11.85-.17,3.38-.52,3.57-4.56,7.14-2.97,3.57,1.57-.18,4.89,8.28,4.2,8.47-.7,10.72-3.51,14.11-5.79,3.38-2.27,3.76,3.16,8.09-2.8,4.32-5.95,5.08-4.56,5.83-11.74.75-7.18.56-8.58,4.7-15.41,4.14-6.83,5.09-3.51,7.91-13.48,2.81-9.99,6.39-19.45,6.02-27.68-.38-8.24.17-2.8-1.7-12.1-1.88-9.28-.56-8.22-6.58-12.07-6.03-3.85-7.52-2.81-9.03-8.24-1.5-5.43.38-7.01-2.45-7.01s-5.27,1.22-6.95-2.45c-1.7-3.68-1.5-5.08-4.7-8.58-3.2-3.51-6.2-2.8-12.04-5.42-5.84-2.63-2.84-3.33-2.84-7.89s.33-9.39-4.32-11.5c-4.64-2.1-1.88,1.17-1.88-6.31s0-6.42-3.76-7.7c-3.75-1.29-5.02-1.17-7.4-5.73-2.38-4.55-5.52-12.02-6.64-15.05-1.13-3.04-2.51.35-4.02,2.56-1.51,2.22-3.64,7.12-3.64,11.68s2.01,7.13,2.01,13.2-4.26,12.14-6.9,15.65c-2.63,3.51-4.76.35-7.03-.59-2.25-.93-2.75-4.32-7.52-6.66-4.77-2.33-13.54-4.43-17.56-8.05-4.02-3.62-1.26-3.74,0-7.48,1.26-3.74,3.01-6.77,6.02-9.23,3.01-2.45,2.13-3.39-1.63-5.49-3.76-2.1-9.03-2.22-15.43-2.22s-10.15-.46-9.78,3.16c.39,3.62,4.13,5.01-1.24,3.97-5.4-1.06-10.04-1.52-12.42,1.04-2.38,2.58-2.89,4.1-4.27,9.58-1.38,5.48.38,5.83-1.88,5.83s-11.16-4.32-14.17-5.59c-3.01-1.29-4.63-1.17-8.15,2.1-3.51,3.26-15.68,13.89-20.19,16.45-4.52,2.57-4.28,1.98-8.85,16.36Zm-167.33-157.87c-2.66-.36-4.14-1.06-.88,3.14,3.27,4.21,4.14,5.03,7.28,7.95,3.13,2.92,4.27-2.11,6.65,3.5,2.38,5.61,1.5,5.72,3.89,7.82,2.38,2.1,4.39,2.7,5.01,4.8.63,2.1,1.38,5.37,4.14,7.71,2.76,2.33,2.76,1.98,4.38,6.53,1.64,4.56,4.14,7.82,5.4,11.68,1.25,3.85,8.4,7.47,12.03,12.15,3.64,4.67,9.79,11.44,10.79,9.58,1-1.87,3.63,0,5.52-.69,1.88-.7,2.51-3.39,3.76-9.93,1.26-6.54-1.13-9.57-2.89-11.1-1.75-1.51-5.01-1.86-5.88-3.27-.88-1.4-2.38-6.18-4.51-7.71-2.14-1.51-2.65.12-2.65-3.62s2.51-3.38-.62-5.48c-3.13-2.1-3.51-3.62-4.52-4.67-.99-1.05-7.76-2.69-9.53-4.56-1.74-1.87-9.14-5.26-12.66-8.76-3.51-3.49-7.4-6.3-8.52-8.86-1.13-2.57-4.65-4.68-16.17-6.19Zm72.97,75.31c-3,0-4.51-1.75-6.52,1.87-2,3.62-1.75,3.62,1.38,3.62s2.5,1.64,2.37,2.1c-.12.46-1.5-.35,4.89,2.22,6.39,2.56,10.92,1.52,12.67.58,1.75-.93,2.38,2.34,11.16,3.74,8.77,1.41,13.41-.81,19.05.59,5.65,1.4,4.28-.7.26-3.73-4.02-3.04-3.64-1.41-7.66-4.32-3.99-2.92-9.65-3.03-12.28-3.51-2.64-.47,2.25,2.8-5.76,1.75-8.04-1.04-5.14.71-9.29-1.98-4.14-2.69-4.14-3.15-6.9-3.62-2.75-.46-3.38.7-3.38.7Zm63.7,12.84c-2.26.7-6.9,1.99-4.76,2.92,2.13.93.49,1.52,7.14.93,6.64-.59,12.42-1.4,13.29-2.8.88-1.41-1.12-.46-3.89-1.29-2.75-.81-2.51.59-6.27,1.06-3.75.46-5.51-.82-5.51-.82Zm23.33-.47c-4.45.55-3.89,1.52-.38,2.58,3.51,1.04,6.77,1.5,9.4.81,2.63-.69,3.01-1.41,7.9-2.22,4.89-.82,6.52-.7,10.39-1.17l3.9-.46s-.38-.81-3.02-.69c-2.63.12-4.5.23-7.14.23s-7.14,2.33-9.03,2.22c-1.88-.12-5.51-1.28-6.39-.7-.89.59-.87-1.17-5.64-.59Zm25.08,5.72c-.07.03-.12.08-.17.12-3.1,2.12-3.23,2.71-2.95,4.4.27,1.7-.34,2.45-.34,2.45,0,0,4.56-.21,8.05-3.72,3.48-3.51,3.62-3.46,7.19-4.73,3.58-1.27,7.62-5.16,7.62-5.16,0,0-2.82.61-5.92.35-3.11-.26-6.16,1.62-7.15,2.45-.98.83.98,1.06-6.33,3.85Zm-26.21,1.84c-3.27-2.34-6.43-2.01-6.67-.57-.23,1.44-2.83,1.36,1.78,3.07,4.61,1.7,8.99,3.94,8.66,1.61-.33-2.32-2.35-3.11-3.76-4.11Zm-29.97-97.36c-1.89,2.69,1.75,1.98-1.01,4.32-2.75,2.33-4.88,1.28-7.63,4.78-2.75,3.51-6.91,5.95-8.66,7.24-1.75,1.29-7.41,2.79-9.91,6.19-2.51,3.38.88,5.25.88,5.25,0,0-1.51.7-5.52-.82-4.01-1.51-4.26-3.38-4.26-3.38,0,0-2.89-.11-4.51,4.2-1.64,4.32-2.52,4.78.36,7.36,2.89,2.56-1.99,2.68-1.37,4.43.62,1.75.64,5.03,2.38,5.37,1.75.35,2.13-1.64,4.28,1.05,2.13,2.69.37,10.27,3.12,10.63,2.76.35,4.76-.82,7.14.23,2.4,1.06,4.13,1.98,7.28.93,3.13-1.05,6.52,0,8.15.93,1.62.93,7.52,2.92,10.4,2.69,2.89-.23,3.38.47,3.89-3.62.5-4.08.13-7.94,3.64-11.09,3.51-3.16,3.64-3.16,3.89-6.08.26-2.92.26-5.95,2.39-8.99,2.12-3.04,3.38,1.75,4.51-.59,1.12-2.34,2.26-2.32,1.62-3.5-.63-1.17-3.89-1.17-5.14-3.39-1.26-2.22.38-3.39-1.13-7.94-1.51-4.55-2.37-2.8-.25-5.37,2.13-2.56,3.89-3.03,4.13-5.02.26-1.99,1.12-2.11,3.77-3.97,2.62-1.87-.42-.99-2.93-2.86-2.5-1.87-7.2-8.87-10.12-8.81-1.57.02-7.52,7.12-9.4,9.81Zm370.52,247.9c-1.21-.89-2.24-.23.52,3.03,2.75,3.27,3,2.33,4.75,2.45,1.75.12,3.27,6.55,4.26,8.19,1.01,1.63,2.89,3.61,2.89,3.61,0,0,1.02,7,.13,10.16-.88,3.15-2.76,4.55-3.38,7.48-.63,2.92,2.88,2.1,5.14,3.03,2.25.93,1.88.93,1,3.5-.88,2.57-3.51,3.74-3.51,4.21s5.14,3.38,7.78.23c2.62-3.15,6.76-7.82,7.9-11.2,1.12-3.39-2.02-1.88,1.62-4.32,3.63-2.46,3.13-1.29,5.02-4.32,1.87-3.03,3.88-6.18,1.75-7.82-2.13-1.64-4.51,1.98-6.41,2.69-1.87.7-3.38.82-6.01-.47-2.63-1.28-3.13-1.28-4.13-3.62-1.01-2.33-2.26-3.62-2.26-3.62,0,0-.76,3.97-2.63,2.69-1.89-1.29-1.39-2.69-2.76-4.91-1.38-2.22-1.38-2.92-2.27-4.55-.87-1.64-.12-4.8-4.51-5.26-4.38-.46-3.77-.35-4.9-1.17Zm.76,42.39s-3.51,3.03-6.64,7.35c-3.13,4.32-3.64,5.95-4.64,8.29-1,2.33-4.64,5.14-10.66,8.29-6.02,3.16-8.29,4.44-10.29,7.36-2,2.93-9.15,12.02-10.02,13.08-.88,1.04,3.37,2.1,7.77,2.1s11.28,3.97,15.04-.12c3.76-4.08,7.52-13.78,9.91-17.28,2.38-3.51,4.64-4.79,8.4-8.18,3.75-3.38,10.03-9.69,10.03-12.15s-1.63-6.42-1.63-6.42c0,0-1.38,2.68-4.65,2.33-3.26-.35-2.63-4.66-2.63-4.66Zm-29.57,44.85c-4.41-2.33-5.27,2.01-5.98,6.47-.72,4.46,1.9.67,5.73-1.34,3.84-2,1.93-4.23.25-5.13Zm-149.11-30.61c-4.96-1.65-4.13,3.04-3.38,6.54.74,3.5,1.75,6.31,3.64,9.22,1.88,2.93,8.9,3.97,11.67,2.69,2.75-1.29,4.75-5.61,7.52-9.7,2.76-4.08,4.01-8.76,3.51-11.2-.5-2.46-4.01,2.22-6.28,3.27-2.25,1.05-5.27,3.74-9.53,2.57-4.26-1.17-5.39-2.8-7.15-3.39Zm-62.44-250.7c-4.01.93-6.02-2.57-9.29-9.34-3.27-6.77-5.76-7.7-14.04-4.67-8.28,3.04-7.02,2.34-1.51,4.44,5.52,2.11,6.28,2.8,7.02,2.8s8.78,1.17,7.02,2.33c-1.76,1.17-9.28,2.33-4.51,5.61,4.76,3.27,2.76.93,15.31,7.24,12.54,6.3,14.55,1.64,18.56,9.81,4,8.17,4,6.77.74,8.88-3.27,2.1-7.53,4.2-5.76,4.43,1.75.23,5.02.93,13.54,1.41,8.53.46.5,5.37,10.03,5.37s12.04-3.03,15.8-7.47c3.76-4.44,4.51-2.1,12.54-.23,8.03,1.87,10.79,8.87,20.82,11.68,10.02,2.8,14.29,6.54,8.02.7-6.27-5.84-8.53-10.04-17.06-16.82-8.53-6.76-9.02-7.47-11.53-12.61-2.51-5.13-11.29-11.21-21.06-15.18-9.79-3.97-15.38-4.52-26.84-7.71-11.79-3.27-13.79,8.41-17.8,9.34Zm-65.98-23.35c-3.75,2.62-4.22,1.02-7.03-.72-2.81-1.75-2.03,3.63-8.28.72-6.25-2.92-8.58-4.37-15.31.59-6.72,4.94-2.5,6.98-2.66,10.47-.17,3.49-5.62,13.38-7.66,17.02-2.02,3.64-2.01,4.94-.46,7.28,1.55,2.32,3.75,1.45,4.69,2.61.93,1.16,0,10.33-1.1,13.38-1.09,3.06,2.66,3.64,6.57,2.76,3.91-.88.47-1.16.47-4.36s1.87-4.66,1.87-10.63v-8.72s1.1-.59,2.51,1.45c1.41,2.04,3.44,7.72,5.15,10.63,1.72,2.9,3.43,5.09,6.09,3.04,2.65-2.03,5.14-4.36,5.14-4.36,0,0-5.14-1.6-5.14-3.35s2.18-3.19-1.41-9.01c-3.59-5.82-5.46-6.11-.93-6.4,4.52-.3,4.37-4.8,7.02-6.11,2.65-1.31,6.41-.87,6.41-.87,0,0-2.66-2.76-6.71-1.6-4.06,1.16-7.66,1.74-11.1,3.64-3.43,1.89-6.41,3.06-7.03-.44-.62-3.49-1.08-4.36-.62-9.17.47-4.8,5.93-1.16,10-2.32,4.07-1.17,4.07-.88,12.97-.3,8.9.58,9.53-1.46,12.18-5.09,2.65-3.64,4.21-7.86,4.21-7.86,0,0-6.09,5.09-9.83,7.71Zm21.09-12.72c.79-1.46-6.52,5.01-7.9,6.3-1.38,1.29,0,3.15.99,5.03,1.01,1.87.76,8.28,1.13,9.68.38,1.4,4.14,2.69,4.14,2.69,0,0-.12-4.32,1.25-6.3,1.38-1.98,0-4.44,0-8.05s-2-5.03.38-9.34Zm-14.42,38.33c-5.76-2.2-7.91-.75-7.91,2.26s-.64,4.51,5.49,4.51,13.06-2.7,2.41-6.76Zm11.46-1.95c-1.41.45-2.9,4.96-2.09,7.66.79,2.71,1.77.91,5,.31,3.23-.6,2.73-3.15,6.76-3.46,4.04-.3,12.43,2.85,12.43,2.85,0,0,1.78-2.1-4.66-6.15-6.47-4.07-9.39-3.76-17.44-1.21Zm-114.72-148.54s-5.76.17-6.65.17-2.89,2.23-4.33,3.11c-1.45.87-1.44,2.09-.43,4.37.99,2.28,2.69,2.4,5.51,3.16,2.82.76,1.82-1.22,3.89-1.98,2.06-.76,2.63-2.63,3.08-4.32.43-1.7,1.81-2.46,2.32-3.04.5-.58-1.63-2.56-1.63-2.75,0-.16-1.76,1.29-1.76,1.29Zm67.9,8.11c-2.27-1.68-3.52,4.21-4.14,7.24-.63,3.04-1.38,5.03-.25,7.24,1.13,2.22.63,2.93.63,2.93l-3.27-2.47s-.88,2.81-.88,5.26-1.01,3.51,2.76,5.26c3.75,1.75,5.02.81,5.51,3.51.5,2.68.5,3.84,3.02,4.32,2.51.46,5.39,1.51,6.39,3.16,1,1.63.5-4.33,2.26-3.98,1.75.36,3.77,2.57,5.02,4.56,1.26,1.98,3.13,2.1,3.13,2.1,0,0-2.88-4.79-1.62-5.37,1.25-.58,1.62-1.04-1.64-3.03-3.26-1.98-5.89-1.51-8.39-1.87-2.51-.35-2.51,1.75-4.39-3.15-1.89-4.9-.37-7.94-.37-9s1.37,1.64,2.89-1.75c1.5-3.38,1.88-6.07,1.62-9.33-.25-3.27,2.26-4.56.37-4.67-1.89-.12-7.39,0-8.64-.93Zm29.83,62.75c.38,2.36-2.25-.66-3.24.7-.98,1.36-1.5,1.09-3.1,1.75-1.6.66-5.45,4.25-5.45,4.25,0,0-.05-2.31.04-2.84.09-.53-1.17-3.24-2.35-1.41-1.17,1.84-2.31,3.03-4.94,4.33-2.64,1.32-4.28,3.24-4.6,5.61-.34,2.36,1.6,2.28,1.6,2.28,0,0,1.03-.79,2.78-3.51,1.74-2.71,2.06-2.63,5.21-3.03,3.16-.38,2.91-.35,3.91,1.36.99,1.72.23,4.3.32,6.19.09,1.88-.09,4.15,3.14,5.25,3.26,1.1,1.7.09,4.66-.17,2.97-.26,2.92-.18,2.49-1.67-.42-1.49-1.32-2.79-1.51-4.55-.18-1.75,1.71-2.5,2.31-2.84.61-.35.99,1.75,1.89,3.94.89,2.2,1.27,2.1,1.64.44.38-1.66,1.41-5.6,1.03-7.71-.38-2.1-.56-3.72-.56-5.47s-1.46-3.85-2.31-4.47c-.85-.62-3.76-3.19-3.76-3.19,0,0,.43,2.41.79,4.77Zm-14.43-14.3s.07-1.49-2.65-4.16c-2.73-2.68-2.79-3.45-6.95-4.17-4.14-.71-8.3.36-6.55,4.82,1.75,4.46,2.27,5.11,5.78,5.65,3.5.53,5.64-1.37,5.64-1.37,0,0,.27.71-3.05,2.8-3.31,2.08-3.7,6.06-1.1,7.61,2.6,1.55,2.53,3.92,4.03,2.73,1.49-1.18,2.59-5.28,5.64-8.14,3.05-2.85,3.24-3.27,3.64-6.3.38-3.03.07-5.47.07-5.47l-4.48,6Zm7.1-8.56c-.38.3-2.55-.22-.29,1.97,2.26,2.18,4.32,2.67,4.04,4.28-.28,1.63-.09,1.93-1.36,1.75-1.27-.17-1.65-.48-2.22-.52-.56-.04-.65,1.05-.27,2.06.36,1.01.27-.13,1.36,1.57,1.08,1.71.8,2.28,1.13,4.25.33,1.97,1.17,1.01,1.17,1.01,0,0-.28-4.73-.14-5.69.14-.97-.38-3.29,1.22-2.55,1.6.74,1.17,3.56,2.12.93.94-2.63.52-4.95.06-7.05-.47-2.11-2.12-2.19-4.05-2.19s-2.77.18-2.77.18Zm-32.44,8.1c-.93.23-1.51,1.14-2.08,4.34-.57,3.19-2.36,4.86-4.28,6.74-1.93,1.88-7.16,6.92-7.43,7.93-.3,1-.34.39,3.57-1.46,3.9-1.84,7-4.28,7.46-6.78.49-2.5-.45-.96,2.99-2.58,3.43-1.62,1.69-2.15,1.83-4.7.13-2.53-.34-3.94-2.06-3.5Zm207.61,95.63c-.42,3.25.93,4.22-2.08,6.6-3.02,2.4-6.39,2.4-9.6,2.93-3.19.52-.86-.53-4.82-.65-3.95-.12-4.96.17-3.13,2.16,1.81,1.99,1.37,3.91,7.2,3.68,5.84-.23,10.66-3.38,14.43-4.55,3.76-1.17,3.45-4.21,3.76-5.61.31-1.41-5.33-8.06-5.76-4.56Zm16.29,7.01c1.61,2.29,1,1.94,3.07,4.96,2.08,3.03,5.34,3.56,7.78,4.38,2.44.81,0-.88-1.81-3.32-1.82-2.46-1.95-3.8-4.65-6.25-2.7-2.45-7.21-3.79-4.39.23Zm-211.78-196.35c-8.04,5.11-11.66,4.73-8.46,11.21,3.19,6.48,5.2,9.23,5.64,10.45.43,1.22,2.07-.82,4.25-5.95,2.21-5.14,2.46-11.86,3.33-13.89.89-2.05-2.01-3.57-4.76-1.82Zm137.62-251.93c.88,3.39,1.75,8.64-.25,9.22-2.01.59-3.39,4.32-3.89,8.19-.5,3.84-1.5,8.75.62,11.79,2.14,3.03.63,3.26.63,5.84s.75,9.1-.5,12.96c-1.25,3.85-2,4.79-1.5,8.87.5,4.08,0,4.9,0,10.75s-.37,10.5-.12,12.83c.26,2.35,1.5-1.16,2.37-1.98.88-.82,4.27-1.29,6.14.7l1.89,1.98s3,1.28-1.13-7.59c-4.14-8.88-4.89-7-3.76-15.07,1.12-8.05,1.75-8.17,6.01-9,4.27-.81,6.52,5.03,7.03,5.61.5.6-.38-1.98-1.89-6.53-1.5-4.56-2.89-6.07-3.38-11.79-.5-5.72-2.26-10.52-4.51-12.15-2.26-1.63-1.12-4.32-.12-6.54,1-2.22,1.38-5.61.89-9.46-.51-3.85-1.65-9.23-2.26-11.33-.64-2.1-3.14,1.28-3.14,1.28l.88,1.41Zm-3.76,89.45c.25,2.56.5,4.89-1.25,7.81-1.76,2.92-.5,3.62-1.5,7.71-1,4.08-5.9,0-5.9.83s-.75,3.74-2.01,4.78c-1.25,1.05-5.52,1.29-4.27,5.37,1.26,4.08,3.52,8.4,3.52,8.4,0,0,2.51-2.33,3.25-2.56.76-.23,2.76-.81,2.76-.81,0,0-.37-1.17-3.13-2.46-2.76-1.28-2.51-3.98-2.13-4.79.38-.83,3.89.23,6.14,0,2.26-.23,4.14-1.41,6.9.81,2.75,2.22,6.77,3.04,6.77,3.04,0,0,.5-3.28,1.74-5.61,1.26-2.33,4.9-1.29,8.53-2.33,3.64-1.06,6.39-1.64,5.14-3.16-1.26-1.52-1.13-4.9-1.89-7.47-.74-2.57-3.13-.12-5.01.82-1.88.93-4.26.23-6.77-1.4-2.51-1.64-7.02-7.82-8.65-10.28,0,0-2.51-1.28-2.26,1.29Zm-11.23,38.29c-1.19.59-2.72,3.68-2.44,7.09.28,3.41,3.19-.27-.57,10.24-3.75,10.51-5.65,12.87-9.31,15.6-3.66,2.71-7.04,2.71-8.46,2.01-1.41-.69.38-3.07,1.41-3.77,1.03-.69-3.21-.96-4.99-.69-1.79.26-.1,2.28-.29,3.94-.18,1.67-3.66,6.14-3.28,8.15.37,2.01.37,2.63-1.88,3.32-2.27.7-3.75-1.67-4.42-2.02-.66-.35-4.04.62-8.47,1.22-4.42.61-5.54,2.1-7.43,5.35-1.88,3.24-6.31,3.76-9.5,4.99-3.2,1.22-1.98,5.79-5.46,7.36-3.48,1.57-3.48,4.46-3.76,6.83-.27,2.36,2.16.7,2.54.53.38-.18.38-3.33,2.55-2.98,2.16.35,2.44.43,1.31,2.89-1.13,2.46-1.78,3.68-2.9,5.78-1.13,2.1.37,3.07,2.06,5.18,1.69,2.09,3.3-.62,6.86-4.38,3.58-3.77,3.86-4.65,3.58-8.94-.29-4.29-1.7-4.38-4.32-5.6-2.64-1.23-3.21,0-.29-3.34,2.91-3.32,4.23-.08,6.21-1.57,1.98-1.49,6.77-1.41,11.38-2.54,4.61-1.14,9.04-2.62,9.22-1.14.18,1.5,1.6,6.48,1.78,7.53.19,1.06,3.22-1.49,6.3-2.63,3.11-1.14.2-1.65-.09-3.67-.28-2.02,1.41-3.16,1.41-3.16,0,0,1.6,3.33,6.58.97,4.99-2.36,5.37-3.33,6.68-2.98,1.31.36,2.17,1.67,4.23.36,2.08-1.31,2.46-.09,2.08.97-.37,1.04,6.02-2.02,7.42-2.98,1.41-.97.66-.09.09-3.77-.55-3.67-2.35-3.94-1.31-8.67,1.03-4.73.75-5.18,1.03-8.15.27-2.98,1.41-3.41,2.16-3.59.76-.17.76-4.12,2.35-6.21,1.6-2.11,1.22-3.07,1.22-7.89s-2.64-3.95-2.81-7.35c-.19-3.42.64-6.75.64-6.75,0,0-5.36,2.02-5.91,3.24l-.58,1.22s-.84-.88-2.63,0Zm-35.1,52.63c-5.55.93-9.48,1.52-12.77,2.57-3.3,1.06-4,2.51-3.49,5.8.51,3.3,1.81,6.59,2.26,8.3.45,1.71,2.26,0,5.36-1.65,3.09-1.65,2.9-6.46,5.87-6.46s1.87,3.43,5.86-1.38c4-4.81.97-5.21,1.09-7.64.13-2.44-4.18.45-4.18.45Zm351.41-259.37c-5.94-1.16-7.66-2.45-8.21-.3-.57,2.17-1.2,2.87,2.56,4.21,3.77,1.35,5.64-.99,9.16,1.64,3.51,2.62,4.51,2.51,7.2,2.16,2.7-.35,3.76-1.7,3.76-1.7,0,0-9.96-5.13-14.48-6.01Zm-67.92-93.56c-2.18.61-3.96-1.49-3.39,3.85.55,5.33,1.78,5.95,8.64,4.99,6.87-.96,1.69-.26,11.1-.96,9.4-.69,11.37-2.02,11.37-2.02,0,0-1.32-2.63-4.51-5.08-3.2-2.45-7.43,1.67-14.68.44-7.24-1.22-8.54-1.22-8.54-1.22Zm-211.89-78.91c.09,2.05,9.4,7.79,12.78,9.46,3.39,1.67,6.01.96,13.17.17,7.15-.79,7.71-3.84,8.55-5.6.84-1.75-3.38-1.14-8.17-2.1-4.81-.98-8.75.87-10.44,0-1.69-.88,2.54-1.75-1.69-3.33-4.24-1.58-5.27.52-6.21-.17-.93-.71-1.12-2.2-3.19-2.36-2.07-.18-4.89,2.02-4.8,3.94Zm-36.87,12c-3.24,1.3-3.01,2.46.65,5.52,3.67,3.07,2.46,2.36.85,4.56-1.59,2.19,0-.09,5.27,2.27,5.27,2.36,7.43,6.66,10.72,7.62,3.29.96,5.55-.26,5.55-.26,0,0-1.13-3.51-4.23-7.71-3.1-4.2-9.79-5.42-11.01-9.1-1.21-3.68-3.19-4.74-7.8-2.89Zm33.57-17.16s-4.79-2.89-12.04-7.45c-7.24-4.56-9.96-5.78-12.41-6.13-2.46-.35-2.06,2.55-3.01,4.81-.93,2.28-1.6,1.84-5.37,0-3.75-1.84-7.52-4.64-11.37-5.52-3.86-.87-6.2,2.28-10.63,6.66-4.42,4.38-1.88,5.61,3.48,12.08,5.36,6.49,7.71,6.84,12.03,4.29,4.33-2.53,3.1-4.2,6.21-2.98,3.11,1.22,13.83-1.22,14.21-1.22s-.66,5.95,4.04,4.38c4.69-1.57,9.02-2.36,11.19-4.73,2.15-2.36,3.66-4.2,3.66-4.2Zm-325.67-125.09c-1.37,1.16-9.4.46-13.54,7-4.13,6.55-7.01,1.99-9.15,5.96-2.12,3.97-3.89,8.76-3.89,8.76,0,0,3.77,4.44,7.78,4.09,4.01-.36,11.03,1.4,14.92,6.77,3.89,5.37,6.77,5.37,16.17,6.88,9.41,1.52,5.13,2.81,10.04,2.35,4.89-.48,11.65.58,10.15-1.88-1.5-2.46-2.64-3.97-2-8.76.62-4.79,5-4.56-.13-7.71-5.14-3.16-8.78-.58-8.53-1.17.26-.59,4.64-2.34,2.89-2.46-1.76-.12-10.41-.58-11.41-5.48-1.01-4.9,2.37-5.27,4.13-5.61,1.76-.35,1.27-.93-3.76-4.55-5.01-3.62-11.78-7.36-11.78-7.36-3.13,1.64-.5,1.98-1.89,3.16Zm47.15,35.37c-3.64.7-6.65,4.32-8.77,7.47-2.14,3.16-6.4,7.94-9.03,10.04-2.64,2.1-1.88,2.7,2.38,4.22,4.27,1.51,11.78-2.7,13.92-2.81,2.13-.12,3.76,3.16,10.53,2.33,6.77-.81,17.05-2.1,12.04-5.72-5.02-3.61-3.26-1.87-8.78-6.3-5.51-4.43-12.54-4.79-12.54-4.79,0,0,11.41-3.85,8.66-4.09-2.77-.24-8.41-.36-8.41-.36Zm-289.9-57.57c-6.56,2.36-4.27,3.51-8.53,6.9-4.25,3.39-1.39,4.32,7.78,2.1,9.15-2.22,9.65-3.16,15.54-5.84,5.89-2.7-5.01-6.67-14.79-3.16Zm14.54,16.47c-6.16,2.73-4.51,5.61-2.88,7.94,1.63,2.33,6.14-1.41,7.38,1.17,1.26,2.56,1.64,1.5,7.41-2.35,5.76-3.85,3.64-2.68,1.39-6.76-2.26-4.08-2.76-4.67-13.3,0Zm-34.26-1.7c-3.94,1.88-3.94,1.66-.2,3.41,3.77,1.75,12.89,3.15,17.59.08,4.7-3.06,4.34-2.45-1.6-3.32-5.92-.88-11.39-2.28-15.79-.17Zm-58.12,7.09c6.12-.52,11.76-.78,16.65-.26,4.88.53,3.09,4.73-5.94,5.7-9.03.96.85,2.36,7.24,2.1,6.39-.27,2.26-5.52,7.62-7.36,5.35-1.84,8.74-.7,15.13-2.98,6.39-2.28-3.66-4.47-11.1-4.29-7.42.17-9.87.6-16.17.17-6.3-.44-11.39,2.4-17.87,3.51-13.35,2.27-1.69,3.94,4.42,3.41Zm47.95,1.67c-5.37,0-18.33,2.98-7.43,4.03,10.92,1.05,10.07,1.75,14.58.09,4.52-1.67-1.5-4.12-7.15-4.12Zm38.01,2.28c-7.66-2.53-7.82-1.5-13.74-1.23-5.92.26-8.27,3.94-4.41,5.52,3.85,1.58,6.47.96,9.67.45,3.19-.53,3.01-1.49.94-2.28-2.08-.79,12.04-.96,7.53-2.45Zm32.16-9.46c-5.87.73-6.21,1.75-6.77,3.67-.57,1.93.84,1.49,7.05.7,6.21-.79,9.12-1.66,13.16-3.85,4.04-2.19-.84-7.53-.84-8.5s-5.73,2.9-7.33,4.29c-1.6,1.41,1.68,2.81-5.27,3.69Zm-460.56,335.93c-2.96,8.17-7.84,11.94-2.07,9.67,5.76-2.27,11.53-9.29,11.25-3.27-.3,6.03-5.92,5.15-4.15,11.06,1.78,5.91.45,5.41,10.06,7.54,9.62,2.14,1.77,1.39,4.14,7.04,2.36,5.66,3.99,7.41,1.47,9.05-2.51,1.63-9.91-5.15-10.34-2.27-.45,2.89,1.03,5.03,2.8,9.05,1.78,4.02-1.18,6.28-6.8,8.92-5.63,2.65-.74,4.28,3.55,4.03,4.29-.25,15.08-2.27,13.3,1.5-1.76,3.77-6.95-.63-10.63,5.66-3.71,6.28-17.32,11.68-10.22,11.31,7.1-.38,6.07-2.27,27.23-5.27,21.15-3.02,6.49-.26,20.4-4.53,13.91-4.27,9.47-5.41,1.78-4.14-7.7,1.26,5.04-7.55,3.26-15.7-1.78-8.18-6.8-.38-10.06-5.54-3.26-5.15-2.81-6.66,3.41-4.78,6.21,1.89,5.62-1.25-6.37-8.91-11.98-7.67-4.58-6.16-10.05-12.57-5.47-6.42-14.78-5.66-14.78-5.66,0,0,3.99-2.38,6.35-7.04,2.36-4.65,2.81-4.28,5.33-9.92,2.52-5.66-2.51-5.15-8.86-3.78-6.37,1.38-8.44,2.02-7.1-.5,1.33-2.51,2.22-3.51,5.18-6.66,2.96-3.14,3.54-4.77-1.93-3.51-5.47,1.25-6.3,1.13-10.94,3.27-7.1,3.27-2.22,7.79-5.18,15.96Zm-14.94,19.22c-9.67,3.81-6.95,6.29-5.32,7.67,1.63,1.39,4.58-1.26-4.44,3.9-9.03,5.15-9.17,10.8-4.44,11.93,4.75,1.13,4.14-2.76-.88,6.66-5.04,9.42-8.43,15.83,1.78,13.44,10.2-2.39,13.01-7.67,17.89-8.29,4.88-.63,5.77-4.52,5.77-10.44s-3.25-6.03.6-10.93c3.84-4.89,4.13-10.06-3.41-12.44-7.54-2.4-1.47-3.9-7.54-1.51Zm121.48,131.89c-.52,1.32.64,4.9-3.27,7.35-3.89,2.46,1.88,4.68,3.13,7.01,1.27,2.33,2.89-7.94,2.51-12.85-.36-4.9-.74-5.72-2.37-1.51Zm-1.88,19.38c-6.37,3.02-6.76,5.25-7.53,10.05-.75,4.78,5.15.93,3.64,5.13-1.51,4.21-.12,6.43,6.52,2.46,6.64-3.98,2.89-7.59,3.89-12.62,1.01-5.02,1.89-8.99-6.52-5.02Zm98.3,51.61c-5.61-.55-8.09,2.98,1.5,4.04,9.59,1.05,13.92,1.22,17.5.35,3.56-.88.55-.17-4.15-3.32-4.7-3.16-7.71-.35-14.85-1.06Zm53.41,2.98c-7.72-1.66-5.63,7.71,2.27,6.32,7.9-1.41,4.89.52,8.47-5.26,3.56-5.78-2.64.69-10.73-1.06Zm-192.09-43.49c-6.28.8-6.76,2.93-1.88,4.21,4.89,1.28,4.26-.23,7.02-2.22,2.76-1.98-2.37-2.33-5.14-1.98Zm-379.88-114.32c-3.85,3.06-8.28,7.53-13.73,17.34-5.45,9.81-4.88,8.76-10.15,14.19-5.27,5.43-2.63,4.2,13.73,7.36,16.36,3.15,15.04,5.61,18.81,4.56,3.75-1.05,4.51,2.09,4.51,5.43s3.56,1.39,5.26-3.85c1.69-5.26-1.7-14.72-5.07-20.14-3.39-5.44-4.15-5.44-9.41-4.04-5.26,1.41-3.58-1.22-5.45-5.42-1.89-4.21-4.9-.88-.38-7.19,4.51-6.31,5.64-11.2,1.88-8.24Zm-500.62-11.2c0,5.21,5.51,14.12,9.65,17.05,4.13,2.91,3.27,1.29,1.38-4.91-1.89-6.19-.37-6.19-1.26-10.15-.88-3.97-9.77-3.85-9.77-1.98Zm27.46,28.49c1.08,1.12,4.38,5.84,10.15,9.69,5.77,3.85,7.28,4.32,13.3,6.07,6.02,1.75,8.65-.59,4.76-4.08-3.89-3.51-.63-3.16-7.65-4.8-7.03-1.62-8.52-1.04-12.04-3.27-3.51-2.21-10.91-6.07-8.52-3.61Zm-152.89-58.1c-4.52-1.03-6.3-1.22-9.41,1.22-3.1,2.45-3.94,4.56-2.25,7.28,1.7,2.71.65,1.22,4.6-1.49,3.96-2.72,2.08-3.07,7.06-4.3,5-1.22,3.95-2.89,3.95-2.89,0,0-1.22.79-3.95.18Zm-1.6-6.04c-3.04,1.83-4.05,3.32-.66,2.62,3.39-.7,2.91-2.62,5.08-2.19,2.18.43,2.92-.43,2.92-.43,0,0-4.13-1.93-7.33,0Zm-86.81-13.93c-4.13,2.02-8.05-.35-5.5,1.18,2.54,1.54,6.02,2.98,8.74,2.67,2.73-.31,4.52-.35,3.53-1.66-.99-1.32-1.26-1.65-1.31-3.02-.1-1.84-1.31-1.18-5.46.83Zm1388.12,570.7c-4.77,10.52-14.81,5.37-22.83,13.08-8.02,7.71-6.77,5.37-.75,16.12,6.02,10.74-5,9.58-7.78,22.19-2.75,12.61,3.27,10.28,6.52,21.02,3.27,10.73,4.77,7.47,10.79,6.07,6.01-1.4,10.28-4.2,10.28-4.2,0,0,1.02-9.34,5.01-23.12,4.02-13.78,6.77-23.82,7.52-32.93.76-9.11,1.5-15.64,3.52-12.85,2,2.8,2.25,2.8,2.25-1.64s-2.41-16.92-6.27-19.85c-6.78-5.14-3.51,5.61-8.27,16.11Zm7.03-718.36c-6.57,1.5-9.69,5.52-4.9,7.09,4.8,1.57,4.32.71,12.23-2.1,7.9-2.8-.85-6.48-7.33-4.99Zm122.87-119.33c-2.24-3.51-4.25,1.17-27.32,11.21-23.09,10.04-22.83,1.4-44.4,18.45-21.57,17.05-16.8,14.94-18.06,25.23-1.26,10.27-6.27,5.83-8.28,15.17-2,9.33-13.03,9.81-7.52,17.52,5.52,7.71,12.78,12.14,24.32,15.41,11.54,3.27,14.8-.23,12.3-1.41-2.51-1.17-11.29-14.95-9.53-30.59,1.75-15.64,7.52-13.31,12.54-19.15,5.01-5.84,18.05-21.02,26.58-26.16,8.29-4.99,30.35-11.97,41.46-15.79.31-.12.71-.09.92-.31,8.77-9.81-.75-6.07-3.02-9.57Zm-62.18,104.97c-2.73.39-4.01.47,1.01,5.37,5.01,4.9,9.4,8.64,7.76,2.1-1.64-6.54-6.27-7.82-8.77-7.47Zm82.37-47.52c-3.66-1.71-5.63-3.51-6.52-.7-.88,2.8,4.14,6.54,9.03,7.48,4.89.93,1-5.13-2.51-6.77Zm-863.33,293.91c-5.57-2.79-11.02-5.02-14.66-5.02s.75,3.84,6.52,7c5.78,3.15,11.41-.35,8.14-1.98Zm-13.28,23.48c.3-4.63-3.08,5.32,1.06,7.53,4.14,2.22,6.28,2.79,8.91.11,2.63-2.69.49-.99-3.14-1.63-3.63-.65-7.08-2.16-6.83-6.01Zm1642.94-160.91c-6.77.7-11.85-1.23-11.85-1.23,0,0-.38,5.44-2.44,8.06-2.08,2.62-.58,5.43-.58,5.43,0,0-6.76-2.98-10.71-4.38-3.95-1.41-7.52-.17-9.79-6.14-2.26-5.95-9.02-4.9-14.29-4.9s-3.75-6.83-3.75-6.83l-3.2.17c-3.21.18-2.64,7.89-6.77,10.34-4.15,2.45-17.12,4.04-17.12,4.04,0,0,8.28,5.95,9.98,10.86,1.68,4.9,4.89,9.63,4.89,9.63,0,0-.76,2.28-10.73.35-9.97-1.92-9.39,1.93-20.12,6.3-10.72,4.38-22.95,11.05-25.96,13.49-3.02,2.45-3.2,1.05-12.6-1.22-9.4-2.28-11.28,2.62-13.73,3.85-2.44,1.22-1.5-5.61-1.5-5.61,0,0-3.39,0-7.53,2.1-42.87,21.78-13.3,20.63-14.66,25.04,0,.02-4.52,16.99-4.52,17-6.3,18.77-10.67,8.94-15.98,23.81-16.93,47.29-26.72-7.29-26.72-19.79,0-7.71-1.69-17.69,3.21-19.97,42.08-19.6,3.94-2.72,43.44-29.78,12.8-8.76,5.83-14.02,8.65-16.46,2.83-2.45,7.34-3.16,7.34-3.16l-6.96-.69c-6.96-.69-7.15.88-12.61,6.83-5.45,5.95-9.77,7.01-8.65,2.45,1.13-4.55,1.32-9.28-2.81-6.82-4.13,2.45-5.84,2.09-13.54,3.68-7.72,1.57-15.98,5.24-22.95,14.01-6.96,8.76-3.01,7.71-.75,9.81,2.25,2.1-11.11,1.57-17.49,1.06-6.41-.53-3.03-1.75.74-2.98,3.76-1.23-5.65-2.27-13.92-4.03-8.27-1.75-5.08,1.41-9.96,3.32-4.89,1.93-4.71-1.75-7.15-2.27-2.45-.52-13.35-1.22-21.06-2.11-7.72-.87-7.15.53-9.22,3.16-2.08,2.63-16.36,15.25-22.57,22.43-6.21,7.18-13.92,8.76-20.88,15.41-6.95,6.65-8.09,6.3-2.45,7.36,5.64,1.04,6.4.51,7.33,5.77.95,5.26,3.58,7,9.6,7s4.33,1.58,5.45-2.98c1.13-4.56-1.51-9.8,3.58-5.78,5.07,4.04,9.21,7.01,10.72,12.79,1.51,5.78-.38,9.98-3.01,19.62-2.64,9.62-3.57,23.47-7.15,30.47-3.57,7-6.39,12.26-10.34,19.97-3.95,7.71-23.14,27.15-27.45,28.9-4.33,1.74-7.14,1.93-9.22-1.93-2.07-3.85-3.57-3.16-8.47,1.22-4.88,4.38-7.14,7.01-9.02,14.01-1.89,7.01-6.03,7.01-10.35,12.26-4.32,5.25-5.45,4.04-2.26,9.99,3.2,5.95,8.46,12.26,9.03,18.03.56,5.79-2.64,14.19-4.7,17.88-2.08,3.67-11.85,5.42-11.67,3.67.2-1.75.37-10.51,0-15.59-.38-5.08-4.14-5.08-2.83-6.66,1.33-1.57,6.78-4.2,2.83-7.89-3.95-3.67-6.77-.52-8.46-4.89-1.7-4.38.75-7.89-.18-9.46-.95-1.58-3.77-3.32-9.6-3.85-5.83-.53-7.15,5.25-8.48.17-1.31-5.08.58-5.6-2.06-7.7-2.64-2.1-4.89-.7-11.65,5.08-6.78,5.78-8.1,4.56-13.74,7-5.64,2.46-5.64,3.85-4.32,5.79,1.32,1.93,6.02,10.33,9.96,11.2,3.95.89,6.78-1.75,12.79-1.75s7.15.88,5.65,3.15c-1.51,2.28-5.65,4.56-12.97,11.92-7.33,7.36-5.09,5.96-2.64,8.94,2.45,2.98,6.02,6.65,8.65,12.44,2.64,5.77,0,7.87-.37,11.2-.38,3.34-.94,8.42,3.95,13.68,4.89,5.24,1.5,3.5.93,5.42-.55,1.93-8.84,16.98-12.6,24.53-3.77,7.52-3.77,8.23-15.98,16.81-12.23,8.58-17.69,9.46-24.27,10.68-6.58,1.23-12.22,3.16-15.61,4.56-3.38,1.41-2.08,4.2-2.43,5.95-.4,1.75-3.58.17-3.03-2.46.57-2.62.2-4.56-1.5-5.25-1.69-.7-6.96-2.81-12.41,2.45-5.46,5.26-12.05,5.61-14.31,12.27-2.25,6.65-1.87,4.38.58,7.18,2.43,2.8,14.29,14.19,17.11,20.31,2.82,6.14,3.39,10.7,3.58,17.35.18,6.66-13.55,18.92-19.56,22.95-6.02,4.03-7.34,7.88-6.4,1.57.93-6.3-2.63-9.98-6.95-14.71-4.32-4.73-17.49-8.58-19.94-9.11-2.44-.52.94-4.37-.76-4.2-1.68.18-5.63-.88-5.07,5.26.55,6.14-3.94,4.2-4.89,10.34-.94,6.13-2.08,12.43,1.88,11.91,3.95-.53,3.2,5.43,6.21,12.09,3.01,6.65,1.87,2.98,9.4,9.1,7.53,6.13,5.64,5.08,7.34,11.21,1.68,6.13,1.12,9.63,4.89,15.24,3.75,5.61,3.94,6.83-2.27,3.67-6.21-3.14-11.28-7-13.73-10.86-2.45-3.85-3.94-13.67-5.45-18.56-1.51-4.9-11.66-10.68-15.04-14.19-3.39-3.51-1.32-6.3.37-14.36,1.69-8.06-.75-15.77-1.32-20.66-.55-4.91-4.51-18.65-6.4-23.3-1.88-4.64-1.12-4.03-4.04,0-2.91,4.03-5.16,6.48-7.99,6.48s-6.95-.44-6.58-2.28c.38-1.84,3.2-8.84,2.36-11.47-.86-2.62-3.49-11.04-7.43-14.02-3.95-2.98-8.48-7.09-11.01-14.01-2.54-6.91-3.2-4.9-8.09-1.31-4.89,3.59-16.09,4.03-21.45,4.47-5.36.44-.93,3.07-2.25,5.7-1.32,2.63-7.62,6.04-20.31,19.27-12.7,13.22-14.61,13.66-17.9,15.07-3.3,1.39-5.34.96-5.23,6.38.09,5.43.59,8.38-.04,13.23-.62,4.85-2.07,6.83-3.46,9.92-1.36,3.09-2.86,8.7-3.31,11.63-.44,2.91-3.27,6.3-7.4,9.28-4.13,2.98-4.13,2.45-6.02-1.93-1.88-4.37-11.66-21.19-19.56-36.95-7.91-15.76-6.02-18.57-6.78-23.13-.75-4.56-.9-31.89-.56-33.98.2-1.17-3.82,3.21-4.95,5.42-1.13,2.22-1.07,4.91-5.57,5.32-4.51.41-5.46.47-9.72-3.8-4.27-4.26-6.22-6.65-5.47-6.53.76.12,5.65-.47,8.48-1.87,2.81-1.41,1.87-2.93,1.87-2.93,0,0-3.06.35-6.71.53-3.65.17-2.01-.82-6.83-2.74-4.83-1.93-5.9-2.1-6.71-4.26-.82-2.16-2-5.2-2.7-6.84-.69-1.63-1.25-1.75-2.06-3.79-.82-2.04-3.13.35-8.34.46-5.21.12-4.02.35-10.29,2.8-6.27,2.45-7.21,1.58-14.3,1.35-7.09-.23-12.03-3.27-15.61-4.5-3.57-1.22-4.13-.7-9.4-1.46-5.27-.75-4.13-3.44-5.46-5.66-1.31-2.22-3.51-2.75-10.41-2.22-6.88.52-7.14.18-11.02-.88-3.89-1.04-4.21-2.45-7.47-5.72-3.26-3.27-2.19-.69-4.33-2.4-2.13-1.69-4.26-4.02-5.95-8.57-1.7-4.56-1.32-5.55-3.27-7.65-1.95-2.1-1.81-1.58-7.9-1.58s-3.31.41-4.07.82c-.75.41-2.63,3.09-4.33,5.19-1.69,2.1,1.37,5.03,3.82,7.89,2.45,2.86.31,2.56,4.21,6.89,3.89,4.32,2.56,3.91,5.33,9.92,2.75,6.01,4.51,7.53,5.13,9.34.64,1.81,1.2-.7,1.83-2.34.63-1.64-.25-7.47-.25-7.47,0,0,1.19,2.46,2.25,6.78,1.07,4.32.31,4.37,1.07,7.13.76,2.74,0,2.38,4.7,2.38s7.58.18,12.79-1.04c5.21-1.22,7.45-5.95,9.9-7.36,2.46-1.41,2.46-6.31,4.08-5.78,1.62.52.07,5.78,1.57,9.22,1.5,3.45,1.88,2.22,5.52,3.74,3.62,1.52,4.63,2.4,8.33,3.8,3.7,1.4,1.19,1.58,3.2,5.26,2,3.68,1.88,1.63,3.83,2.92,1.95,1.28,1.19.35-.19,4.73-1.37,4.38-1.63,4.43-4.89,8-3.27,3.56-3.27,2.46-3.76,2.34-.5-.12-1.51-2.63-1.51-2.63,0,0-2.08,4.26-2.38,9.23-.31,4.96,1.63,3.14-4.33,5.54-5.95,2.39-9.53,3.39-11.84,5.38-2.32,1.98-2.32,4.61-3.64,5.9-1.31,1.28-3.14.12-7.14,1.51-4.01,1.41-2.89,1.11-6.28,3.69-3.38,2.56-.38,2.33-4.7,3.96-4.33,1.64-12.16,5.43-16.12,5.85-3.95.4-3.13,1.45-4.13,2.91-1.01,1.46-1.08,2.22-6.09,2.98-5.01.76-11.28,1.47-14.36,2.98-3.08,1.51-7.58,4.9-10.84,4.26-3.27-.64-2.38-.76-3.45-3.68-1.07-2.92-1.63-5.02-2.13-9.81-.5-4.79-2.2-12.08-4.96-16.69-2.75-4.61-2.7-4.91-5.7-9.76-3.01-4.85-5.02-8.93-7.65-10.8-2.63-1.87-3.94-1.98-5.21-3.38-1.25-1.4-.5-6.19-1.81-10.28-1.31-4.09-2.2-8.05-4.14-10.34-1.94-2.27-4.95-4.9-7.65-9.74-2.69-4.85-2.88-5.38-6.76-12.85-3.9-7.47-5.28-8.41-7.85-13.43-2.57-5.03-.88-4.04-1.82-7.01-.94-2.98-3.39,4.85-5.32,6.37-1.94,1.52-2.94.76-4.51-3.68-1.56-4.43-2.89-8.34-4.08-6.59-1.2,1.75-2.13,3.5-.51,8.24,1.64,4.71,2.4,3.72,4.52,8.22,2.13,4.5,7.96,15.78,10.34,20.44,2.38,4.66,1.45,2.39,3.65,9.46,2.2,7.06,3.44,7.94,6.38,10.85,2.96,2.93,2.46,1.41,3.77,6.19,1.32,4.79.82,10.39,1.01,13.32.18,2.91,1.81,4.43,5.33,7.35,3.51,2.92,1.75,1.87,3.38,4.96,1.64,3.09,3.26,7.48,4.21,10.51.93,3.03,2.07,5.14,4.82,6.48,2.76,1.34,3.51,1.52,6.28,2.51,2.75.99,1.8,1.69,3.69,4.08,1.88,2.4,5.52,4.2,7.79,8,2.25,3.79.74,2.68.61,6.36-.12,3.68-1.31,1.98.32,3.91,1.63,1.93,4.45,3.51,9.2,6.65,4.77,3.16.96.94,5.21.83,4.28-.12,5.15-1.23,9.72-2.22,4.56-.99,10.47-2.69,16.11-4.03,5.65-1.34,11.15-2.22,14.05-3.16,2.89-.93,2.95,2.23.74,7.13-2.2,4.9-3.25,8.99-5.13,12.97-1.89,3.97-2.58,4.32-3.95,7.53-1.38,3.21-10.67,16.34-12.59,20.49-1.94,4.14-4.27,7.47-7.09,10.92-2.83,3.44-11.67,9.68-15.8,13.01-4.13,3.32-3.08,3.32-6.14,7.24-3.08,3.9-12.41,14.77-14.93,18.62-2.51,3.85-3.94,5.26-5.82,9.05-1.88,3.79-7.2,9.16-7.52,11.91-.31,2.75-3.32,3.1-1.07,5.5,2.26,2.39,3.45,2.8,4.27,5.83.82,3.04-2.51,6.48-.37,12.03,2.13,5.55.62,1.58,3.83,6.01,3.19,4.43,3.07,7.24,3.37,13.73.31,6.47.63,12.9-.37,17.1-1,4.2-2.38,6.95-3.82,10.75-1.44,3.79-9.34,6.37-13.99,8.4-4.63,2.05-4.44,1.22-6.58,3.8-2.13,2.57-8.27,7.94-10.34,11.91-2.08,3.98-3.64,3.56-2.82,6.08.81,2.51,2.55,5.78,4.7,10.45,2.12,4.66.63,4.32.12,8.35-.5,4.02-.44,3.39-1,8.28-.58,4.91-6.33,5.02-12.92,7.59-6.58,2.56-4.2,1.29-4.96,4.85-.74,3.56-.3,10.57-.56,14.77-.25,4.21-2.25,2.51-5.83,7.71-3.58,5.19-5.01,7.66-8.84,13.9-3.83,6.24-3.51,5.37-8.34,9.29-4.82,3.9-8.65,4.9-10.77,9.39-2.13,4.5-4.58,1.52-14.93,4.85-10.34,3.33-2.82,1.7-12.66,2.8-9.84,1.12-13.36,1.88-18.56,2.8-5.21.94-4.52-.28-7.71-3.79-3.19-3.51-3.7-3.22-5.13-6.14-1.46-2.92-.38-3.62-.83-8.88-.44-5.25-.88-5.42-2.81-8.7-1.95-3.26-1.83-3.79-3.95-8.99-2.13-5.19-3.08-6.66-5.47-10.15-2.37-3.51-3.07-2.39-5.26-4.67-2.2-2.28-2.26-4.27-2.76-7.48-.5-3.21-1.26-10.8-2.32-18.8-1.07-8-.12-3.74-1.39-7.12-1.24-3.38-2.75-7.47-4.89-11.97-2.13-4.5-1.38-3.33-4.64-8.88-3.26-5.55-2.95-4.78-5.02-9.62-2.07-4.85-2.37-2.7-2.5-4.56-.13-1.87,1.06-5.25,1.19-8.52.12-3.27,1.19-7.06,1.99-12.09.83-5.02-1.12-4.96,1.01-8.41,2.12-3.45,4.32-6.59,5.71-10.51,1.38-3.9,1.18-4.08,1.18-9.05s-.5-4.55-2-8.7c-1.51-4.14-2.07-9-3.89-15.64-1.82-6.66-1.76-6.42-2.02-9-.24-2.56-1.49-8.35-2.75-11.85-1.25-3.5-1.88-2.1-4.63-4.37-2.76-2.28-.94-1.29-3.32-3.8-2.38-2.51-1.94-3.32-4.27-6.07-2.32-2.75-2.63-2.86-4.52-5.95-1.87-3.09-.86-1.22-.61-6.43.24-5.19,1.75-15.12,2.7-20.85.93-5.72,1.13-5.42-1.07-7.82-2.2-2.4-3.77-5.84-5.46-6.42-1.7-.59-5.77.58-11.73.46-5.96-.12-5.71-1.46-8.27-4.44-2.58-2.97-5.97-7.12-7.16-8.23-1.19-1.11-3.26-1.06-13.4-.3-10.16.76-4.02.94-10.8,1.99-6.76,1.05-9.4,4.61-14.6,6.42-5.2,1.8-6.71,1.34-15.86-.47-9.15-1.81-13.73,2.11-18.37,4.09-4.64,1.98-6.9,1.04-10.28-1.29-3.38-2.33-5.39-4.27-10.6-6.83-5.19-2.57-4.01-3.97-9.14-6.48-5.15-2.51-3.46-2.63-7.72-6.66-4.27-4.03-4.57-8.11-7.52-12.32-2.94-4.21-5.47-10.1-9.41-14.54-3.94-4.44-7.83-13.37-9.77-16.05-1.95-2.7-3.44-2.93-3.39-4.21.06-1.28,3.83-8.81,5.4-12.73,1.57-3.91,2-3.39,2.69-5.84.69-2.46-.93-9.52-2.44-13.37-1.51-3.86-3.2-11.97-4.38-15.77-1.2-3.79.61-3.85,2.07-6,1.44-2.17,4.89-6.66,8.46-13.31,3.57-6.67,5.58-9.93,7.46-13.03,1.88-3.09,6.2-12.6,9.04-15.17,2.81-2.57,10.02-7.71,13.09-9.29,3.07-1.57,5.58-2.45,6.09-3.85.5-1.41,1.81-12.96,2.7-17.8.88-4.85-.31-7.53,3.2-9.4,3.51-1.87,9.15-5.37,12.11-7.01,2.94-1.63,3.38-4.08,4.88-7.64,1.5-3.57,2.14-8.05,4.4-9.53,2.25-1.46,1.63.65,4.57,2.63,2.94,1.98,3.45,2.11,4.83,2.46,1.38.36,2.63-1.12,6.09-1.17,3.44-.06,3.82.41,5.89,1.52,2.06,1.1.94,1.11,6.84-2.51,5.9-3.62,10.59-5.84,18.31-8.7,7.71-2.86,12.97-4.44,16.55-4.85,3.57-.41,1.75.05,5.77,1.64,4.02,1.57,4.2,2.27,5.01,1.1.82-1.17,3.45-4.44,5.14-4.32,1.7.11,3.64.82,7.96,1.58,4.33.76,6.14.35,7.9-.59,1.75-.93,4-2.8,4.44-2.8s4.15,1.29,7.15,2.4c3.01,1.11,3.07,1.28,2.45,2.03-.63.76-1.5,1.58-2.94,4.85-1.45,3.27-.76,1.52.62,4.97,1.37,3.44,2.38,3.27,1.75,5.78-.64,2.51-3.45,4.85-5.51,7.29-2.07,2.46-1.56,2.86,3.51,5.73,5.09,2.85,3.89,2.39,9.59,4.95,5.71,2.57,5.95,1.64,12.6,3.62,6.64,1.99,5.83,2.22,8.14,4.91,2.32,2.68,2.45,5.25,6.46,6.65,4.01,1.41,8.28,1.41,10.6,2.86,2.32,1.46,4.2,3.56,7.34,4.15,3.13.58,3.12.99,4.63-1.29,1.51-2.27,2.75-4.32,2.2-5.49-.57-1.17-2.27-2.98-1.89-4.08.38-1.11,3.02-5.54,3.83-6.88.83-1.35,2.89-1.7,7.85-1.94,4.95-.23,8.39-.93,9.21,1.98.81,2.93.63,1.58,4.45,3.16,3.83,1.57,4.21,1.57,7.4,2.8,3.2,1.22,1.57,2.97,3.2,2.85,1.63-.12,4.27-.35,7.27.53,3.01.88,8.52,3.51,14.35,3.74,5.84.23,8.09-1.52,8.97-1.93.88-.4,5.01-5.47,7.47-1.98,2.44,3.5,5.63,3.56,11.77,3.21,6.15-.35,6.21-1.28,7.59-2.86,1.38-1.58,5.08-7.53,6.28-11.62,1.18-4.09,4.44-13.01,5.32-17.05.89-4.03-.06-7.18-.37-9.57-.31-2.4.26-4.03,1.2-6.72.93-2.68-2.95-1.05-4.52-.52-1.56.52-2-.82-3.44-1.23-1.45-.4-2.95-.76-4.02,1.94-1.07,2.68-.57,4.03-6.33,3.74-5.76-.3-4.7-.65-6.58-2.7-1.88-2.03-5.08-2.56-7.66-3.32-2.56-.76-2.81-.64-3,.99-.19,1.64-.25,2.74-2.13,3.39-1.88.65-6.14-.12-9.72-1.81-3.57-1.7-4.64-2.51-8.15-5.96-3.51-3.44-3-3.44-4.45-8.75-1.44-5.32-1.44-9.87-.81-11.44.61-1.58,1.63-2.04-1.07-1.22-2.7.81-4.52,1.27-2.7-2.74,1.83-4.03,3.51-4.21,5.4-4.74,1.88-.52,4.76-.58,8.34-.81,3.57-.24,6.32-2.04,7.58-2.57,1.26-.53,3.84-1.41,2.51-1.75-1.32-.35-5.27-.76-4.58-1.87.69-1.11,1.13-1.05,3.26-1.28,2.14-.24,5.46-.36,8.29-.52,2.81-.18,4.51.35,5.46-1.35.94-1.7,2.12-4.21,4.32-5.55,2.2-1.34,4.58-.65,10.35-.88,5.76-.23,4.88,1.17,6.76,2.51,1.88,1.34,3.13.69,5.59,1.17,2.44.47.93,1.93,2.81,2.69,1.88.76,5.33,1.52,9.53,2.86,4.21,1.34,1.45.76,6.58.76s4.96.05,9.04-.64c4.07-.7,5.77-2.22,8.65-4.27,2.89-2.03.88-6.48-.18-9.92-1.07-3.44-5.59-5.66-7.66-7.24-2.07-1.58-6.52-6.61-8.9-8.64-2.4-2.05-5.15-2.63-7.78-4.08-2.63-1.47-7.33-3.86-7.77-5.79-.44-1.93,1.01-1.98,4.89-2.91,3.89-.94,2.64-1.75,3.37-3.8.76-2.03,1.07-1.98,4.27-3.15,3.2-1.17-3.69-3.62-4.64-4.95-.93-1.36,2.13-.94,5.33-1.7,3.19-.76,3.46-2.27,3.89-3.62.45-1.34.31-1.98-3.45-1.92-3.75.05-8.53,1.63-14.86,3.32-6.33,1.69-3.44,1.75-7.27,4.73-3.83,2.98-4.08,1.69-3.57,3.32.5,1.64.74,3.21,4.63,5.26,3.89,2.04,2.25,2.1,3.33,2.4,1.07.28,3.7.7,2.51,1.05-1.19.34-2.26,2.21-4.02,2.21s-2.51,1.81-5.51,3.51c-3.01,1.7-4.33,1.93-6.52,2.28-2.19.35-3.76-.36-3.46-4.09.32-3.74-1.12-1.22-3.45-2.09-2.32-.88-3.2-1.88-3.2-1.88,0,0,2.32-.82,4.65-2.27,2.33-1.46,3.38-2.33,4.51-5.19,1.12-2.86-2.51-1.29-5.14-1.64-2.63-.35-1.89-.59-4.45-.93-2.56-.35-3.57-2.39-3.57-2.39,0,0,1.18.46,3.38.23,2.19-.23,1.7-.82,2.51-1.41.82-.58,1.46-1.11.82-1.11s-3.32.29-5.14.17c-1.83-.12-2.89-.41-5.52,0-2.64.41-1.57,1.4-3.45,2.62-1.89,1.23-1.94,1.64-2.94,3.46-1,1.8-1.32,1.51-2.01,2.68-.69,1.17-.63,4.09-.63,6.08s-.5,2.62-1.7,4.26c-1.19,1.64-1.19.93-3.2,1.92-2,1-.69,1.7-.93,3.69-.25,1.98-.94,2.75-1.13,5.32-.18,2.56-1.19,2.68-2.75,4.49-1.57,1.8-2.45,1.8-2.57,3.68-.13,1.87-.44,2.69,0,6.3.44,3.62,1.44,2.69,4.27,6.37,2.81,3.68,4.33,2.28,3.32,4.14-1,1.87-.81,1.17-4.27.76-3.45-.41-4,.12-6.51,2.51-2.51,2.39-3.03,3.74-4.33,4.61-1.31.87-.88-1.75-1.37-2.98-.5-1.22-6.28-1.63-10.23-2.8-3.95-1.17-5.02-1.87-6.02-1.87s-2.53-.23-6.67,2.05c-4.13,2.27-3.2,3.59-2.91,6.57.28,2.98,3.56,3.59,2.63,10.59-.95,7.01,3.48,3.77,5.36,8.06,1.89,4.29.19,3.94-.93,4.47-1.13.53-2.26,4.2-3.11,7.71-.84,3.51.09,3.94-.94,3.77-1.03-.17-2.25.61-4.23-2.28-1.98-2.89-3.57-.16-3.86-1.84-.27-1.67-2.73-4.46-1.79-8.32.93-3.86,2.45-4.21-.94-6.22-3.38-2.02-2.53-2.28-4.13-6.4-1.6-4.12-1.98-4.89-5.07-8.67-3.12-3.76-2.84-2.71-1.98-6.48.85-3.76,1.51-8.67-.38-11.3-1.88-2.63-9.68-9.89-16.08-13.31-6.39-3.41-7.71-.78-10.53-6.22-2.82-5.42-4.12-11.12-8.83-14.45-4.7-3.32-2.35-3.59-6.86-1.92-4.52,1.66-4.61,2.36-4.23,3.67.38,1.31,1.41,3.08.74,6.66-.66,3.58-1.6,2.45,3.11,5.24,4.71,2.81,2.73,2.2,5.08,7.36,2.36,5.17,2.73,6.14,4.61,8.24,1.88,2.1,2.54,3.94,7.24,4.99,4.7,1.05,3.94-.26,5.16.88,1.23,1.13-3.29,1.57-2.44,2.1.84.53,1.89,2.02,5.83,4.47,3.95,2.45,8,4.99,9.04,6.92,1.03,1.93,4.51,9.19-.57,3.85-5.09-5.34-5.17-2.88-6.58.79-1.41,3.68,1.31,6.48,1.13,9.19-.19,2.71-2.55,1.67-4.15,3.85-1.6,2.19-2.44,4.81-4.32,6.22-1.88,1.41-1.31-1.57-2.34-1.57s-1.41,1.31-2.73,3.84c-1.32,2.54,0,3.6.55,7.01.56,3.41,1.51,3.68-2.16,3.51-3.66-.17-2.83-3.6-6.2-5.87-3.39-2.27-5.36-1.49-8.19-3.25-2.82-1.74,1.22-2.18,8.28-3.06,7.05-.88,7.9-1.57,10.06-3.23,2.16-1.67,1.41-2.11,3.76-5.43,2.35-3.32,0-4.65-1.6-8.68-1.6-4.02-4.61-5.85-5.64-6.65-1.04-.79-3.39-3.15-5.45-5.43-2.08-2.28-4.24-2.63-7.81-3.51-3.57-.88-2.91-4.12-4.89-5.08-1.98-.96-3.95-3.77-8.47-7.97-4.51-4.2-2.81-7.36-4.89-11.03-2.07-3.69-4.13-6.48-8.66-6.48s-7.9,3.15-12.41,7.52c-4.51,4.38-3.57,6.48-8.84,3.16-5.27-3.33-7.14-2.98-10.92.17-3.74,3.15-4.51,6.31-4.51,12.61s-4.51,3.68-8.09,5.42c-3.57,1.75-6.77,6.14-12.22,16.47-5.46,10.34.37,5.42-.76,8.93-1.13,3.51.38,6.31-4.7,10.86-5.09,4.56-2.83-.52-5.83,3.16-3.01,3.68-7.16,6.66-14.3,5.78-7.15-.88-5.09,1.93-9.6,2.98-4.51,1.05-6.95,2.63-5.83-2.46,1.13-5.09.19-4.37-8.46-4.03-8.66.35-11.67,2.63-10.92,1.41.76-1.23,1.13-3.33,2.08-8.24.94-4.9,2.25-6.48.94-6.48s-4.15.71-2.08-8.05c2.08-8.77,2.82-10.34,1.88-15.41-.94-5.08.36-11.92-.74-14.89-1.13-2.97,2.25-5.95.74-7.53-1.5-1.57-3.2-3.67-2.07-3.67s5.82.17,11.85,1.22c6.03,1.05,12.22-.88,15.8-.53,3.56.36,11.1,1.93,18.61,3.16,7.52,1.22,7.33-1.06,6.59-12.09-.76-11.03.56-16.11-1.7-18.39-2.26-2.28-4.69-2.1-7.14-5.08-2.46-2.98-.57-7.36-5.83-8.94-5.27-1.58-11.11-.35-8.28-1.4,2.81-1.06,3.94-1.41.94-3.68-3.03-2.27-3.78-4.72-1.51-5.08,2.26-.35,8.65-.35,8.65-.35,0,0,.57,3.16,3.96,1.75,3.38-1.41,7.71-2.8,6.77-5.08-.95-2.28-2.64-5.08-2.08-5.08s1.89,3.15,9.03,3.15,6.58-1.05,6.03-4.03c-.57-2.98,4.71-2.8,8.28-5.26,3.56-2.45-1.32-5.25-.56-7.52.74-2.28,4.89-3.69,12.22-4.2,7.33-.53,6.01-1.76,5.27-2.63-.75-.88.19-4.56.74-9.29.58-4.74-.56-6.31,3.21-8.58,3.76-2.27,2.63-1.4,10.34-2.11,7.71-.7,3-2.45,4.32-2.8,1.33-.36,10.53-2.63,12.23-3.34,1.69-.69,1.51-.51,0-3.85-1.51-3.32-3.57-5.24-5.26-20.66-1.69-15.41-1.32-15.41,8.08-18.22,9.41-2.8,7.34-1.93,6.58,6.66-.74,8.58-4.89,8.58-5.83,14.88-.94,6.3-.18,10.15,3.76,16.82,3.96,6.66,3.58,3.32,12.04,3.32s6.58,2.1,12.22,4.03c5.65,1.93,3.76-3.5,9.23-5.43,5.45-1.92,4.32,1.23,17.11-.7,4.88-.74,6.54-.91,6.92-.94-.39.03-1.79.04-.34-.81,3.01-1.75,3.76-4.9,8.1-5.43,4.32-.52,7.33,1.23,7.14-5.43-.18-6.65-2.63-5.6-1.88-10.68.76-5.08.93-2.8,1.31-6.83.38-4.03-.55-4.73,4.9-6.13,5.46-1.4,1.69,4.9,8.27,6.3,6.58,1.41,5.65,2.46,6.78-2.62,1.12-5.08,4.71-11.74,1.5-11.39-3.19.36-3.95-.17-7.14-4.9-3.2-4.73-5.07-5.78-3-5.78s9.02-1.93,18.99-1.58c9.96.35,12.8,1.22,13.35.17.57-1.05-1.69-2.09,1.7-4.2,3.39-2.1,14.49,1.05,12.79-.88-1.7-1.93-11.47-4.56-18.05-3.5-6.58,1.04-22.57,2.98-25.02,2.8-2.44-.17-6.95-1.93-8.09-3.14-1.12-1.23-4.71-2.11-4.71-7.89s2.08-8.05-1.31-13.66c-3.39-5.61,6.2-10.34,12.79-16.29,6.58-5.95,4.89-10.87,8.83-11.21,3.96-.35,5.47-2.45,3.58-4.38-1.88-1.92-8.84-8.58-12.23-9.28-3.38-.7-8.46-4.56-13.73,4.56-5.26,9.1.37,9.98,1.32,14.71.94,4.73-7.34,8.24-13.55,12.61-6.2,4.37-8.45,3.33-10.34,14.54-1.88,11.21-3.76,11.57,3.2,15.41,6.95,3.86,8.28,5.78,5.09,9.1-3.2,3.34-9.97,3.16-14.11,11.05-4.13,7.87-2.44,11.73-4.13,15.23-1.69,3.51-6.95,5.08-8.47,8.58-1.5,3.51-1.5,10.15-7.9,9.11-6.39-1.06-2.82-9.64-5.65-14.02-2.82-4.37-5.08-8.05-8.46-13.48-3.38-5.42-.74-10.68-3.95-13.49-3.19-2.8-3.95-8.4-3.95-8.4l-1.12,2.63c-1.12,2.63-.56,4.2-6.95,12.09-6.4,7.88-15.99,8.4-20.7,6.47-4.7-1.93-3.94-6.47-3.94-12.26s-1.13-13.49-.19-22.59c.94-9.11,3.58-8.41,13.55-14.36,9.96-5.95,10.15-5.61,12.59-9.46,2.44-3.84,9.6-9.29,13.73-12.79,4.14-3.5,11.29-16.81,15.05-26.27,3.77-9.45,10.72-15.24,17.49-25.39,6.78-10.15,18.81-19.09,34.23-25.57,15.42-6.48,12.8-7.19,16.36-12.27,3.58-5.08,5.09-2.1,11.11-3.32,6.03-1.22,5.08,0-.94,5.95-6.01,5.95-8.64,12.26-3.57,7.53,5.08-4.73,9.02-10.34,16.93-9.98,7.91.35,4.7,0,12.42,3.51,7.71,3.5,9.03,3.85,4.71,6.65-4.35,2.8-11.68,2.11-11.68,2.11,0,0,2.45,5.78,9.59,6.66,7.15.88,11.1-5.61,15.8-3.16,4.71,2.45,6.02,4.2-.38,3.68-6.39-.52-8.27,3.5-.37,6.3,7.91,2.8,8.65,3.15,18.99,4.56,10.34,1.41,14.87,8.93,22.76,12.26,7.91,3.33,17.12.52,14.49,7.72-2.64,7.18,2.06,14.18-11.67,17.51-13.73,3.32-13.36-1.06-24.82-4.56-11.48-3.5-19.56-7-19.56-7,0,0,3,4.04,8.27,8.94,5.26,4.89,5.83,9.45,5.26,18.39-.56,8.93-3.01,11.39,6.03,15.76,9.03,4.38,7.71,3.15,10.53,2.46,2.83-.7,7.53-1.58,6.39-2.98-1.12-1.4-2.07-4.02-5.08-5.42-3.01-1.41-3.19-4.73-.18-6.31,3-1.58,5.82,1.4,12.41,1.05,6.59-.35,0-2.45,3.19-5.77,3.21-3.33,3.4-8.93,11.1-11.92,7.71-2.98,15.97,1.41,18.06-1.92,2.07-3.32,4.33-7.18,0-12.26-4.33-5.09-7.71-6.82-5.08-9.29,2.63-2.45,7.9-8.93,10.35-5.25,2.44,3.68,8.65,7.72.75,7-7.91-.7-2.46,11.74,4.7,11.04,7.14-.7,6.58-2.98,12.42-5.78,5.82-2.81,17.3-12.09,25.38-14.89,8.09-2.8,9.78-2.1,12.97-.7,3.2,1.4,3.2,4.03,12.05,2.27,8.84-1.75,11.47-3.85,19.75-5.26,8.28-1.39-.56,2.98,3.19,4.2,3.77,1.23,4.14,2.28,6.97.36,2.82-1.93,11.85-5.09,7.71-8.24-4.15-3.16-7.16-5.26-7.16-5.26,0,0,3.01-6.65,10.92-6.13,7.9.52,19.93,7.88,27.65,13.14,7.71,5.25,17.12,16.46,17.12,16.46,0,0,3.37-5.77.55-15.41-2.82-9.62-9.96-7.35-9.96-16.46s-6.59-6.66-4.32-13.14c2.26-6.48,8.65-8.94,10.35-17.17,1.68-8.22,3.19-15.05,9.02-15.05s18.43,1.75,18.43,1.75c0,0,0,7.53-4.71,18.74-4.7,11.2,2.45,12.44,1.32,26.1-1.12,13.66-1.32,15.41,1.88,18.56,3.19,3.15,9.23,7.01,6.96,12.96-2.26,5.96-3.39,9.64-11.85,12.97-8.47,3.32-19.18,1.41-15.25,4.03,3.97,2.61,9.04,4.9,14.68,5.77,5.65.88,2.82-.35,7.33-4.03,4.52-3.68,14.68-11.04,14.3-14.54-.37-3.49-5.83-8.93-2.07-11.56,3.76-2.62,5.26-6.65,11.1-3.32,5.84,3.32,11.48,15.77,11.48,15.24s-1.13-12.26-8.09-19.26c-6.96-7.01-18.43-.36-18.43-6.48s3.19-14.54,2.44-21.2c-.76-6.65-3.37-13.31.94-19.08,4.32-5.79,4.51-10.34,4.51-10.34,0,0,1.88,5.42.37,12.25-1.5,6.83.76,10.87,3.95,10.87s17.49.18,9.78-2.1c-7.71-2.28-9.96-4.38-2.26-8.58,7.71-4.2,7.33-1.41,18.61,1.22,11.3,2.63,13.92,4.56,17.69,4.38,3.76-.17,3.2-.53,1.88-3.85-1.3-3.33-3.01-5.61-6.58-7.89-3.58-2.27-6.01.53-7.14-2.98-1.12-3.51-3.19-12.26-4.14-15.59-.94-3.33,2.83-.7,8.84-.7s22.38-.88,34.99-1.22c12.59-.35.19-13.49-.76-22.77-.94-9.28,23.33-9.63,35.17-11.38,11.86-1.75,25.58-1.22,47.78-6.48,22.19-5.26,7.91-4.38,11.1-10.68,3.21-6.31,8.66-7.36,15.24-7.36s12.61,1.22,10.16,2.1c-2.45.88-9.78,4.55,1.69,7.01,11.48,2.45,8.48,2.26,2.45,4.37-6.01,2.1-.93,5.95,10.72,5.95s4.7-1.05,2.82-4.9c-1.87-3.85,1.7-2.46,11.3-.88,9.58,1.57,13.35,3.16,18.62,8.05,5.26,4.91,6.2,3.69,8.08,10.52,1.89,6.83-.18,5.77-8.27,12.08-8.09,6.31-12.97,6.31-24.64,13.67-11.67,7.35-8.85,11.2-15.23,16.11-6.4,4.9-4.7,3.51,8.83,0,13.54-3.51,20.88-5.78,27.85-5.08,6.95.69,10.34,3.32,15.6,3.32s-.37.88,16.18.88,14.09,0,8.08,4.73c-6.02,4.73,1.13,6.14,8.47,6.14s16.36.35,23.13-.7c6.79-1.05.95-6.13,9.04-6.48,8.08-.35,10.72-1.05,19.37-1.05s6.02,3.51,9.03,6.66c3.01,3.15,7.14,5.25,4.32,11.56-2.81,6.31-4.32,6.47-2.64,15.06,1.7,8.58,6.03,9.81,11.3,11.39,5.26,1.58,5.26-7.7,10.34-10.86,5.08-3.15,6.21,6.3,12.04,4.9,5.84-1.4,12.41-.7,17.49.87,5.08,1.59,9.4,2.47,16.55.89,7.14-1.58,4.89-4.37,2.45-8.76-2.45-4.38-2.64-4.04,1.88-8.58,4.51-4.56,7.53-2.28,22.19,1.57,14.68,3.85,9.97,3.85,18.24,6.14,8.28,2.27,5.65,1.75,18.25,7.53,12.6,5.78,10.16,12.61,15.98,16.28,5.83,3.69,6.21,0,17.88-1.04,11.65-1.06,11.47,1.4,24.26,4.73,12.78,3.32,9.39,7.53,9.39,11.21s-3.56,6.48,4.33,8.23c7.9,1.75,11.1,3.32,17.87,1.58,6.77-1.75.75,1.75,15.8,1.92,15.04.18,9.97-1.75,14.49,1.41,4.51,3.16,5.64,9.46,12.97,8.76,7.33-.71,6.77-.53,3.76-7.01-3.01-6.48-4.89-7.54-.56-7.36,4.32.17,13.16,2.1,29.52,4.73,16.37,2.63,16.93,5.61,30.3,14.01,13.34,8.41,17.1,9.1,26.89,16.64,3.73,2.87,4.47,3.7,4.55,3.91.25,0,1.29.3,5.05,2.04,10.52,4.9,8.65,3.33,17.68,7.71,9.01,4.38,16.72,10.51,16.72,10.51,0,0,.58.88-6.19,1.58Zm-877.55,178.02s-1,1.34,4.27-2.87c5.27-4.19-2.46-.17-5.47-1.05-3-.88-3.95-2.28-3-6.13.94-3.86-.38-3.86-3.58-8.94,0,0-1.7-1.04-5.26,1.05-3.57,2.11-5.64-2.09-9.97-.52-4.33,1.57-9.03.88-11.67,7.36-2.62,6.48-5.64,2.27-6.57,7.52-.95,5.26-9.04,8.05-9.04,8.05,0,0,3.21,3.16,5.65,6.14,2.44,2.98.75,1.06,3.19,10.87,2.45,9.81,4.15,8.93,7.53,10.33,3.39,1.4,8.65,4.74,8.65,4.74,0,0-3.19-1.93-3.19,3.32s-5.09,8.93-4.52,16.64c.56,7.71-6.95,14.88-.93,15.6,6.01.7,4.13,3.32,10.72,5.08,6.59,1.75,10.34,2.98,19.94,2.98s4.32-3.68,3-9.11c-1.32-5.42-2.07-8.93-2.44-14.88-.38-5.95-2.64-4.38-4.14-8.05-1.5-3.69.75-5.79,5.26-5.79s5.09-.17,2.64-4.2c-2.45-4.04-.93-5.61-3.96-7.36-2.99-1.75-4.32,5.79-4.32,5.79,0,0-1.88-1.75-1.12-9.11.75-7.36,1.31-3.85-.93-5.26-2.27-1.4-3.59.35-6.59-4.55-3.01-4.91-.37-3.85-3.94-9.81-3.58-5.95-1.7-2.81,2.25-2.81s1.88-.88,0-2.8c-1.88-1.93-3.19-4.91,1.88-4.56,5.09.35,11.67,1.4,14.11,1.58,2.45.17,1.58.76,1.58.76ZM731.59,246.28c-1.74,2.99,2.94,6.83,6.33,5.64,3.39-1.19,4.5.13,6.43-1.41,1.93-1.53,2.11-3.8-.18-6.02-2.29-2.22-1.36-3.52-1.75-3.76-4.32-2.65-9.09,2.56-10.83,5.56ZM1661.39,53.16c-5.09.17-10.73.35-6.02,1.93,4.71,1.57,2.82,9.46,11.84,5.08,9.03-4.38,7.15-4.73,13.36-7.36,6.2-2.62,2.61-1.36-4.89-3.32-4.7-1.22-9.22,3.51-14.3,3.68Z"/>
  </g>
</svg>